SplineFontDB: 3.0
FontName: UnicornMagic
FullName: Unicorn Magic
FamilyName: Unicorn Magic
Weight: Book
Copyright: Unicorn Magic (c) DmStudio. 2019. All Rights Reserved
Version: 1.00;March 11, 2019;FontCreator 11.5.0.2430 64-bit
ItalicAngle: 0
UnderlinePosition: -100
UnderlineWidth: 50
Ascent: 800
Descent: 200
InvalidEm: 0
sfntRevision: 0x00010000
LayerCount: 4
Layer: 0 1 "Arri+AOgA-re" 1
Layer: 1 1 "Avant" 0
Layer: 2 0 "Arri+AOgA-re 2" 1
Layer: 3 0 "Arri+AOgA-re 3" 1
XUID: [1021 401 1404388813 24526]
StyleMap: 0x0040
FSType: 0
OS2Version: 3
OS2_WeightWidthSlopeOnly: 0
OS2_UseTypoMetrics: 0
CreationTime: 1533663584
ModificationTime: 1559163175
PfmFamily: 17
TTFWeight: 400
TTFWidth: 5
LineGap: 0
VLineGap: 0
Panose: 2 0 5 0 0 0 0 0 0 0
OS2TypoAscent: 924
OS2TypoAOffset: 0
OS2TypoDescent: -7
OS2TypoDOffset: 0
OS2TypoLinegap: 100
OS2WinAscent: 1422
OS2WinAOffset: 0
OS2WinDescent: 117
OS2WinDOffset: 0
HheadAscent: 1422
HheadAOffset: 0
HheadDescent: -117
HheadDOffset: 0
OS2SubXSize: 700
OS2SubYSize: 650
OS2SubXOff: 0
OS2SubYOff: 140
OS2SupXSize: 700
OS2SupYSize: 650
OS2SupXOff: 100
OS2SupYOff: 350
OS2StrikeYSize: 50
OS2StrikeYPos: 250
OS2CapHeight: 1077
OS2XHeight: 913
OS2Vendor: 'HL  '
OS2CodePages: 00000001.00000000
OS2UnicodeRanges: 00000001.00000000.00000000.00000000
Lookup: 258 0 0 "'kern' Cr+AOkA-nage horizontal dans Latin lookup 0" { "sous-table 'kern' Cr+AOkA-nage horizontal dans Latin lookup 0"  } ['kern' ('latn' <'dflt' > ) ]
DEI: 91125
KernClass2: 19 19 "sous-table 'kern' Cr+AOkA-nage horizontal dans Latin lookup 0"
 4 five
 3 six
 3 B b
 3 C c
 3 D d
 3 E e
 3 F f
 3 G g
 3 K k
 3 L l
 3 M m
 3 P p
 3 Q q
 3 R r
 3 S s
 3 T t
 3 V v
 3 X x
 3 one
 5 seven
 3 E e
 3 O o
 3 Q q
 3 T t
 3 U u
 3 V v
 3 W w
 3 A a
 3 F f
 3 H h
 3 C c
 3 G g
 3 P p
 3 R r
 3 S s
 3 J j

StartChar: exclam
Encoding: 33 33 4
Width: 184
GlyphClass: 2
Flags: W
LayerCount: 4
Fore
SplineSet
148 116 m 1,0,-1
 34 116 l 1,1,-1
 34 892 l 1,2,-1
 148 892 l 1,3,-1
 148 116 l 1,0,-1
124 -38 m 0,4,5
 120 -38 120 -38 117 -36 c 2,6,-1
 90 -19 l 1,7,-1
 83 -17 l 1,8,-1
 42 -27 l 2,9,10
 38 -27 38 -27 34.5 -24 c 128,-1,11
 31 -21 31 -21 31 -17 c 2,12,-1
 32 -14 l 2,13,14
 42 12 42 12 42 15 c 256,15,16
 42 18 42 18 40 21 c 2,17,-1
 18 44 l 2,18,19
 15 47 15 47 15 50 c 256,20,21
 15 53 15 53 18 56 c 128,-1,22
 21 59 21 59 27 59 c 2,23,-1
 61 58 l 2,24,25
 63 58 63 58 66 59.5 c 128,-1,26
 69 61 69 61 88 85 c 0,27,28
 92 89 92 89 97 89 c 0,29,30
 106 89 106 89 109 82 c 2,31,-1
 120 55 l 2,32,33
 121 51 121 51 128 49 c 2,34,-1
 161 40 l 2,35,36
 169 37 169 37 169 31 c 0,37,38
 169 26 169 26 165 23 c 2,39,-1
 138 7 l 2,40,41
 133 5 133 5 133 1 c 2,42,-1
 135 -30 l 2,43,44
 135 -38 135 -38 124 -38 c 0,4,5
EndSplineSet
Validated: 1
EndChar

StartChar: quotedbl
Encoding: 34 34 5
Width: 240
GlyphClass: 2
Flags: W
LayerCount: 4
Fore
SplineSet
68 719 m 1,0,-1
 54 726 l 1,1,-1
 74 770 l 2,2,3
 69 768 69 768 64 768 c 0,4,5
 43 768 43 768 29 783 c 128,-1,6
 15 798 15 798 15 819 c 0,7,8
 15 841 15 841 29 856 c 128,-1,9
 43 871 43 871 64 871 c 0,10,11
 84 871 84 871 98 856 c 128,-1,12
 112 841 112 841 112 819 c 0,13,14
 112 800 112 800 100 786 c 1,15,-1
 68 719 l 1,0,-1
181 719 m 1,16,-1
 167 726 l 1,17,-1
 188 770 l 1,18,19
 182 768 182 768 177 768 c 0,20,21
 157 768 157 768 142.5 783 c 128,-1,22
 128 798 128 798 128 819 c 0,23,24
 128 841 128 841 142.5 856 c 128,-1,25
 157 871 157 871 177 871 c 256,26,27
 197 871 197 871 211 856 c 128,-1,28
 225 841 225 841 225 819 c 0,29,30
 225 800 225 800 213 786 c 1,31,-1
 181 719 l 1,16,-1
EndSplineSet
Validated: 1
EndChar

StartChar: numbersign
Encoding: 35 35 6
Width: 575
GlyphClass: 2
Flags: W
LayerCount: 4
Fore
SplineSet
451 20 m 1,0,-1
 337 20 l 1,1,-1
 337 165 l 1,2,-1
 255 165 l 1,3,-1
 255 20 l 1,4,-1
 141 20 l 1,5,-1
 141 165 l 1,6,-1
 15 165 l 1,7,-1
 15 279 l 1,8,-1
 141 279 l 1,9,-1
 141 505 l 1,10,-1
 15 505 l 1,11,-1
 15 618 l 1,12,-1
 141 618 l 1,13,-1
 141 796 l 1,14,-1
 255 796 l 1,15,-1
 255 618 l 1,16,-1
 337 618 l 1,17,-1
 337 796 l 1,18,-1
 451 796 l 1,19,-1
 451 618 l 1,20,-1
 560 618 l 1,21,-1
 560 505 l 1,22,-1
 451 505 l 1,23,-1
 451 279 l 1,24,-1
 560 279 l 1,25,-1
 560 165 l 1,26,-1
 451 165 l 1,27,-1
 451 20 l 1,0,-1
337 279 m 1,28,-1
 337 505 l 1,29,-1
 255 505 l 1,30,-1
 255 279 l 1,31,-1
 337 279 l 1,28,-1
EndSplineSet
Validated: 1
EndChar

StartChar: dollar
Encoding: 36 36 7
Width: 594
GlyphClass: 2
Flags: W
LayerCount: 4
Fore
SplineSet
372 -33 m 1,0,-1
 258 -33 l 1,1,-1
 258 57 l 1,2,3
 109 65 109 65 49 156 c 0,4,5
 15 208 15 208 15 277 c 0,6,7
 15 322 15 322 24.5 355.5 c 128,-1,8
 34 389 34 389 38 396 c 2,9,-1
 60 448 l 1,10,-1
 165 404 l 1,11,-1
 143 352 l 2,12,13
 129 318 129 318 129 277 c 0,14,15
 129 246 129 246 144 218 c 1,16,17
 174 176 174 176 258 171 c 1,18,-1
 258 423 l 1,19,20
 92 448 92 448 57 581 c 0,21,22
 52 604 52 604 52 627 c 0,23,24
 52 686 52 686 83.5 740 c 128,-1,25
 115 794 115 794 170 825 c 0,26,27
 212 849 212 849 258 851 c 1,28,-1
 258 976 l 1,29,-1
 372 976 l 1,30,-1
 372 830 l 1,31,32
 432 805 432 805 488 749 c 2,33,-1
 528 709 l 1,34,-1
 447 628 l 1,35,36
 398 678 398 678 372 700 c 1,37,-1
 372 524 l 1,38,39
 447 507 447 507 493 472.5 c 128,-1,40
 539 438 539 438 559 394.5 c 128,-1,41
 579 351 579 351 579 309 c 0,42,43
 579 228 579 228 523.5 160 c 128,-1,44
 468 92 468 92 372 66 c 1,45,-1
 372 -33 l 1,0,-1
258 538 m 1,46,-1
 258 737 l 1,47,48
 208 727 208 727 182 683 c 0,49,50
 166 655 166 655 166 627 c 0,51,52
 166 617 166 617 168 607 c 0,53,54
 183 550 183 550 258 538 c 1,46,-1
372 185 m 1,55,56
 461 229 461 229 466 305 c 1,57,-1
 466 307 l 2,58,59
 466 376 466 376 372 406 c 1,60,-1
 372 185 l 1,55,56
EndSplineSet
Validated: 1
EndChar

StartChar: percent
Encoding: 37 37 8
Width: 531
GlyphClass: 2
Flags: W
LayerCount: 4
Fore
SplineSet
117 53 m 1,0,-1
 15 103 l 1,1,-1
 408 916 l 1,2,-1
 510 867 l 1,3,-1
 117 53 l 1,0,-1
84 760 m 0,4,5
 66 760 66 760 54 775 c 128,-1,6
 42 790 42 790 42 811 c 0,7,8
 42 833 42 833 54 848 c 128,-1,9
 66 863 66 863 84 863 c 0,10,11
 101 863 101 863 113 848 c 128,-1,12
 125 833 125 833 125 811 c 0,13,14
 125 790 125 790 113 775 c 128,-1,15
 101 760 101 760 84 760 c 0,4,5
474 103 m 0,16,17
 457 103 457 103 444.5 118 c 128,-1,18
 432 133 432 133 432 154 c 256,19,20
 432 175 432 175 444.5 190 c 128,-1,21
 457 205 457 205 474 205 c 0,22,23
 492 205 492 205 504 190 c 128,-1,24
 516 175 516 175 516 154 c 256,25,26
 516 133 516 133 504 118 c 128,-1,27
 492 103 492 103 474 103 c 0,16,17
EndSplineSet
Validated: 1
EndChar

StartChar: ampersand
Encoding: 38 38 9
Width: 584
GlyphClass: 2
Flags: W
LayerCount: 4
Fore
SplineSet
232 100 m 0,0,1
 149 100 149 100 89 157 c 0,2,3
 15 234 15 234 15 339 c 0,4,5
 15 448 15 448 99 531 c 2,6,-1
 110 542 l 1,7,8
 92 574 92 574 80 604 c 0,9,10
 56 666 56 666 56 709 c 0,11,12
 56 768 56 768 89 807 c 0,13,14
 138 863 138 863 210 863 c 0,15,16
 224 863 224 863 239 861 c 0,17,18
 316 848 316 848 340 788 c 0,19,20
 350 759 350 759 350 731 c 0,21,22
 350 679 350 679 322.5 629 c 128,-1,23
 295 579 295 579 253 531 c 1,24,25
 333 427 333 427 423 340 c 1,26,-1
 478 398 l 1,27,-1
 562 321 l 1,28,-1
 506 262 l 1,29,-1
 569 209 l 1,30,-1
 497 120 l 1,31,-1
 425 182 l 1,32,33
 326 100 326 100 232 100 c 0,0,1
190 635 m 1,34,35
 237 692 237 692 237 732 c 0,36,37
 237 739 237 739 235 745 c 1,38,39
 227 750 227 750 212 750 c 0,40,41
 198 750 198 750 184 742 c 0,42,43
 170 730 170 730 170 709 c 0,44,45
 170 682 170 682 185 647 c 2,46,-1
 190 635 l 1,34,35
232 213 m 0,47,48
 281 213 281 213 342 260 c 1,49,50
 255 343 255 343 175 446 c 1,51,52
 173 443 173 443 170 441 c 0,53,54
 129 397 129 397 129 338 c 0,55,56
 129 280 129 280 168 239 c 0,57,58
 196 213 196 213 232 213 c 0,47,48
EndSplineSet
Validated: 1
EndChar

StartChar: quotesingle
Encoding: 39 39 10
Width: 127
GlyphClass: 2
Flags: W
LayerCount: 4
Fore
SplineSet
68 754 m 1,0,-1
 54 761 l 1,1,-1
 74 805 l 2,2,3
 69 803 69 803 64 803 c 0,4,5
 43 803 43 803 29 818 c 128,-1,6
 15 833 15 833 15 854 c 0,7,8
 15 876 15 876 29 891 c 128,-1,9
 43 906 43 906 64 906 c 0,10,11
 84 906 84 906 98 891 c 128,-1,12
 112 876 112 876 112 854 c 0,13,14
 112 835 112 835 100 821 c 1,15,-1
 68 754 l 1,0,-1
EndSplineSet
Validated: 1
EndChar

StartChar: parenleft
Encoding: 40 40 11
Width: 250
GlyphClass: 2
Flags: W
LayerCount: 4
Fore
SplineSet
159 0 m 1,0,1
 155 2 155 2 133.5 27 c 128,-1,2
 112 52 112 52 84.5 104 c 128,-1,3
 57 156 57 156 36 239 c 128,-1,4
 15 322 15 322 15 439 c 0,5,6
 15 555 15 555 36 639 c 128,-1,7
 57 723 57 723 84 777.5 c 128,-1,8
 111 832 111 832 132 859 c 128,-1,9
 153 886 153 886 156 888 c 2,10,-1
 235 806 l 2,11,12
 234 805 234 805 218 784 c 128,-1,13
 202 763 202 763 181.5 718.5 c 128,-1,14
 161 674 161 674 145 605 c 128,-1,15
 129 536 129 536 129 439 c 0,16,17
 129 343 129 343 144.5 276 c 128,-1,18
 160 209 160 209 180.5 167 c 128,-1,19
 201 125 201 125 216.5 105.5 c 128,-1,20
 232 86 232 86 233 86 c 2,21,-1
 233 87 l 1,22,-1
 159 0 l 1,0,1
EndSplineSet
Validated: 5
EndChar

StartChar: parenright
Encoding: 41 41 12
Width: 250
GlyphClass: 2
Flags: W
LayerCount: 4
Fore
SplineSet
91 0 m 2,0,-1
 17 87 l 1,1,-1
 17 86 l 2,2,3
 18 86 18 86 33.5 105.5 c 128,-1,4
 49 125 49 125 69.5 167 c 128,-1,5
 90 209 90 209 105.5 276 c 128,-1,6
 121 343 121 343 121 439 c 0,7,8
 121 536 121 536 105 605 c 128,-1,9
 89 674 89 674 68.5 718.5 c 128,-1,10
 48 763 48 763 32 784 c 128,-1,11
 16 805 16 805 15 805 c 2,12,-1
 93 888 l 1,13,14
 97 886 97 886 118 859 c 128,-1,15
 139 832 139 832 166 777.5 c 128,-1,16
 193 723 193 723 214 639 c 128,-1,17
 235 555 235 555 235 439 c 0,18,19
 235 322 235 322 214 239 c 128,-1,20
 193 156 193 156 165.5 104 c 128,-1,21
 138 52 138 52 116 27 c 128,-1,22
 94 2 94 2 91 0 c 2,0,-1
EndSplineSet
Validated: 5
EndChar

StartChar: asterisk
Encoding: 42 42 13
Width: 153
GlyphClass: 2
Flags: W
LayerCount: 4
Fore
SplineSet
100 757 m 0,0,1
 97 757 97 757 95 759 c 0,2,3
 69 777 69 777 67 777 c 256,4,5
 65 777 65 777 35 766 c 0,6,7
 32 766 32 766 29 769 c 128,-1,8
 26 772 26 772 26 776 c 2,9,-1
 35 809 l 2,10,11
 35 812 35 812 17 836 c 0,12,13
 15 839 15 839 15 842 c 0,14,15
 15 846 15 846 17.5 849 c 128,-1,16
 20 852 20 852 25 852 c 2,17,-1
 52 852 l 2,18,19
 56 852 56 852 60 856 c 2,20,-1
 75 879 l 2,21,22
 78 883 78 883 82 883 c 0,23,24
 88 883 88 883 92 877 c 2,25,-1
 100 850 l 2,26,27
 101 846 101 846 106 844 c 2,28,-1
 132 837 l 2,29,30
 138 833 138 833 138 827 c 0,31,32
 138 823 138 823 135 820 c 2,33,-1
 113 803 l 2,34,35
 109 800 109 800 109 795 c 2,36,-1
 110 767 l 2,37,38
 110 757 110 757 100 757 c 0,0,1
EndSplineSet
Validated: 1
EndChar

StartChar: plus
Encoding: 43 43 14
Width: 601
GlyphClass: 2
Flags: W
LayerCount: 4
Fore
SplineSet
358 130 m 1,0,-1
 244 130 l 1,1,-1
 244 358 l 1,2,-1
 15 358 l 1,3,-1
 15 472 l 1,4,-1
 244 472 l 1,5,-1
 244 701 l 1,6,-1
 358 701 l 1,7,-1
 358 472 l 1,8,-1
 586 472 l 1,9,-1
 586 358 l 1,10,-1
 358 358 l 1,11,-1
 358 130 l 1,0,-1
EndSplineSet
Validated: 1
EndChar

StartChar: comma
Encoding: 44 44 15
Width: 127
GlyphClass: 2
Flags: W
LayerCount: 4
Fore
SplineSet
68 -40 m 1,0,-1
 54 -33 l 1,1,-1
 74 11 l 1,2,-1
 64 10 l 2,3,4
 43 10 43 10 29 25 c 128,-1,5
 15 40 15 40 15 61 c 256,6,7
 15 82 15 82 29 97 c 128,-1,8
 43 112 43 112 64 112 c 0,9,10
 84 112 84 112 98 97 c 128,-1,11
 112 82 112 82 112 61 c 0,12,13
 112 42 112 42 100 27 c 1,14,-1
 68 -40 l 1,0,-1
EndSplineSet
Validated: 1
EndChar

StartChar: hyphen
Encoding: 45 45 16
AltUni2: 0000ad.ffffffff.0
Width: 601
GlyphClass: 2
Flags: W
LayerCount: 4
Fore
SplineSet
586 358 m 1,0,-1
 15 358 l 1,1,-1
 15 472 l 1,2,-1
 586 472 l 1,3,-1
 586 358 l 1,0,-1
EndSplineSet
Validated: 1
EndChar

StartChar: period
Encoding: 46 46 17
Width: 127
GlyphClass: 2
Flags: W
LayerCount: 4
Fore
SplineSet
64 -28 m 0,0,1
 43 -28 43 -28 29 -13 c 128,-1,2
 15 2 15 2 15 23 c 256,3,4
 15 44 15 44 29 59 c 128,-1,5
 43 74 43 74 64 74 c 0,6,7
 84 74 84 74 98 59 c 128,-1,8
 112 44 112 44 112 23 c 256,9,10
 112 2 112 2 98 -13 c 128,-1,11
 84 -28 84 -28 64 -28 c 0,0,1
EndSplineSet
Validated: 1
EndChar

StartChar: slash
Encoding: 47 47 18
Width: 525
GlyphClass: 2
Flags: W
LayerCount: 4
Fore
SplineSet
117 6 m 1,0,-1
 15 55 l 1,1,-1
 408 869 l 1,2,-1
 510 820 l 1,3,-1
 117 6 l 1,0,-1
EndSplineSet
Validated: 1
EndChar

StartChar: zero
Encoding: 48 48 19
Width: 500
GlyphClass: 2
Flags: W
LayerCount: 4
Fore
SplineSet
443 176 m 2,0,1
 443 136 443 136 433 102 c 128,-1,2
 423 68 423 68 400.5 43 c 128,-1,3
 378 18 378 18 341.5 4 c 128,-1,4
 305 -10 305 -10 251 -10 c 256,5,6
 197 -10 197 -10 160 4 c 128,-1,7
 123 18 123 18 100.5 42.5 c 128,-1,8
 78 67 78 67 68 101 c 128,-1,9
 58 135 58 135 58 175 c 2,10,-1
 58 550 l 2,11,12
 58 590 58 590 68 624 c 128,-1,13
 78 658 78 658 100.5 682.5 c 128,-1,14
 123 707 123 707 160 721 c 128,-1,15
 197 735 197 735 251 735 c 256,16,17
 305 735 305 735 341.5 721 c 128,-1,18
 378 707 378 707 400.5 682 c 128,-1,19
 423 657 423 657 433 623 c 128,-1,20
 443 589 443 589 443 549 c 2,21,-1
 443 176 l 2,0,1
179 179 m 2,22,23
 179 137 179 137 197 118.5 c 128,-1,24
 215 100 215 100 251 100 c 0,25,26
 286 100 286 100 303.5 119 c 128,-1,27
 321 138 321 138 321 183 c 2,28,-1
 321 542 l 2,29,30
 321 587 321 587 303.5 606 c 128,-1,31
 286 625 286 625 251 625 c 0,32,33
 215 625 215 625 197 606.5 c 128,-1,34
 179 588 179 588 179 546 c 2,35,-1
 179 179 l 2,22,23
EndSplineSet
EndChar

StartChar: one
Encoding: 49 49 20
Width: 500
GlyphClass: 2
Flags: W
LayerCount: 4
Fore
SplineSet
332 0 m 1,0,-1
 215 0 l 1,1,-1
 215 542 l 1,2,-1
 99 474 l 1,3,-1
 99 605 l 1,4,-1
 332 735 l 1,5,-1
 332 0 l 1,0,-1
EndSplineSet
EndChar

StartChar: two
Encoding: 50 50 21
Width: 500
GlyphClass: 2
Flags: W
LayerCount: 4
Fore
SplineSet
446 528 m 0,0,1
 446 448 446 448 402 376 c 2,2,-1
 257 135 l 1,3,-1
 441 135 l 1,4,-1
 441 0 l 1,5,-1
 60 0 l 1,6,-1
 292 425 l 2,7,8
 309 457 309 457 318.5 481 c 128,-1,9
 328 505 328 505 328 522 c 0,10,11
 328 573 328 573 306.5 593.5 c 128,-1,12
 285 614 285 614 251 614 c 0,13,14
 175 614 175 614 172 509 c 1,15,-1
 55 509 l 1,16,17
 65 735 65 735 251 735 c 0,18,19
 295 735 295 735 331 719.5 c 128,-1,20
 367 704 367 704 392.5 676.5 c 128,-1,21
 418 649 418 649 432 611 c 128,-1,22
 446 573 446 573 446 528 c 0,0,1
EndSplineSet
EndChar

StartChar: three
Encoding: 51 51 22
Width: 500
GlyphClass: 2
Flags: W
LayerCount: 4
Fore
SplineSet
461 212 m 0,0,1
 461 162 461 162 446 121 c 128,-1,2
 431 80 431 80 403.5 51 c 128,-1,3
 376 22 376 22 337.5 6 c 128,-1,4
 299 -10 299 -10 252 -10 c 0,5,6
 202 -10 202 -10 162.5 6 c 128,-1,7
 123 22 123 22 95.5 51.5 c 128,-1,8
 68 81 68 81 53.5 122.5 c 128,-1,9
 39 164 39 164 39 215 c 1,10,-1
 153 215 l 1,11,12
 153 160 153 160 177.5 132.5 c 128,-1,13
 202 105 202 105 247 105 c 0,14,15
 290 105 290 105 317 136 c 128,-1,16
 344 167 344 167 344 218 c 0,17,18
 344 244 344 244 336 263.5 c 128,-1,19
 328 283 328 283 315.5 296.5 c 128,-1,20
 303 310 303 310 286.5 318 c 128,-1,21
 270 326 270 326 254 328 c 1,22,-1
 254 421 l 1,23,24
 270 422 270 422 285 429 c 128,-1,25
 300 436 300 436 312 449 c 128,-1,26
 324 462 324 462 331.5 481 c 128,-1,27
 339 500 339 500 339 525 c 0,28,29
 339 576 339 576 314 601.5 c 128,-1,30
 289 627 289 627 252 627 c 0,31,32
 217 627 217 627 194 607.5 c 128,-1,33
 171 588 171 588 164 548 c 1,34,-1
 59 548 l 1,35,36
 62 589 62 589 75.5 623.5 c 128,-1,37
 89 658 89 658 113.5 682.5 c 128,-1,38
 138 707 138 707 174.5 721 c 128,-1,39
 211 735 211 735 259 735 c 0,40,41
 299 735 299 735 332.5 720 c 128,-1,42
 366 705 366 705 391 678 c 128,-1,43
 416 651 416 651 430 614 c 128,-1,44
 444 577 444 577 444 533 c 0,45,46
 444 471 444 471 422.5 435 c 128,-1,47
 401 399 401 399 363 379 c 1,48,49
 411 358 411 358 436 320 c 128,-1,50
 461 282 461 282 461 212 c 0,0,1
EndSplineSet
EndChar

StartChar: four
Encoding: 52 52 23
Width: 500
GlyphClass: 2
Flags: W
LayerCount: 4
Fore
SplineSet
471 158 m 1,0,-1
 394 158 l 1,1,-1
 394 0 l 1,2,-1
 280 0 l 1,3,-1
 280 158 l 1,4,-1
 33 158 l 1,5,-1
 33 284 l 1,6,-1
 236 725 l 1,7,-1
 394 725 l 1,8,-1
 394 273 l 1,9,-1
 471 273 l 1,10,-1
 471 158 l 1,0,-1
287 273 m 1,11,-1
 287 637 l 1,12,-1
 118 273 l 1,13,-1
 287 273 l 1,11,-1
EndSplineSet
EndChar

StartChar: five
Encoding: 53 53 24
Width: 500
GlyphClass: 2
Flags: W
LayerCount: 4
Fore
SplineSet
458 237 m 0,0,1
 458 185 458 185 442 140 c 128,-1,2
 426 95 426 95 396.5 61.5 c 128,-1,3
 367 28 367 28 326 9 c 128,-1,4
 285 -10 285 -10 234 -10 c 0,5,6
 165 -10 165 -10 117 27.5 c 128,-1,7
 69 65 69 65 45 141 c 1,8,-1
 148 195 l 1,9,10
 172 121 172 121 242 121 c 0,11,12
 283 121 283 121 310.5 150 c 128,-1,13
 338 179 338 179 338 232 c 0,14,15
 338 289 338 289 313 317 c 128,-1,16
 288 345 288 345 245 345 c 0,17,18
 216 345 216 345 197 331.5 c 128,-1,19
 178 318 178 318 169 299 c 1,20,-1
 67 299 l 1,21,-1
 67 725 l 1,22,-1
 427 725 l 1,23,-1
 427 598 l 1,24,-1
 169 598 l 1,25,-1
 169 431 l 1,26,27
 194 445 194 445 221.5 452 c 128,-1,28
 249 459 249 459 269 459 c 0,29,30
 314 459 314 459 349 442.5 c 128,-1,31
 384 426 384 426 408.5 396.5 c 128,-1,32
 433 367 433 367 445.5 326.5 c 128,-1,33
 458 286 458 286 458 237 c 0,0,1
EndSplineSet
EndChar

StartChar: six
Encoding: 54 54 25
Width: 500
GlyphClass: 2
Flags: W
LayerCount: 4
Fore
SplineSet
458 222 m 0,0,1
 458 166 458 166 441.5 123 c 128,-1,2
 425 80 425 80 396.5 50.5 c 128,-1,3
 368 21 368 21 330 5.5 c 128,-1,4
 292 -10 292 -10 248 -10 c 256,5,6
 204 -10 204 -10 166.5 7.5 c 128,-1,7
 129 25 129 25 101 56.5 c 128,-1,8
 73 88 73 88 57.5 131 c 128,-1,9
 42 174 42 174 42 224 c 0,10,11
 42 283 42 283 60 336.5 c 128,-1,12
 78 390 78 390 115 458 c 2,13,-1
 263 725 l 1,14,-1
 397 725 l 1,15,-1
 234 434 l 1,16,17
 246 436 246 436 258 437.5 c 128,-1,18
 270 439 270 439 281 439 c 0,19,20
 363 439 363 439 410.5 381.5 c 128,-1,21
 458 324 458 324 458 222 c 0,0,1
339 224 m 0,22,23
 339 273 339 273 313 302.5 c 128,-1,24
 287 332 287 332 249 332 c 0,25,26
 210 332 210 332 186 300 c 128,-1,27
 162 268 162 268 162 222 c 0,28,29
 162 177 162 177 186 145 c 128,-1,30
 210 113 210 113 249 113 c 0,31,32
 287 113 287 113 313 144.5 c 128,-1,33
 339 176 339 176 339 224 c 0,22,23
EndSplineSet
EndChar

StartChar: seven
Encoding: 55 55 26
Width: 500
GlyphClass: 2
Flags: W
LayerCount: 4
Fore
SplineSet
474 725 m 1,0,-1
 225 0 l 1,1,-1
 75 0 l 1,2,-1
 303 598 l 1,3,-1
 38 598 l 1,4,-1
 38 725 l 1,5,-1
 474 725 l 1,0,-1
EndSplineSet
EndChar

StartChar: eight
Encoding: 56 56 27
Width: 500
GlyphClass: 2
Flags: W
LayerCount: 4
Fore
SplineSet
463 212 m 0,0,1
 463 109 463 109 411.5 49.5 c 128,-1,2
 360 -10 360 -10 251 -10 c 0,3,4
 196 -10 196 -10 156 6 c 128,-1,5
 116 22 116 22 89.5 51 c 128,-1,6
 63 80 63 80 50 121 c 128,-1,7
 37 162 37 162 37 213 c 0,8,9
 37 244 37 244 46 271 c 128,-1,10
 55 298 55 298 70 319.5 c 128,-1,11
 85 341 85 341 103.5 356.5 c 128,-1,12
 122 372 122 372 141 381 c 1,13,14
 99 409 99 409 81.5 444 c 128,-1,15
 64 479 64 479 64 534 c 0,16,17
 64 577 64 577 75.5 613.5 c 128,-1,18
 87 650 87 650 110.5 677 c 128,-1,19
 134 704 134 704 169 719.5 c 128,-1,20
 204 735 204 735 251 735 c 0,21,22
 297 735 297 735 332 719 c 128,-1,23
 367 703 367 703 390.5 675 c 128,-1,24
 414 647 414 647 425.5 610.5 c 128,-1,25
 437 574 437 574 437 534 c 0,26,27
 437 427 437 427 361 380 c 1,28,29
 406 360 406 360 434.5 318 c 128,-1,30
 463 276 463 276 463 212 c 0,0,1
335 526 m 0,31,32
 335 545 335 545 329.5 563.5 c 128,-1,33
 324 582 324 582 313.5 596.5 c 128,-1,34
 303 611 303 611 287.5 619.5 c 128,-1,35
 272 628 272 628 251 628 c 256,36,37
 230 628 230 628 214 619.5 c 128,-1,38
 198 611 198 611 187.5 596.5 c 128,-1,39
 177 582 177 582 172 563.5 c 128,-1,40
 167 545 167 545 167 526 c 0,41,42
 167 506 167 506 172.5 487.5 c 128,-1,43
 178 469 178 469 188.5 455 c 128,-1,44
 199 441 199 441 215 432.5 c 128,-1,45
 231 424 231 424 252 424 c 0,46,47
 294 424 294 424 314.5 452 c 128,-1,48
 335 480 335 480 335 526 c 0,31,32
347 216 m 0,49,50
 347 265 347 265 322.5 297 c 128,-1,51
 298 329 298 329 251 329 c 0,52,53
 203 329 203 329 178.5 297 c 128,-1,54
 154 265 154 265 154 216 c 0,55,56
 154 168 154 168 179.5 136.5 c 128,-1,57
 205 105 205 105 252 105 c 0,58,59
 275 105 275 105 292.5 114 c 128,-1,60
 310 123 310 123 322 138.5 c 128,-1,61
 334 154 334 154 340.5 174 c 128,-1,62
 347 194 347 194 347 216 c 0,49,50
EndSplineSet
EndChar

StartChar: nine
Encoding: 57 57 28
Width: 500
GlyphClass: 2
Flags: W
LayerCount: 4
Fore
SplineSet
42 502 m 0,0,1
 42 558 42 558 58.5 601.5 c 128,-1,2
 75 645 75 645 103.5 674.5 c 128,-1,3
 132 704 132 704 170.5 719.5 c 128,-1,4
 209 735 209 735 253 735 c 0,5,6
 296 735 296 735 333.5 717.5 c 128,-1,7
 371 700 371 700 399 668.5 c 128,-1,8
 427 637 427 637 442.5 594 c 128,-1,9
 458 551 458 551 458 500 c 0,10,11
 458 471 458 471 453.5 443.5 c 128,-1,12
 449 416 449 416 440 388 c 128,-1,13
 431 360 431 360 417.5 330.5 c 128,-1,14
 404 301 404 301 385 267 c 2,15,-1
 238 0 l 1,16,-1
 103 0 l 1,17,-1
 267 291 l 1,18,19
 255 289 255 289 243 287.5 c 128,-1,20
 231 286 231 286 219 286 c 0,21,22
 137 286 137 286 89.5 343.5 c 128,-1,23
 42 401 42 401 42 502 c 0,0,1
162 500 m 0,24,25
 162 452 162 452 187.5 422.5 c 128,-1,26
 213 393 213 393 252 393 c 0,27,28
 271 393 271 393 287 401.5 c 128,-1,29
 303 410 303 410 314.5 425 c 128,-1,30
 326 440 326 440 332.5 459.5 c 128,-1,31
 339 479 339 479 339 502 c 256,32,33
 339 525 339 525 332.5 545 c 128,-1,34
 326 565 326 565 314.5 580 c 128,-1,35
 303 595 303 595 287 603.5 c 128,-1,36
 271 612 271 612 252 612 c 0,37,38
 213 612 213 612 187.5 580.5 c 128,-1,39
 162 549 162 549 162 500 c 0,24,25
EndSplineSet
EndChar

StartChar: colon
Encoding: 58 58 29
Width: 127
GlyphClass: 2
Flags: W
LayerCount: 4
Fore
SplineSet
64 474 m 0,0,1
 43 474 43 474 29 489 c 128,-1,2
 15 504 15 504 15 526 c 0,3,4
 15 547 15 547 29 562 c 128,-1,5
 43 577 43 577 64 577 c 0,6,7
 84 577 84 577 98 562 c 128,-1,8
 112 547 112 547 112 526 c 0,9,10
 112 504 112 504 98 489 c 128,-1,11
 84 474 84 474 64 474 c 0,0,1
64 151 m 0,12,13
 43 151 43 151 29 166 c 128,-1,14
 15 181 15 181 15 202 c 256,15,16
 15 223 15 223 29 238 c 128,-1,17
 43 253 43 253 64 253 c 0,18,19
 84 253 84 253 98 238 c 128,-1,20
 112 223 112 223 112 202 c 256,21,22
 112 181 112 181 98 166 c 128,-1,23
 84 151 84 151 64 151 c 0,12,13
EndSplineSet
Validated: 1
EndChar

StartChar: semicolon
Encoding: 59 59 30
AltUni2: 00037e.ffffffff.0
Width: 127
GlyphClass: 2
Flags: W
LayerCount: 4
Fore
SplineSet
64 469 m 0,0,1
 43 469 43 469 29 484 c 128,-1,2
 15 499 15 499 15 520 c 0,3,4
 15 542 15 542 29 557 c 128,-1,5
 43 572 43 572 64 572 c 0,6,7
 84 572 84 572 98 557 c 128,-1,8
 112 542 112 542 112 520 c 0,9,10
 112 499 112 499 98 484 c 128,-1,11
 84 469 84 469 64 469 c 0,0,1
68 102 m 1,12,-1
 54 109 l 1,13,-1
 74 152 l 1,14,-1
 64 151 l 2,15,16
 43 151 43 151 29 166 c 128,-1,17
 15 181 15 181 15 202 c 256,18,19
 15 223 15 223 29 238 c 128,-1,20
 43 253 43 253 64 253 c 0,21,22
 84 253 84 253 98 238 c 128,-1,23
 112 223 112 223 112 202 c 0,24,25
 112 183 112 183 100 169 c 1,26,-1
 68 102 l 1,12,-1
EndSplineSet
Validated: 1
EndChar

StartChar: less
Encoding: 60 60 31
Width: 317
GlyphClass: 2
Flags: W
LayerCount: 4
Fore
SplineSet
221 117 m 1,0,-1
 20 296 l 1,1,-1
 15 375 l 1,2,-1
 215 608 l 1,3,-1
 302 533 l 1,4,-1
 138 343 l 1,5,-1
 296 201 l 1,6,-1
 221 117 l 1,0,-1
EndSplineSet
Validated: 1
EndChar

StartChar: equal
Encoding: 61 61 32
Width: 368
GlyphClass: 2
Flags: W
LayerCount: 4
Fore
SplineSet
353 387 m 1,0,-1
 15 387 l 1,1,-1
 15 501 l 1,2,-1
 353 501 l 1,3,-1
 353 387 l 1,0,-1
353 234 m 1,4,-1
 15 234 l 1,5,-1
 15 348 l 1,6,-1
 353 348 l 1,7,-1
 353 234 l 1,4,-1
EndSplineSet
Validated: 1
EndChar

StartChar: greater
Encoding: 62 62 33
Width: 317
GlyphClass: 2
Flags: W
LayerCount: 4
Fore
SplineSet
96 143 m 1,0,-1
 20 228 l 1,1,-1
 179 370 l 1,2,-1
 15 560 l 1,3,-1
 101 634 l 1,4,-1
 302 402 l 1,5,-1
 296 322 l 1,6,-1
 96 143 l 1,0,-1
EndSplineSet
Validated: 1
EndChar

StartChar: question
Encoding: 63 63 34
Width: 642
GlyphClass: 2
Flags: W
LayerCount: 4
Fore
SplineSet
323 161 m 1,0,-1
 209 161 l 1,1,2
 209 236 209 236 205 281 c 0,3,4
 202 309 202 309 202 331 c 0,5,6
 202 383 202 383 228 409.5 c 128,-1,7
 254 436 254 436 299 436 c 0,8,9
 419 436 419 436 485 540 c 1,10,11
 513 593 513 593 513 645 c 0,12,13
 513 691 513 691 492 729 c 0,14,15
 438 815 438 815 301 815 c 0,16,17
 200 814 200 814 160 765 c 0,18,19
 129 725 129 725 129 663 c 0,20,21
 129 633 129 633 132 629 c 1,22,-1
 20 607 l 1,23,-1
 19 608 l 1,24,25
 15 618 15 618 15 663 c 0,26,27
 15 765 15 765 72 837 c 0,28,29
 147 928 147 928 299 928 c 1,30,-1
 302 929 l 1,31,32
 457 929 457 929 542 845.5 c 128,-1,33
 627 762 627 762 627 644 c 0,34,35
 627 563 627 563 584 484 c 1,36,37
 493 334 493 334 316 322 c 1,38,39
 318 306 318 306 318 288 c 0,40,41
 323 211 323 211 323 161 c 1,0,-1
312 -37 m 0,42,43
 309 -37 309 -37 306 -35 c 2,44,-1
 279 -18 l 2,45,46
 275 -16 275 -16 271 -16 c 2,47,-1
 268 -16 l 1,48,49
 237 -25 237 -25 234 -25 c 0,50,51
 229 -25 229 -25 225 -22 c 128,-1,52
 221 -19 221 -19 221 -15 c 2,53,-1
 232 15 l 2,54,55
 232 19 232 19 230 22 c 2,56,-1
 209 44 l 2,57,58
 206 47 206 47 206 50 c 256,59,60
 206 53 206 53 209 56 c 128,-1,61
 212 59 212 59 217 59 c 2,62,-1
 250 58 l 2,63,64
 256 58 256 58 259 62 c 2,65,-1
 277 84 l 2,66,67
 280 88 280 88 285 88 c 0,68,69
 289 88 289 88 292 86.5 c 128,-1,70
 295 85 295 85 302 69 c 128,-1,71
 309 53 309 53 311 51.5 c 128,-1,72
 313 50 313 50 332.5 44.5 c 128,-1,73
 352 39 352 39 354 36.5 c 128,-1,74
 356 34 356 34 356 31 c 0,75,76
 356 27 356 27 352 24 c 2,77,-1
 326 8 l 2,78,79
 321 5 321 5 321 2 c 2,80,-1
 324 -27 l 2,81,82
 324 -31 324 -31 320.5 -34 c 128,-1,83
 317 -37 317 -37 312 -37 c 0,42,43
EndSplineSet
Validated: 1
EndChar

StartChar: at
Encoding: 64 64 35
Width: 932
GlyphClass: 2
Flags: W
LayerCount: 4
Fore
SplineSet
455 -39 m 0,0,1
 336 -39 336 -39 244.5 23 c 128,-1,2
 153 85 153 85 96 182 c 0,3,4
 15 320 15 320 15 478 c 0,5,6
 15 619 15 619 85 736 c 1,7,8
 195 908 195 908 423 946 c 0,9,10
 490 956 490 956 545 956 c 0,11,12
 626 956 626 956 684 938 c 0,13,14
 789 906 789 906 845 834 c 0,15,16
 917 743 917 743 917 617 c 0,17,18
 917 525 917 525 884 446 c 0,19,20
 808 261 808 261 660 234 c 1,21,-1
 647 233 l 1,22,23
 593 233 593 233 562 289 c 1,24,25
 500 214 500 214 420 214 c 0,26,27
 362 214 362 214 321 250 c 128,-1,28
 280 286 280 286 267 349 c 0,29,30
 263 372 263 372 263 397 c 0,31,32
 263 482 263 482 312 563 c 128,-1,33
 361 644 361 644 451 673 c 0,34,35
 474 680 474 680 497 680 c 0,36,37
 551 680 551 680 597 644 c 0,38,39
 615 629 615 629 628 611 c 1,40,-1
 657 625 l 1,41,42
 664 609 664 609 664 582 c 0,43,44
 664 546 664 546 653 498 c 1,45,46
 651 466 651 466 651 442 c 0,47,48
 651 379 651 379 660 351 c 1,49,50
 733 379 733 379 778 487 c 0,51,52
 803 553 803 553 803 614 c 0,53,54
 803 700 803 700 756 762 c 0,55,56
 689 843 689 843 544 843 c 0,57,58
 497 843 497 843 442 834 c 0,59,60
 326 814 326 814 257 759 c 128,-1,61
 188 704 188 704 158.5 628.5 c 128,-1,62
 129 553 129 553 129 476 c 0,63,64
 129 354 129 354 190 246 c 0,65,66
 233 171 233 171 300.5 123 c 128,-1,67
 368 75 368 75 457 75 c 0,68,69
 478 75 478 75 501 78 c 1,70,-1
 517 -35 l 1,71,72
 485 -39 485 -39 455 -39 c 0,0,1
427 328 m 2,73,74
 449 330 449 330 473 360 c 128,-1,75
 497 390 497 390 514 433 c 0,76,77
 540 497 540 497 540 526 c 0,78,79
 540 538 540 538 535 545 c 0,80,81
 521 566 521 566 497 566 c 0,82,83
 490 566 490 566 483 564 c 0,84,85
 434 548 434 548 405.5 497.5 c 128,-1,86
 377 447 377 447 377 397 c 0,87,88
 377 383 377 383 379 370 c 0,89,90
 387 328 387 328 418 328 c 2,91,-1
 427 328 l 2,73,74
EndSplineSet
Validated: 1
EndChar

StartChar: A
Encoding: 65 65 36
Width: 642
GlyphClass: 2
Flags: W
LayerCount: 4
Fore
SplineSet
235 391 m 0,0,1
 223 391 223 391 223 403 c 2,2,-1
 221 440 l 2,3,4
 221 447 221 447 215 450 c 2,5,-1
 184 470 l 2,6,7
 177 474 177 474 177 480 c 0,8,9
 177 490 177 490 186 493 c 2,10,-1
 221 506 l 2,11,12
 227 508 227 508 229 515 c 2,13,-1
 238 551 l 2,14,15
 241 561 241 561 251 561 c 0,16,17
 256 561 256 561 260 556 c 2,18,-1
 284 526 l 2,19,20
 287 522 287 522 292 522 c 2,21,-1
 332 524 l 2,22,23
 345 524 345 524 345 511 c 0,24,25
 345 508 345 508 343 504 c 2,26,-1
 322 473 l 2,27,28
 320 470 320 470 320 466 c 2,29,-1
 321 461 l 1,30,31
 335 425 335 425 335 422 c 0,32,33
 335 417 335 417 332 413.5 c 128,-1,34
 329 410 329 410 323 410 c 2,35,-1
 280 421 l 2,36,37
 275 421 275 421 272 417 c 2,38,-1
 243 394 l 2,39,40
 239 391 239 391 235 391 c 0,0,1
105 1142 m 0,41,42
 99 1142 99 1142 98.5 1150.5 c 128,-1,43
 98 1159 98 1159 98 1169 c 0,44,45
 98 1172 98 1172 95 1174 c 2,46,-1
 78 1185 l 2,47,48
 74 1187 74 1187 74 1189 c 0,49,50
 74 1195 74 1195 79 1197 c 2,51,-1
 98 1204 l 2,52,53
 101 1205 101 1205 102 1209 c 2,54,-1
 107 1228 l 2,55,56
 108 1233 108 1233 113 1233 c 0,57,58
 116 1233 116 1233 119 1230 c 2,59,-1
 131 1215 l 2,60,61
 133 1212 133 1212 137 1212 c 2,62,-1
 158 1213 l 2,63,64
 164 1213 164 1213 164 1207 c 0,65,66
 164 1205 164 1205 157 1194.5 c 128,-1,67
 150 1184 150 1184 150 1182 c 2,68,-1
 158 1158 l 2,69,70
 158 1153 158 1153 152 1153 c 2,71,-1
 129 1158 l 1,72,-1
 125 1157 l 1,73,74
 107 1142 107 1142 105 1142 c 0,41,42
627 4 m 1,75,-1
 513 4 l 1,76,-1
 513 143 l 1,77,78
 491 105 491 105 461 75 c 0,79,80
 389 4 389 4 292 4 c 0,81,82
 183 4 183 4 111 90 c 0,83,84
 44 170 44 170 23 311 c 0,85,86
 15 365 15 365 15 419 c 0,87,88
 15 529 15 529 54.5 662 c 128,-1,89
 94 795 94 795 209 866 c 1,90,91
 195 880 195 880 195 900 c 0,92,93
 195 908 195 908 198 918 c 1,94,95
 178 933 178 933 178 960 c 0,96,97
 178 965 178 965 180.5 984 c 128,-1,98
 183 1003 183 1003 202 1031 c 1,99,100
 187 1044 187 1044 187 1069 c 0,101,102
 187 1091 187 1091 200 1108 c 1,103,104
 187 1119 187 1119 187 1137 c 0,105,106
 187 1139 187 1139 188 1149.5 c 128,-1,107
 189 1160 189 1160 199 1178 c 1,108,109
 191 1190 191 1190 191 1202 c 0,110,111
 191 1215 191 1215 203 1232 c 1,112,113
 201 1246 201 1246 200 1278 c 0,114,115
 200 1288 200 1288 201.5 1296 c 128,-1,116
 203 1304 203 1304 220 1307 c 0,117,118
 235 1307 235 1307 244 1285 c 0,119,120
 254 1269 254 1269 259 1251 c 1,121,122
 282 1247 282 1247 283 1222 c 2,123,-1
 282 1212 l 1,124,125
 287 1210 287 1210 292 1205 c 0,126,127
 308 1190 308 1190 308 1173 c 0,128,129
 308 1164 308 1164 304 1155 c 1,130,131
 313 1151 313 1151 319 1143 c 0,132,133
 328 1130 328 1130 328 1116 c 0,134,135
 328 1107 328 1107 324 1097 c 1,136,137
 331 1096 331 1096 339 1091 c 0,138,139
 359 1076 359 1076 359 1050 c 0,140,141
 359 1033 359 1033 351 1016 c 1,142,-1
 353 1016 l 1,143,144
 372 1002 372 1002 372 969 c 0,145,146
 372 953 372 953 365.5 933 c 128,-1,147
 359 913 359 913 343 904 c 1,148,-1
 341 902 l 1,149,-1
 359 903 l 1,150,151
 449 903 449 903 513 848 c 1,152,-1
 513 903 l 1,153,-1
 627 903 l 1,154,-1
 627 4 l 1,75,-1
216 1047 m 1,155,-1
 222 1052 l 1,156,157
 256 1074 256 1074 294 1091 c 1,158,159
 306 1101 306 1101 306 1117 c 0,160,161
 306 1127 306 1127 298 1134 c 0,162,163
 295 1137 295 1137 291 1137 c 0,164,165
 287 1135 287 1135 284 1135 c 2,166,-1
 280 1136 l 1,167,168
 262 1132 262 1132 238 1115 c 0,169,170
 228 1108 228 1108 220 1100 c 0,171,172
 209 1088 209 1088 208 1069 c 0,173,174
 208 1054 208 1054 216 1047 c 1,155,-1
215 1124 m 1,175,176
 227 1133 227 1133 240 1141 c 0,177,178
 258 1153 258 1153 281 1157 c 1,179,180
 286 1163 286 1163 286 1171 c 0,181,182
 286 1176 286 1176 283.5 1181.5 c 128,-1,183
 281 1187 281 1187 277.5 1189 c 128,-1,184
 274 1191 274 1191 274 1192 c 1,185,186
 274 1191 274 1191 271 1191 c 0,187,188
 255 1187 255 1187 252 1187 c 0,189,190
 242 1187 242 1187 235.5 1186.5 c 128,-1,191
 229 1186 229 1186 224 1176 c 0,192,193
 223 1171 223 1171 218 1168 c 0,194,195
 208 1152 208 1152 208 1138 c 0,196,197
 208 1129 208 1129 215 1124 c 1,175,176
214 1197 m 1,198,199
 225 1208 225 1208 245 1208 c 2,200,-1
 259 1210 l 1,201,202
 262 1216 262 1216 262 1223 c 0,203,204
 262 1228 262 1228 257.5 1229.5 c 128,-1,205
 253 1231 253 1231 247 1231 c 0,206,207
 238 1230 238 1230 227 1224 c 0,208,209
 212 1216 212 1216 212 1204 c 2,210,-1
 214 1197 l 1,198,199
222 1246 m 1,211,-1
 237 1251 l 1,212,213
 233 1261 233 1261 227 1271 c 2,214,-1
 222 1281 l 1,215,-1
 222 1246 l 1,211,-1
209 937 m 1,216,217
 241 973 241 973 284 998 c 0,218,219
 312 1016 312 1016 328 1019 c 1,220,221
 339 1037 339 1037 339 1049 c 0,222,223
 339 1055 339 1055 337 1060 c 2,224,-1
 309 1073 l 1,225,-1
 269 1053 l 2,226,227
 246 1044 246 1044 227 1029 c 0,228,229
 225 1025 225 1025 221 1023 c 0,230,231
 214 1013 214 1013 207 995 c 128,-1,232
 200 977 200 977 199 960 c 0,233,234
 199 945 199 945 209 937 c 1,216,217
235 878 m 1,235,236
 235 879 235 879 236 879 c 0,237,238
 255 886 255 886 276 892 c 0,239,240
 307 905 307 905 333 922 c 0,241,242
 350 936 350 936 350 966 c 0,243,244
 350 974 350 974 348 981 c 0,245,246
 342 996 342 996 331 996 c 0,247,248
 319 996 319 996 294 979 c 2,249,-1
 289 976 l 2,250,251
 261 958 261 958 237 936 c 0,252,253
 229 930 229 930 222 921 c 0,254,255
 221 917 221 917 217.5 913.5 c 128,-1,256
 214 910 214 910 214 900 c 0,257,258
 214 894 214 894 219 887 c 128,-1,259
 224 880 224 880 235 878 c 1,235,236
293 118 m 0,260,261
 343 118 343 118 381 156 c 0,262,263
 433 212 433 212 459 308 c 0,264,265
 500 456 500 456 500 631 c 0,266,267
 500 644 500 644 499.5 654 c 128,-1,268
 499 664 499 664 491 686 c 128,-1,269
 483 708 483 708 466.5 732 c 128,-1,270
 450 756 450 756 422.5 772.5 c 128,-1,271
 395 789 395 789 358 789 c 0,272,273
 324 789 324 789 283 775 c 0,274,275
 203 742 203 742 159 611 c 0,276,277
 129 520 129 520 129 419 c 0,278,279
 129 374 129 374 135 327 c 0,280,281
 147 226 147 226 200 161 c 0,282,283
 235 118 235 118 293 118 c 0,260,261
EndSplineSet
Validated: 1
EndChar

StartChar: B
Encoding: 66 66 37
Width: 583
GlyphClass: 2
Flags: W
LayerCount: 4
Fore
SplineSet
279 204 m 2,0,-1
 274 205 l 1,1,2
 250 223 250 223 247 223 c 2,3,-1
 214 212 l 2,4,5
 211 212 211 212 208 215 c 128,-1,6
 205 218 205 218 205 221 c 0,7,8
 205 223 205 223 209.5 237.5 c 128,-1,9
 214 252 214 252 214 254 c 2,10,-1
 213 259 l 1,11,-1
 196 281 l 2,12,13
 194 284 194 284 194 287 c 0,14,15
 194 295 194 295 203 296 c 2,16,-1
 230 296 l 2,17,18
 235 296 235 296 238 300 c 2,19,-1
 253 322 l 2,20,21
 256 326 256 326 260 326 c 2,22,-1
 265 326 l 2,23,24
 268 326 268 326 270 320 c 2,25,-1
 278 294 l 2,26,27
 280 290 280 290 285 288 c 2,28,-1
 311 281 l 2,29,30
 317 279 317 279 317 271 c 0,31,32
 317 267 317 267 314 264 c 2,33,-1
 292 248 l 2,34,35
 288 245 288 245 288 240 c 2,36,-1
 289 213 l 2,37,38
 289 204 289 204 279 204 c 2,0,-1
428 1162 m 0,39,40
 427 1162 427 1162 417 1168.5 c 128,-1,41
 407 1175 407 1175 405 1175 c 0,42,43
 404 1175 404 1175 394 1172 c 128,-1,44
 384 1169 384 1169 382 1169 c 0,45,46
 376 1169 376 1169 376 1175 c 2,47,-1
 382 1197 l 1,48,-1
 381 1201 l 1,49,50
 368 1217 368 1217 368 1220 c 0,51,52
 368 1227 368 1227 375 1227 c 2,53,-1
 394 1227 l 2,54,55
 397 1227 397 1227 399 1230 c 2,56,-1
 410 1246 l 2,57,58
 413 1249 413 1249 417 1249 c 0,59,60
 420 1248 420 1248 422 1244 c 2,61,-1
 428 1226 l 2,62,63
 429 1223 429 1223 432 1222 c 2,64,-1
 451 1216 l 2,65,66
 455 1215 455 1215 455 1209 c 0,67,68
 455 1207 455 1207 437 1193 c 0,69,70
 435 1191 435 1191 435 1188 c 2,71,-1
 435 1169 l 2,72,73
 435 1162 435 1162 428 1162 c 0,39,40
145 0 m 0,74,75
 86 0 86 0 71 2 c 2,76,-1
 15 6 l 1,77,-1
 23 119 l 1,78,-1
 38 118 l 1,79,-1
 38 854 l 1,80,-1
 89 911 l 1,81,82
 105 914 105 914 170 914 c 1,83,84
 172 926 172 926 181 937 c 1,85,86
 176 946 176 946 176 957 c 0,87,88
 176 978 176 978 189.5 1001 c 128,-1,89
 203 1024 203 1024 223 1037 c 1,90,91
 219 1047 219 1047 219 1058 c 0,92,93
 219 1071 219 1071 226.5 1085 c 128,-1,94
 234 1099 234 1099 247 1108 c 1,95,96
 243 1116 243 1116 243 1124 c 0,97,98
 243 1149 243 1149 269 1172 c 1,99,-1
 268 1182 l 2,100,101
 268 1208 268 1208 291 1219 c 1,102,103
 293 1230 293 1230 303 1259 c 0,104,105
 308 1281 308 1281 324 1283 c 0,106,107
 349 1283 349 1283 349 1226 c 2,108,-1
 349 1218 l 1,109,110
 363 1207 363 1207 363 1196 c 0,111,112
 363 1186 363 1186 356 1175 c 1,113,114
 369 1160 369 1160 369 1142 c 0,115,116
 369 1126 369 1126 358 1115 c 1,117,118
 369 1104 369 1104 369 1087 c 0,119,120
 369 1069 369 1069 357 1055 c 1,121,122
 366 1051 366 1051 371.5 1040.5 c 128,-1,123
 377 1030 377 1030 377 1019 c 0,124,125
 377 995 377 995 355 974 c 1,126,127
 364 963 364 963 364 949 c 0,128,129
 364 916 364 916 335 889 c 1,130,131
 383 873 383 873 417 841 c 0,132,133
 464 796 464 796 464 731 c 0,134,135
 458 601 458 601 345 523 c 1,136,-1
 352 520 l 1,137,138
 568 436 568 436 568 263 c 2,139,-1
 568 255 l 2,140,141
 568 166 568 166 504 105 c 1,142,143
 383 0 383 0 145 0 c 0,74,75
328 1225 m 1,144,145
 328 1240 328 1240 325 1255 c 1,146,-1
 314 1225 l 1,147,-1
 328 1225 l 1,144,145
334 1180 m 0,148,149
 342 1188 342 1188 342 1193 c 0,150,151
 342 1197 342 1197 335 1200.5 c 128,-1,152
 328 1204 328 1204 320 1204 c 0,153,154
 318 1204 318 1204 315 1203.5 c 128,-1,155
 312 1203 312 1203 306.5 1202 c 128,-1,156
 301 1201 301 1201 297 1198 c 0,157,158
 289 1193 289 1193 289 1184 c 1,159,160
 298 1187 298 1187 307 1187 c 0,161,162
 314 1186 314 1186 319.5 1184 c 128,-1,163
 325 1182 325 1182 328.5 1181 c 128,-1,164
 332 1180 332 1180 334 1180 c 0,148,149
266 1117 m 1,165,166
 290 1126 290 1126 318 1127 c 0,167,168
 327 1127 327 1127 337 1125 c 1,169,170
 347 1130 347 1130 347 1141 c 0,171,172
 347 1148 347 1148 344 1156 c 0,173,174
 343 1157 343 1157 342.5 1158 c 128,-1,175
 342 1159 342 1159 341 1159 c 2,176,-1
 334 1159 l 2,177,178
 327 1159 327 1159 319.5 1162 c 128,-1,179
 312 1165 312 1165 305 1165 c 0,180,181
 299 1165 299 1165 290 1159 c 0,182,183
 288 1157 288 1157 285 1156 c 0,184,185
 264 1139 264 1139 264 1125 c 0,186,187
 264 1121 264 1121 266 1117 c 1,165,166
241 1046 m 1,188,189
 251 1049 251 1049 261 1050.5 c 128,-1,190
 271 1052 271 1052 282 1055 c 0,191,192
 305 1060 305 1060 329 1061 c 1,193,194
 348 1069 348 1069 348 1085 c 0,195,196
 348 1099 348 1099 338 1103 c 1,197,-1
 335 1103 l 2,198,199
 331 1103 331 1103 329 1105 c 2,200,-1
 320 1106 l 2,201,202
 308 1105 308 1105 295 1102.5 c 128,-1,203
 282 1100 282 1100 270 1096 c 0,204,205
 247 1088 247 1088 241 1064 c 0,206,207
 239 1059 239 1059 239 1055 c 0,208,209
 239 1050 239 1050 241 1046 c 1,188,189
198 950 m 1,210,211
 231 968 231 968 267 975 c 0,212,213
 271 975 271 975 280 978 c 0,214,215
 308 985 308 985 321 985 c 2,216,-1
 335 984 l 1,217,218
 354 1000 354 1000 354 1012 c 2,219,-1
 354 1014 l 1,220,221
 347 1037 347 1037 319 1037 c 2,222,-1
 315 1037 l 2,223,224
 306 1035 306 1035 296 1035 c 0,225,226
 269 1033 269 1033 246 1026 c 0,227,228
 245 1026 245 1026 244 1024.5 c 128,-1,229
 243 1023 243 1023 240 1022 c 0,230,231
 223 1012 223 1012 207 990 c 0,232,233
 196 974 196 974 196 961 c 0,234,235
 196 955 196 955 198 950 c 1,210,211
312 896 m 1,236,237
 326 904 326 904 333 921 c 0,238,239
 338 932 338 932 338 943 c 0,240,241
 338 963 338 963 321 963 c 0,242,243
 316 963 316 963 311 962 c 128,-1,244
 306 961 306 961 302 961 c 2,245,-1
 266 952 l 2,246,247
 207 940 207 940 195 914 c 1,248,249
 251 912 251 912 312 896 c 1,236,237
152 558 m 1,250,251
 168 561 168 561 213 579 c 128,-1,252
 258 597 258 597 300.5 632.5 c 128,-1,253
 343 668 343 668 350 725 c 1,254,-1
 350 730 l 2,255,256
 350 748 350 748 338 760 c 0,257,258
 312 783 312 783 259 792 c 0,259,260
 212 801 212 801 162 801 c 2,261,-1
 152 801 l 1,262,-1
 152 558 l 1,250,251
152 114 m 1,263,264
 222 115 222 115 300.5 130.5 c 128,-1,265
 379 146 379 146 426 187 c 0,266,267
 454 214 454 214 454 254 c 2,268,-1
 454 257 l 1,269,270
 450 322 450 322 406 360 c 128,-1,271
 362 398 362 398 305 416.5 c 128,-1,272
 248 435 248 435 204.5 440 c 128,-1,273
 161 445 161 445 158 445 c 2,274,-1
 152 514 l 1,275,-1
 152 114 l 1,263,264
EndSplineSet
Validated: 1
EndChar

StartChar: C
Encoding: 67 67 38
Width: 625
GlyphClass: 2
Flags: W
LayerCount: 4
Fore
SplineSet
283 354 m 256,0,1
 280 354 280 354 276 357 c 2,2,-1
 245 379 l 2,3,4
 242 381 242 381 239 381 c 256,5,6
 236 381 236 381 216 374 c 128,-1,7
 196 367 196 367 193 367 c 0,8,9
 189 367 189 367 185 371 c 128,-1,10
 181 375 181 375 181 380 c 2,11,-1
 194 422 l 2,12,13
 194 427 194 427 192 431 c 2,14,-1
 169 460 l 2,15,16
 166 464 166 464 166 468 c 0,17,18
 166 479 166 479 179 481 c 2,19,-1
 216 481 l 2,20,21
 223 481 223 481 226 486 c 2,22,-1
 247 517 l 2,23,24
 251 522 251 522 256 522 c 0,25,26
 266 522 266 522 270 514 c 2,27,-1
 282 479 l 2,28,29
 284 472 284 472 290 470 c 2,30,-1
 326 460 l 2,31,32
 335 456 335 456 335 448 c 0,33,34
 335 442 335 442 330 437 c 2,35,-1
 300 415 l 2,36,37
 295 411 295 411 295 405 c 2,38,-1
 296 368 l 2,39,40
 296 359 296 359 289 356 c 0,41,42
 286 354 286 354 283 354 c 256,0,1
220 996 m 0,43,44
 217 996 217 996 194 1013 c 1,45,-1
 188 1014 l 1,46,-1
 157 1004 l 2,47,48
 154 1004 154 1004 151 1007 c 128,-1,49
 148 1010 148 1010 148 1013 c 2,50,-1
 157 1043 l 2,51,52
 157 1047 157 1047 155 1050 c 2,53,-1
 139 1070 l 2,54,55
 137 1073 137 1073 137 1076 c 0,56,57
 137 1083 137 1083 146 1085 c 2,58,-1
 173 1085 l 2,59,60
 177 1085 177 1085 180 1089 c 2,61,-1
 195 1111 l 2,62,63
 197 1114 197 1114 202 1114 c 0,64,65
 203 1114 203 1114 206 1114 c 128,-1,66
 209 1114 209 1114 211 1108 c 2,67,-1
 219 1083 l 2,68,69
 221 1079 221 1079 225 1078 c 2,70,-1
 250 1070 l 2,71,72
 257 1067 257 1067 257 1061 c 0,73,74
 257 1057 257 1057 253 1054 c 2,75,-1
 232 1039 l 2,76,77
 228 1036 228 1036 228 1031 c 2,78,-1
 229 1005 l 2,79,80
 229 996 229 996 220 996 c 0,43,44
368 4 m 0,81,82
 253 4 253 4 127 118 c 1,83,84
 54 190 54 190 30 325 c 0,85,86
 15 405 15 405 15 483 c 0,87,88
 15 798 15 798 249 895 c 1,89,-1
 248 903 l 2,90,91
 248 920 248 920 263 935 c 1,92,93
 256 946 256 946 256 958 c 0,94,95
 256 979 256 979 271 1004.5 c 128,-1,96
 286 1030 286 1030 308 1045 c 1,97,98
 303 1056 303 1056 303 1067 c 0,99,100
 303 1082 303 1082 312 1098 c 128,-1,101
 321 1114 321 1114 335 1123 c 1,102,103
 330 1132 330 1132 330 1142 c 0,104,105
 330 1169 330 1169 359 1194 c 1,106,-1
 358 1206 l 2,107,108
 358 1230 358 1230 383 1246 c 1,109,110
 386 1261 386 1261 394 1283 c 0,111,112
 399 1300 399 1300 403.5 1307.5 c 128,-1,113
 408 1315 408 1315 419 1316 c 0,114,115
 445 1316 445 1316 445 1257 c 2,116,-1
 445 1245 l 1,117,118
 450 1242 450 1242 453 1238 c 0,119,120
 461 1230 461 1230 461 1220 c 0,121,122
 461 1209 461 1209 453 1197 c 1,123,124
 467 1181 467 1181 467 1161 c 0,125,126
 467 1143 467 1143 455 1131 c 1,127,128
 467 1120 467 1120 467 1100 c 256,129,130
 467 1080 467 1080 453 1066 c 1,131,132
 466 1060 466 1060 472 1045 c 0,133,134
 476 1035 476 1035 476 1025 c 0,135,136
 476 998 476 998 451 976 c 1,137,138
 461 964 461 964 461 948 c 0,139,140
 461 924 461 924 445 900 c 1,141,142
 512 879 512 879 568 827 c 2,143,-1
 610 788 l 1,144,-1
 532 705 l 1,145,-1
 491 744 l 2,146,147
 428 800 428 800 356 800 c 0,148,149
 324 800 324 800 291 789 c 0,150,151
 161 737 161 737 135 575 c 0,152,153
 129 523 129 523 129 475 c 0,154,155
 129 405 129 405 146.5 322.5 c 128,-1,156
 164 240 164 240 204 202 c 0,157,158
 297 118 297 118 369 118 c 0,159,160
 399 118 399 118 426 135 c 0,161,162
 458 154 458 154 472 178 c 0,163,164
 478 187 478 187 479 187 c 2,165,-1
 505 237 l 1,166,-1
 606 184 l 1,167,-1
 579 134 l 2,168,169
 578 130 578 130 559 103.5 c 128,-1,170
 540 77 540 77 502.5 48 c 128,-1,171
 465 19 465 19 408 8 c 0,172,173
 388 4 388 4 368 4 c 0,81,82
273 903 m 1,174,175
 314 914 314 914 354 914 c 0,176,177
 389 914 389 914 424 906 c 1,178,179
 435 924 435 924 435 940 c 0,180,181
 435 947 435 947 433 953 c 0,182,183
 428 965 428 965 416 965 c 0,184,185
 405 965 405 965 396 963 c 128,-1,186
 387 961 387 961 355 953 c 0,187,188
 281 937 281 937 273 903 c 1,174,175
424 1252 m 1,189,190
 424 1270 424 1270 420 1288 c 1,191,-1
 420 1293 l 1,192,193
 409 1269 409 1269 406 1252 c 1,194,-1
 424 1252 l 1,189,190
430 1203 m 1,195,196
 439 1211 439 1211 439 1218 c 0,197,198
 439 1224 439 1224 431 1227.5 c 128,-1,199
 423 1231 423 1231 414 1231 c 0,200,201
 379 1230 379 1230 379 1206 c 1,202,203
 388 1210 388 1210 397 1210 c 0,204,205
 405 1210 405 1210 413 1206.5 c 128,-1,206
 421 1203 421 1203 430 1203 c 1,195,196
354 1133 m 1,207,208
 388 1144 388 1144 412 1144 c 0,209,210
 423 1144 423 1144 433 1142 c 1,211,212
 446 1148 446 1148 446 1160 c 0,213,214
 446 1169 446 1169 441 1178 c 0,215,216
 441 1179 441 1179 440 1179.5 c 128,-1,217
 439 1180 439 1180 439 1181 c 1,218,219
 422 1181 422 1181 414 1184.5 c 128,-1,220
 406 1188 406 1188 399 1188 c 0,221,222
 391 1188 391 1188 381 1182 c 0,223,224
 378 1178 378 1178 374 1177 c 0,225,226
 350 1157 350 1157 350 1143 c 0,227,228
 350 1138 350 1138 354 1133 c 1,207,208
327 1054 m 1,229,230
 337 1058 337 1058 348 1059.5 c 128,-1,231
 359 1061 359 1061 371 1064 c 0,232,233
 397 1071 397 1071 425 1071 c 1,234,235
 446 1082 446 1082 446 1098 c 0,236,237
 446 1115 446 1115 434 1119 c 1,238,-1
 432 1119 l 2,239,240
 427 1119 427 1119 425 1122 c 2,241,-1
 415 1123 l 2,242,243
 390 1123 390 1123 356 1110 c 0,244,245
 333 1102 333 1102 326 1075 c 0,246,247
 324 1070 324 1070 324 1065 c 0,248,249
 324 1059 324 1059 327 1054 c 1,229,230
280 948 m 1,250,251
 316 968 316 968 360 976 c 1,252,253
 395 988 395 988 416 988 c 2,254,-1
 431 986 l 1,255,256
 453 1003 453 1003 453 1020 c 0,257,258
 451 1048 451 1048 429 1048 c 0,259,260
 419 1048 419 1048 393 1044 c 0,261,262
 356 1042 356 1042 331 1034 c 0,263,264
 329 1031 329 1031 324 1031 c 0,265,266
 305 1018 305 1018 288 993 c 0,267,268
 277 977 277 977 277 962 c 0,269,270
 277 955 277 955 280 948 c 1,250,251
EndSplineSet
Validated: 1
EndChar

StartChar: D
Encoding: 68 68 39
Width: 676
GlyphClass: 2
Flags: W
LayerCount: 4
Fore
SplineSet
343 180 m 256,0,1
 339 180 339 180 334 183 c 2,2,-1
 298 209 l 2,3,4
 294 212 294 212 289 212 c 0,5,6
 287 212 287 212 263 203.5 c 128,-1,7
 239 195 239 195 236 195 c 0,8,9
 230 195 230 195 226 199.5 c 128,-1,10
 222 204 222 204 222 210 c 0,11,12
 222 215 222 215 237 261 c 0,13,14
 237 267 237 267 233 271 c 2,15,-1
 206 307 l 2,16,17
 203 312 203 312 203 317 c 0,18,19
 203 331 203 331 218 331 c 2,20,-1
 263 331 l 2,21,22
 270 332 270 332 275 338 c 2,23,-1
 300 375 l 2,24,25
 306 382 306 382 314 382 c 0,26,27
 324 382 324 382 327 371 c 2,28,-1
 341 329 l 2,29,30
 344 321 344 321 352 319 c 2,31,-1
 394 306 l 2,32,33
 406 303 406 303 406 291 c 0,34,35
 406 285 406 285 399 280 c 2,36,-1
 363 253 l 2,37,38
 357 248 357 248 357 240 c 2,39,-1
 358 196 l 2,40,41
 358 186 358 186 350 182 c 0,42,43
 347 180 347 180 343 180 c 256,0,1
263 1202 m 0,44,45
 261 1202 261 1202 251 1209 c 128,-1,46
 241 1216 241 1216 239 1216 c 2,47,-1
 216 1209 l 2,48,49
 209 1209 209 1209 209 1216 c 2,50,-1
 216 1239 l 1,51,-1
 214 1243 l 2,52,53
 201 1261 201 1261 201 1263 c 0,54,55
 201 1268 201 1268 207 1270 c 2,56,-1
 227 1270 l 2,57,58
 230 1270 230 1270 238 1281 c 128,-1,59
 246 1292 246 1292 249 1292 c 0,60,61
 250 1292 250 1292 252 1292 c 128,-1,62
 254 1292 254 1292 256 1287 c 2,63,-1
 262 1269 l 2,64,65
 263 1265 263 1265 267 1264 c 2,66,-1
 286 1259 l 2,67,68
 291 1257 291 1257 291 1251 c 0,69,70
 291 1249 291 1249 272 1235 c 0,71,72
 269 1233 269 1233 269 1229 c 2,73,-1
 270 1209 l 2,74,75
 269 1202 269 1202 263 1202 c 0,44,45
197 4 m 0,76,77
 114 7 114 7 88 13 c 1,78,-1
 36 13 l 1,79,-1
 36 24 l 1,80,-1
 26 26 l 1,81,-1
 36 76 l 1,82,-1
 36 694 l 1,83,-1
 15 729 l 1,84,-1
 36 742 l 1,85,-1
 36 913 l 1,86,-1
 150 913 l 1,87,-1
 150 865 l 2,88,89
 150 872 150 872 168 882 c 0,90,91
 250 931 250 931 320 936 c 1,92,93
 387 936 387 936 457 909 c 0,94,95
 480 899 480 899 499 887 c 0,96,97
 552 848 552 848 587 792 c 0,98,99
 661 669 661 669 661 484 c 0,100,101
 661 227 661 227 508 102 c 0,102,103
 458 62 458 62 403 41 c 128,-1,104
 348 20 348 20 294.5 12 c 128,-1,105
 241 4 241 4 197 4 c 0,76,77
191 118 m 0,106,107
 232 118 232 118 298.5 127.5 c 128,-1,108
 365 137 365 137 436 190 c 1,109,110
 546 282 546 282 546 484 c 0,111,112
 546 622 546 622 501.5 710 c 128,-1,113
 457 798 457 798 377 818 c 0,114,115
 359 822 359 822 341 822 c 0,116,117
 296 822 296 822 244 792.5 c 128,-1,118
 192 763 192 763 156 693 c 1,119,-1
 150 686 l 1,120,-1
 150 120 l 1,121,122
 169 118 169 118 191 118 c 0,106,107
336 883 m 1,123,-1
 332 884 l 2,124,125
 304 887 304 887 293 910 c 0,126,127
 290 918 290 918 290 926 c 0,128,129
 290 941 290 941 302 956 c 1,130,131
 297 966 297 966 297 978 c 0,132,133
 297 996 297 996 310 1018.5 c 128,-1,134
 323 1041 323 1041 342 1054 c 1,135,136
 339 1063 339 1063 339 1073 c 0,137,138
 339 1087 339 1087 346 1101 c 128,-1,139
 353 1115 353 1115 366 1123 c 1,140,141
 362 1131 362 1131 362 1140 c 0,142,143
 362 1164 362 1164 387 1186 c 1,144,-1
 386 1196 l 2,145,146
 386 1221 386 1221 409 1232 c 1,147,-1
 416 1259 l 2,148,149
 420 1265 420 1265 420 1271 c 0,150,151
 423 1279 423 1279 427 1286.5 c 128,-1,152
 431 1294 431 1294 442 1294 c 0,153,154
 467 1294 467 1294 467 1239 c 1,155,-1
 466 1231 l 1,156,157
 480 1221 480 1221 481 1209 c 0,158,159
 481 1198 481 1198 473 1189 c 1,160,161
 486 1175 486 1175 486 1155 c 0,162,163
 486 1141 486 1141 475 1130 c 1,164,165
 486 1121 486 1121 486 1101 c 0,166,167
 486 1085 486 1085 474 1072 c 1,168,169
 482 1068 482 1068 488 1057.5 c 128,-1,170
 494 1047 494 1047 494 1037 c 0,171,172
 494 1013 494 1013 472 992 c 1,173,174
 481 981 481 981 481 967 c 0,175,176
 481 961 481 961 477 947.5 c 128,-1,177
 473 934 473 934 458 916 c 128,-1,178
 443 898 443 898 426 894 c 0,179,180
 396 889 396 889 366 887 c 2,181,-1
 336 883 l 1,123,-1
336 905 m 2,182,-1
 365 907 l 2,183,184
 397 908 397 908 426 915 c 0,185,186
 440 921 440 921 449 939 c 0,187,188
 455 951 455 951 455 961 c 0,189,190
 455 982 455 982 439 982 c 0,191,192
 434 982 434 982 429 981 c 128,-1,193
 424 980 424 980 420 980 c 2,194,-1
 385 971 l 2,195,196
 313 956 313 956 313 924 c 0,197,198
 313 919 313 919 316 912 c 128,-1,199
 319 905 319 905 336 905 c 2,182,-1
445 1238 m 1,200,201
 445 1252 445 1252 442 1266 c 1,202,-1
 432 1238 l 1,203,-1
 445 1238 l 1,200,201
451 1194 m 0,204,205
 459 1203 459 1203 459 1207 c 256,206,207
 459 1211 459 1211 452 1214 c 128,-1,208
 445 1217 445 1217 437 1217 c 0,209,210
 408 1216 408 1216 408 1198 c 1,211,212
 416 1201 416 1201 424 1201 c 0,213,214
 431 1200 431 1200 436.5 1198 c 128,-1,215
 442 1196 442 1196 445.5 1195 c 128,-1,216
 449 1194 449 1194 451 1194 c 0,204,205
384 1133 m 1,217,218
 412 1142 412 1142 436 1142 c 0,219,220
 445 1142 445 1142 454 1140 c 1,221,222
 465 1148 465 1148 465 1159 c 0,223,224
 465 1167 465 1167 458 1173 c 1,225,-1
 454 1173 l 2,226,227
 444 1173 444 1173 434 1177 c 0,228,229
 432 1177 432 1177 429 1178 c 128,-1,230
 426 1179 426 1179 423 1179 c 0,231,232
 416 1179 416 1179 409 1174 c 0,233,234
 407 1171 407 1171 403 1170 c 0,235,236
 383 1150 383 1150 383 1139 c 2,237,-1
 384 1133 l 1,217,218
361 1063 m 1,238,239
 370 1067 370 1067 380 1068 c 128,-1,240
 390 1069 390 1069 400 1072 c 0,241,242
 423 1077 423 1077 446 1078 c 1,243,244
 465 1086 465 1086 465 1102 c 0,245,246
 465 1114 465 1114 455 1118 c 1,247,-1
 453 1118 l 2,248,249
 449 1118 449 1118 446 1121 c 2,250,-1
 438 1122 l 2,251,252
 425 1122 425 1122 414 1118 c 0,253,254
 381 1113 381 1113 370 1098 c 128,-1,255
 359 1083 359 1083 359 1073 c 0,256,257
 359 1068 359 1068 361 1063 c 1,238,239
319 970 m 1,258,259
 351 987 351 987 386 994 c 0,260,261
 390 994 390 994 392.5 995 c 128,-1,262
 395 996 395 996 398 997 c 0,263,264
 426 1004 426 1004 439 1004 c 2,265,-1
 452 1003 l 1,266,267
 472 1019 472 1019 472 1030 c 1,268,-1
 471 1032 l 1,269,270
 465 1054 465 1054 440 1054 c 0,271,272
 428 1052 428 1052 414 1052 c 0,273,274
 388 1050 388 1050 365 1043 c 1,275,-1
 364 1043 l 2,276,277
 362 1040 362 1040 359 1040 c 0,278,279
 342 1029 342 1029 328 1008 c 0,280,281
 318 993 318 993 318 980 c 2,282,-1
 319 970 l 1,258,259
EndSplineSet
Validated: 5
EndChar

StartChar: E
Encoding: 69 69 40
Width: 629
GlyphClass: 2
Flags: W
LayerCount: 4
Fore
SplineSet
190 945 m 0,0,1
 186 945 186 945 182 947 c 2,2,-1
 152 969 l 2,3,4
 149 971 149 971 145 971 c 0,5,6
 143 971 143 971 123 964 c 128,-1,7
 103 957 103 957 100 957 c 0,8,9
 96 957 96 957 92.5 961 c 128,-1,10
 89 965 89 965 89 970 c 2,11,-1
 101 1013 l 2,12,13
 101 1017 101 1017 98 1021 c 2,14,-1
 75 1050 l 2,15,16
 73 1054 73 1054 73 1058 c 0,17,18
 73 1069 73 1069 85 1071 c 2,19,-1
 122 1071 l 2,20,21
 129 1071 129 1071 133 1076 c 2,22,-1
 154 1107 l 2,23,24
 159 1113 159 1113 165 1113 c 0,25,26
 166 1113 166 1113 169.5 1112.5 c 128,-1,27
 173 1112 173 1112 176 1104 c 2,28,-1
 188 1069 l 2,29,30
 190 1062 190 1062 197 1060 c 2,31,-1
 232 1050 l 2,32,33
 242 1046 242 1046 242 1038 c 0,34,35
 242 1032 242 1032 236 1028 c 2,36,-1
 206 1005 l 2,37,38
 201 1001 201 1001 201 995 c 2,39,-1
 202 958 l 2,40,41
 202 945 202 945 190 945 c 0,0,1
525 1102 m 0,42,43
 522 1102 522 1102 519 1104 c 0,44,45
 495 1121 495 1121 492 1121 c 2,46,-1
 462 1111 l 2,47,48
 453 1111 453 1111 453 1121 c 2,49,-1
 462 1151 l 2,50,51
 462 1154 462 1154 460 1156 c 0,52,53
 442 1180 442 1180 442 1182 c 0,54,55
 442 1191 442 1191 453 1191.5 c 128,-1,56
 464 1192 464 1192 477 1192 c 0,57,58
 482 1192 482 1192 485 1196 c 2,59,-1
 499 1217 l 2,60,61
 503 1221 503 1221 507 1221 c 0,62,63
 513 1221 513 1221 515 1215 c 2,64,-1
 524 1190 l 2,65,66
 525 1186 525 1186 530 1184 c 2,67,-1
 555 1177 l 2,68,69
 561 1174 561 1174 562 1168 c 0,70,71
 562 1164 562 1164 558 1161 c 2,72,-1
 536 1145 l 2,73,74
 533 1143 533 1143 533 1138 c 2,75,-1
 534 1112 l 2,76,77
 533 1102 533 1102 525 1102 c 0,42,43
370 9 m 0,78,79
 260 9 260 9 174 75 c 0,80,81
 61 163 61 163 26 335 c 0,82,83
 15 396 15 396 15 455 c 0,84,85
 15 553 15 553 45 647 c 0,86,87
 109 826 109 826 252 889 c 1,88,89
 254 902 254 902 264 913 c 1,90,91
 259 922 259 922 259 933 c 0,92,93
 259 953 259 953 272 975.5 c 128,-1,94
 285 998 285 998 304 1010 c 1,95,96
 301 1019 301 1019 301 1029 c 0,97,98
 301 1043 301 1043 308 1057 c 128,-1,99
 315 1071 315 1071 328 1079 c 1,100,101
 324 1087 324 1087 324 1096 c 0,102,103
 324 1119 324 1119 349 1141 c 1,104,-1
 348 1151 l 2,105,106
 348 1174 348 1174 370 1187 c 1,107,-1
 382 1225 l 2,108,109
 387 1247 387 1247 403 1249 c 0,110,111
 428 1247 428 1247 428 1193 c 1,112,-1
 427 1185 l 1,113,114
 442 1178 442 1178 442 1164 c 0,115,116
 442 1153 442 1153 434 1144 c 1,117,118
 447 1130 447 1130 447 1112 c 0,119,120
 447 1097 447 1097 436 1086 c 1,121,122
 447 1076 447 1076 447 1057 c 0,123,124
 447 1041 447 1041 435 1028 c 1,125,126
 443 1024 443 1024 449 1014 c 128,-1,127
 455 1004 455 1004 455 993 c 0,128,129
 455 970 455 970 433 949 c 1,130,131
 442 938 442 938 442 924 c 0,132,133
 442 915 442 915 438 905 c 1,134,135
 485 891 485 891 520 852 c 0,136,137
 611 742 611 742 611 525 c 0,138,139
 611 434 611 434 606 406 c 1,140,-1
 549 355 l 1,141,-1
 138 355 l 1,142,143
 163 230 163 230 243 165 c 0,144,145
 300 123 300 123 369 123 c 0,146,147
 387 123 387 123 421.5 129 c 128,-1,148
 456 135 456 135 488 182 c 2,149,-1
 518 230 l 1,150,-1
 614 170 l 1,151,-1
 584 121 l 1,152,153
 510 10 510 10 370 9 c 0,78,79
407 1192 m 1,154,155
 406 1206 406 1206 404 1219 c 1,156,-1
 394 1192 l 1,157,-1
 397 1193 l 1,158,-1
 407 1192 l 1,154,155
412 1149 m 0,159,160
 420 1158 420 1158 420 1162 c 256,161,162
 420 1166 420 1166 413.5 1168.5 c 128,-1,163
 407 1171 407 1171 399 1171 c 0,164,165
 372 1171 372 1171 369 1153 c 1,166,167
 378 1156 378 1156 386 1156 c 0,168,169
 392 1155 392 1155 397.5 1153 c 128,-1,170
 403 1151 403 1151 406.5 1150 c 128,-1,171
 410 1149 410 1149 412 1149 c 0,159,160
346 1088 m 1,172,173
 371 1097 371 1097 397 1098 c 0,174,175
 406 1098 406 1098 415 1096 c 1,176,177
 426 1103 426 1103 426 1115 c 0,178,179
 426 1122 426 1122 420 1128 c 1,180,-1
 416 1128 l 2,181,182
 405 1128 405 1128 395 1132 c 0,183,184
 393 1132 393 1132 390.5 1133 c 128,-1,185
 388 1134 388 1134 384 1134 c 0,186,187
 377 1134 377 1134 372.5 1130 c 128,-1,188
 368 1126 368 1126 364 1123.5 c 128,-1,189
 360 1121 360 1121 355 1115 c 0,190,191
 345 1103 345 1103 345 1094 c 2,192,-1
 346 1088 l 1,172,173
323 1019 m 1,193,194
 332 1023 332 1023 343 1024 c 0,195,196
 378 1033 378 1033 407 1034 c 1,197,198
 426 1042 426 1042 426 1058 c 0,199,200
 426 1070 426 1070 416 1074 c 1,201,-1
 414 1074 l 2,202,203
 410 1074 410 1074 407 1076 c 0,204,205
 377 1076 377 1076 374 1073 c 0,206,207
 321 1064 321 1064 321 1029 c 0,208,209
 321 1024 321 1024 323 1019 c 1,193,194
281 927 m 1,210,211
 313 944 313 944 348 950 c 1,212,213
 381 961 381 961 403 961 c 2,214,-1
 413 960 l 1,215,216
 432 972 432 972 432 987 c 1,217,-1
 431 989 l 1,218,219
 427 1010 427 1010 399 1010 c 0,220,221
 354 1008 354 1008 327 999 c 1,222,-1
 326 999 l 2,223,224
 324 996 324 996 321 996 c 0,225,226
 305 986 305 986 290 965 c 0,227,228
 280 950 280 950 280 937 c 2,229,-1
 281 927 l 1,210,211
283 900 m 1,230,231
 329 914 329 914 380 914 c 0,232,233
 398 914 398 914 415 911 c 1,234,-1
 416 919 l 2,235,236
 416 939 416 939 400 939 c 0,237,238
 392 939 392 939 347 929 c 128,-1,239
 302 919 302 919 283 900 c 1,230,231
496 469 m 1,240,-1
 497 500 l 1,241,242
 497 700 497 700 435 776 c 0,243,244
 414 800 414 800 380 800 c 0,245,246
 258 800 258 800 192 691 c 0,247,248
 132 591 132 591 128 469 c 1,249,-1
 496 469 l 1,240,-1
358 556 m 2,250,-1
 352 557 l 1,251,-1
 326 576 l 2,252,253
 323 578 323 578 319 578 c 2,254,-1
 282 566 l 2,255,256
 278 566 278 566 275 569.5 c 128,-1,257
 272 573 272 573 272 577 c 2,258,-1
 282 615 l 2,259,260
 282 618 282 618 280 621 c 2,261,-1
 260 646 l 2,262,263
 258 649 258 649 258 653 c 0,264,265
 258 664 258 664 269 664 c 2,266,-1
 301 664 l 2,267,268
 306 664 306 664 310 669 c 2,269,-1
 328 695 l 2,270,271
 332 700 332 700 337 700 c 0,272,273
 345 700 345 700 347 693 c 2,274,-1
 357 662 l 2,275,276
 359 657 359 657 365 655 c 2,277,-1
 395 646 l 2,278,279
 404 644 404 644 404 636 c 0,280,281
 404 630 404 630 399 627 c 2,282,-1
 373 608 l 2,283,284
 369 605 369 605 369 601 c 2,285,-1
 369 567 l 2,286,287
 369 556 369 556 358 556 c 2,250,-1
EndSplineSet
Validated: 1
EndChar

StartChar: F
Encoding: 70 70 41
Width: 778
GlyphClass: 2
Flags: W
LayerCount: 4
Fore
SplineSet
352 935 m 0,0,1
 349 935 349 935 325 952 c 1,2,-1
 320 953 l 2,3,4
 318 953 318 953 304.5 948.5 c 128,-1,5
 291 944 291 944 290 944 c 0,6,7
 286 944 286 944 283.5 946.5 c 128,-1,8
 281 949 281 949 281 953 c 2,9,-1
 289 982 l 2,10,11
 289 985 289 985 287 988 c 0,12,13
 270 1011 270 1011 270 1014 c 0,14,15
 270 1021 270 1021 279 1023 c 2,16,-1
 304 1023 l 2,17,18
 309 1023 309 1023 312 1027 c 2,19,-1
 326 1048 l 2,20,21
 330 1052 330 1052 335 1052 c 0,22,23
 340 1051 340 1051 342 1046 c 2,24,-1
 350 1021 l 2,25,26
 352 1017 352 1017 356 1016 c 2,27,-1
 381 1008 l 2,28,29
 387 1006 387 1006 387 999 c 0,30,31
 387 995 387 995 384 993 c 2,32,-1
 363 977 l 2,33,34
 359 975 359 975 359 970 c 2,35,-1
 360 944 l 2,36,37
 360 935 360 935 352 935 c 0,0,1
648 1033 m 2,38,-1
 644 1034 l 1,39,40
 627 1046 627 1046 626 1046 c 2,41,-1
 604 1040 l 2,42,43
 598 1040 598 1040 598 1046 c 2,44,-1
 604 1067 l 2,45,46
 604 1069 604 1069 592 1085 c 0,47,48
 590 1087 590 1087 590 1089 c 0,49,50
 590 1095 590 1095 597 1095 c 2,51,-1
 615 1095 l 2,52,53
 618 1095 618 1095 620 1098 c 2,54,-1
 630 1113 l 2,55,56
 633 1116 633 1116 637 1116 c 0,57,58
 640 1115 640 1115 641 1111 c 2,59,-1
 647 1094 l 2,60,61
 648 1091 648 1091 651 1090 c 2,62,-1
 669 1085 l 2,63,64
 673 1084 673 1084 673 1078 c 0,65,66
 673 1076 673 1076 656 1063 c 0,67,68
 654 1061 654 1061 654 1058 c 2,69,-1
 654 1040 l 2,70,71
 654 1033 654 1033 648 1033 c 2,38,-1
268 -10 m 1,72,-1
 154 -10 l 1,73,-1
 155 321 l 1,74,-1
 15 321 l 1,75,-1
 15 435 l 1,76,-1
 155 435 l 1,77,-1
 155 869 l 1,78,-1
 211 926 l 1,79,-1
 411 927 l 1,80,81
 407 936 407 936 407 946 c 0,82,83
 407 964 407 964 420 986 c 128,-1,84
 433 1008 433 1008 452 1020 c 1,85,86
 448 1030 448 1030 448 1040 c 0,87,88
 448 1053 448 1053 455.5 1066.5 c 128,-1,89
 463 1080 463 1080 475 1088 c 1,90,91
 472 1095 472 1095 472 1103 c 0,92,93
 472 1128 472 1128 496 1149 c 1,94,-1
 495 1159 l 2,95,96
 495 1181 495 1181 517 1194 c 1,97,98
 519 1207 519 1207 524 1219 c 0,99,100
 526 1227 526 1227 528 1231 c 0,101,102
 533 1254 533 1254 549 1254 c 0,103,104
 573 1254 573 1254 573 1200 c 2,105,-1
 573 1192 l 1,106,-1
 579 1187 l 2,107,108
 587 1179 587 1179 587 1170 c 0,109,110
 586 1160 586 1160 580 1151 c 1,111,112
 592 1137 592 1137 592 1120 c 0,113,114
 592 1105 592 1105 582 1094 c 1,115,116
 592 1084 592 1084 592 1068 c 0,117,118
 592 1051 592 1051 580 1038 c 1,119,120
 589 1034 589 1034 594 1024 c 128,-1,121
 599 1014 599 1014 599 1004 c 0,122,123
 599 980 599 980 578 960 c 1,124,125
 587 950 587 950 587 937 c 2,126,-1
 586 928 l 1,127,-1
 762 929 l 1,128,-1
 763 815 l 1,129,-1
 269 812 l 1,130,-1
 268 435 l 1,131,-1
 402 435 l 1,132,-1
 402 321 l 1,133,-1
 268 321 l 1,134,-1
 268 -10 l 1,72,-1
455 927 m 1,135,-1
 562 928 l 1,136,137
 562 934 562 934 560 940 c 0,138,139
 555 950 555 950 546 950 c 0,140,141
 532 950 532 950 502 941 c 0,142,143
 468 933 468 933 455 927 c 1,135,-1
552 1199 m 1,144,145
 552 1212 552 1212 549 1225 c 1,146,-1
 540 1199 l 1,147,-1
 543 1200 l 1,148,-1
 552 1199 l 1,144,145
558 1157 m 1,149,150
 565 1164 565 1164 565 1168 c 0,151,152
 565 1178 565 1178 546 1178 c 0,153,154
 518 1178 518 1178 516 1161 c 1,155,156
 522 1163 522 1163 528 1163 c 0,157,158
 537 1163 537 1163 544 1160 c 128,-1,159
 551 1157 551 1157 558 1157 c 1,149,150
493 1097 m 1,160,161
 518 1107 518 1107 543 1107 c 0,162,163
 552 1107 552 1107 561 1105 c 1,164,165
 571 1111 571 1111 571 1121 c 0,166,167
 571 1129 571 1129 565 1136 c 1,168,-1
 560 1136 l 2,169,170
 551 1136 551 1136 541 1139 c 0,171,172
 536 1141 536 1141 530 1141 c 256,173,174
 524 1141 524 1141 519.5 1137.5 c 128,-1,175
 515 1134 515 1134 511 1131.5 c 128,-1,176
 507 1129 507 1129 502 1123 c 0,177,178
 492 1111 492 1111 492 1103 c 2,179,-1
 493 1097 l 1,160,161
470 1029 m 1,180,181
 479 1033 479 1033 490 1034 c 0,182,183
 525 1043 525 1043 553 1044 c 1,184,185
 571 1052 571 1052 571 1067 c 0,186,187
 571 1078 571 1078 562 1082 c 1,188,-1
 560 1082 l 2,189,190
 555 1082 555 1082 553 1085 c 2,191,-1
 545 1086 l 2,192,193
 537 1086 537 1086 522 1083 c 0,194,195
 522 1082 522 1082 521 1082 c 0,196,197
 469 1073 469 1073 469 1038 c 0,198,199
 469 1033 469 1033 470 1029 c 1,180,181
430 939 m 1,200,201
 464 957 464 957 501 963 c 1,202,203
 527 972 527 972 548 972 c 2,204,-1
 559 971 l 1,205,206
 565 975 565 975 571 982.5 c 128,-1,207
 577 990 577 990 577 997 c 2,208,-1
 577 999 l 1,209,210
 571 1020 571 1020 547 1020 c 2,211,-1
 522 1018 l 2,212,213
 497 1017 497 1017 475 1009 c 1,214,-1
 474 1009 l 2,215,216
 472 1006 472 1006 468 1006 c 0,217,218
 453 996 453 996 438 976 c 0,219,220
 428 961 428 961 428 949 c 0,221,222
 428 944 428 944 430 939 c 1,200,201
413 162 m 4,223,224
 411 162 411 162 398 168.5 c 132,-1,225
 385 175 385 175 383 175 c 260,226,227
 381 175 381 175 368 168.5 c 132,-1,228
 355 162 355 162 353 162 c 4,229,230
 344 162 344 162 344 172 c 6,231,-1
 348 198 l 6,232,233
 348 202 348 202 346 204 c 6,234,-1
 328 221 l 6,235,236
 325 224 325 224 325 227 c 4,237,238
 325 235 325 235 333 236 c 6,239,-1
 357 240 l 6,240,241
 362 240 362 240 364 244 c 6,242,-1
 375 267 l 6,243,244
 378 271 378 271 383 271 c 4,245,246
 387 271 387 271 390 267 c 6,247,-1
 401 244 l 6,248,249
 403 240 403 240 408 240 c 6,250,-1
 432 236 l 6,251,252
 440 235 440 235 440 227 c 4,253,254
 440 224 440 224 437 221 c 6,255,-1
 419 204 l 6,256,257
 417 202 417 202 417 198 c 6,258,-1
 421 170 l 6,259,260
 421 162 421 162 413 162 c 4,223,224
EndSplineSet
Validated: 1
EndChar

StartChar: G
Encoding: 71 71 42
Width: 700
GlyphClass: 2
Flags: W
LayerCount: 4
Fore
SplineSet
411 886 m 2,0,-1
 360 887 l 1,1,2
 333 894 333 894 325 916 c 0,3,4
 323 922 323 922 323 928 c 0,5,6
 323 944 323 944 339 959 c 1,7,8
 335 967 335 967 335 975 c 0,9,10
 335 993 335 993 351.5 1014.5 c 128,-1,11
 368 1036 368 1036 387 1046 c 1,12,13
 385 1052 385 1052 385 1057 c 0,14,15
 385 1063 385 1063 387.5 1072 c 128,-1,16
 390 1081 390 1081 397.5 1091.5 c 128,-1,17
 405 1102 405 1102 416 1108 c 1,18,19
 414 1113 414 1113 414 1119 c 0,20,21
 414 1128 414 1128 421.5 1140.5 c 128,-1,22
 429 1153 429 1153 444 1164 c 1,23,-1
 443 1168 l 1,24,25
 443 1187 443 1187 460 1200 c 0,26,27
 464 1203 464 1203 469 1205 c 1,28,29
 473 1216 473 1216 479 1227 c 2,30,-1
 484 1239 l 2,31,32
 491 1259 491 1259 506 1259 c 0,33,34
 525 1259 525 1259 525 1233 c 2,35,-1
 525 1219 l 1,36,-1
 524 1197 l 1,37,38
 534 1187 534 1187 534 1178 c 256,39,40
 534 1169 534 1169 526 1156 c 1,41,42
 533 1144 533 1144 533 1130 c 0,43,44
 533 1113 533 1113 521 1102 c 1,45,46
 527 1094 527 1094 528 1082 c 0,47,48
 528 1061 528 1061 513 1048 c 1,49,50
 527 1039 527 1039 527 1018 c 0,51,52
 527 992 527 992 502 974 c 1,53,54
 507 965 507 965 507 955 c 0,55,56
 507 947 507 947 502 933 c 128,-1,57
 497 919 497 919 481 904 c 128,-1,58
 465 889 465 889 447.5 887.5 c 128,-1,59
 430 886 430 886 411 886 c 2,0,-1
416 906 m 0,60,61
 432 906 432 906 448 908 c 0,62,63
 459 911 459 911 470 922.5 c 128,-1,64
 481 934 481 934 482 947 c 0,65,66
 482 968 482 968 453 968 c 0,67,68
 442 968 442 968 428 964 c 1,69,-1
 422 964 l 2,70,71
 420 963 420 963 417 963 c 0,72,73
 382 958 382 958 361 949 c 0,74,75
 359 946 359 946 355 946 c 0,76,77
 345 938 345 938 345 927 c 0,78,79
 345 923 345 923 348 916.5 c 128,-1,80
 351 910 351 910 364 909 c 128,-1,81
 377 908 377 908 390.5 907 c 128,-1,82
 404 906 404 906 416 906 c 0,60,61
503 1206 m 1,83,-1
 503 1228 l 1,84,-1
 493 1208 l 1,85,-1
 503 1206 l 1,83,-1
504 1165 m 1,86,87
 512 1172 512 1172 512 1175 c 0,88,89
 512 1186 512 1186 486 1186 c 0,90,91
 468 1186 468 1186 466 1173 c 1,92,-1
 476 1174 l 2,93,94
 479 1174 479 1174 483.5 1173 c 128,-1,95
 488 1172 488 1172 493 1169 c 128,-1,96
 498 1166 498 1166 504 1165 c 1,86,87
501 1115 m 1,97,98
 512 1120 512 1120 512 1132 c 0,99,100
 512 1137 512 1137 509 1143 c 1,101,102
 500 1144 500 1144 491 1148 c 128,-1,103
 482 1152 482 1152 474 1152 c 0,104,105
 465 1152 465 1152 461 1148 c 0,106,107
 450 1143 450 1143 443 1134.5 c 128,-1,108
 436 1126 436 1126 436 1120 c 2,109,-1
 437 1115 l 1,110,111
 453 1119 453 1119 470 1119 c 0,112,113
 485 1119 485 1119 501 1115 c 1,97,98
407 1053 m 1,114,115
 422 1056 422 1056 448 1056 c 0,116,117
 460 1058 460 1058 472 1058 c 2,118,-1
 488 1057 l 2,119,120
 496 1060 496 1060 501 1066 c 128,-1,121
 506 1072 506 1072 506 1079 c 0,122,123
 506 1087 506 1087 500 1092 c 0,124,125
 495 1092 495 1092 492 1096 c 0,126,127
 484 1098 484 1098 474 1098 c 0,128,129
 447 1096 447 1096 432 1092 c 0,130,131
 422 1089 422 1089 414 1079.5 c 128,-1,132
 406 1070 406 1070 406 1058 c 2,133,-1
 407 1053 l 1,114,115
357 971 m 1,134,135
 389 983 389 983 433 986 c 0,136,137
 452 989 452 989 465 989 c 0,138,139
 475 989 475 989 484 987 c 1,140,141
 491 990 491 990 497.5 996.5 c 128,-1,142
 504 1003 504 1003 504 1010 c 0,143,144
 500 1034 500 1034 476 1034 c 2,145,-1
 424 1034 l 2,146,147
 386 1033 386 1033 363 993 c 0,148,149
 356 983 356 983 356 975 c 2,150,-1
 357 971 l 1,134,135
655 1135 m 0,151,152
 653 1135 653 1135 652 1137 c 0,153,154
 637 1150 637 1150 635 1150 c 2,155,-1
 614 1146 l 2,156,157
 608 1146 608 1146 608 1152 c 2,158,-1
 617 1173 l 1,159,160
 607 1191 607 1191 606 1195 c 0,161,162
 606 1200 606 1200 611 1200 c 2,163,-1
 631 1198 l 2,164,165
 634 1198 634 1198 636 1200 c 2,166,-1
 647 1214 l 1,167,-1
 651 1215 l 2,168,169
 657 1215 657 1215 658 1211 c 2,170,-1
 661 1194 l 2,171,172
 662 1191 662 1191 665 1189 c 2,173,-1
 681 1182 l 2,174,175
 684 1181 684 1181 684 1176 c 0,176,177
 684 1174 684 1174 682 1172 c 2,178,-1
 666 1163 l 2,179,180
 664 1161 664 1161 663 1158 c 0,181,182
 662 1150 662 1150 661 1142.5 c 128,-1,183
 660 1135 660 1135 655 1135 c 0,151,152
280 -16 m 1,184,185
 177 -15 177 -15 109 69 c 0,186,187
 15 185 15 185 15 417 c 0,188,189
 15 598 15 598 84 751 c 0,190,191
 103 794 103 794 141.5 840 c 128,-1,192
 180 886 180 886 250 906 c 0,193,194
 297 916 297 916 341 916 c 0,195,196
 488 916 488 916 602 805 c 1,197,-1
 641 763 l 1,198,-1
 559 685 l 1,199,-1
 520 727 l 1,200,201
 442 802 442 802 340 802 c 0,202,203
 310 802 310 802 278 795 c 0,204,205
 224 784 224 784 187 702 c 0,206,207
 129 574 129 574 129 419 c 0,208,209
 129 369 129 369 135 316 c 0,210,211
 138 286 138 286 152 233 c 0,212,213
 189 98 189 98 284 98 c 2,214,-1
 292 98 l 1,215,216
 393 111 393 111 444.5 168.5 c 128,-1,217
 496 226 496 226 514.5 296 c 128,-1,218
 533 366 533 366 534 418 c 1,219,-1
 186 416 l 1,220,-1
 186 530 l 1,221,-1
 590 532 l 1,222,-1
 647 480 l 1,223,-1
 648 459 l 2,224,225
 648 441 648 441 646.5 391.5 c 128,-1,226
 645 342 645 342 620 254 c 0,227,228
 543 12 543 12 304 -15 c 1,229,-1
 280 -16 l 1,184,185
338 204 m 0,230,231
 335 204 335 204 316 223 c 0,232,233
 312 225 312 225 308 225 c 2,234,-1
 283 219 l 2,235,236
 279 219 279 219 277 221.5 c 128,-1,237
 275 224 275 224 275 227 c 0,238,239
 275 229 275 229 280.5 241.5 c 128,-1,240
 286 254 286 254 286 255 c 0,241,242
 286 257 286 257 273 280 c 1,243,-1
 272 285 l 2,244,245
 272 292 272 292 281 292 c 2,246,-1
 305 289 l 2,247,248
 309 289 309 289 312 292 c 2,249,-1
 327 310 l 2,250,251
 330 313 330 313 333 313 c 0,252,253
 339 313 339 313 341 306 c 2,254,-1
 346 283 l 2,255,256
 347 279 347 279 351 277 c 2,257,-1
 373 268 l 2,258,259
 377 266 377 266 377 259 c 0,260,261
 377 256 377 256 373 253 c 2,262,-1
 353 242 l 2,263,264
 349 240 349 240 349 235 c 0,265,266
 348 224 348 224 346.5 214 c 128,-1,267
 345 204 345 204 338 204 c 0,230,231
EndSplineSet
Validated: 5
EndChar

StartChar: H
Encoding: 72 72 43
Width: 713
GlyphClass: 2
Flags: W
LayerCount: 4
Fore
SplineSet
54 480 m 0,0,1
 48 480 48 480 47 486 c 2,2,-1
 44 508 l 2,3,4
 43 511 43 511 39 513 c 2,5,-1
 19 522 l 2,6,7
 15 525 15 525 15 529 c 256,8,9
 15 533 15 533 19 536 c 2,10,-1
 39 546 l 2,11,12
 42 548 42 548 43 552 c 0,13,14
 44 563 44 563 45 571.5 c 128,-1,15
 46 580 46 580 53 580 c 0,16,17
 56 580 56 580 58 578 c 2,18,-1
 74 562 l 2,19,20
 76 560 76 560 80 560 c 2,21,-1
 102 565 l 2,22,23
 106 565 106 565 108.5 562.5 c 128,-1,24
 111 560 111 560 111 557 c 0,25,26
 111 556 111 556 105 544.5 c 128,-1,27
 99 533 99 533 99 531 c 256,28,29
 99 529 99 529 111 508 c 1,30,-1
 112 505 l 2,31,32
 112 497 112 497 103 497 c 2,33,-1
 80 500 l 2,34,35
 77 500 77 500 75 498 c 2,36,-1
 60 482 l 2,37,38
 57 480 57 480 54 480 c 0,0,1
534 968 m 0,39,40
 532 968 532 968 519 974.5 c 128,-1,41
 506 981 506 981 504 981 c 256,42,43
 502 981 502 981 489 974.5 c 128,-1,44
 476 968 476 968 474 968 c 0,45,46
 465 968 465 968 465 978 c 2,47,-1
 469 1004 l 2,48,49
 469 1008 469 1008 467 1010 c 2,50,-1
 449 1027 l 2,51,52
 446 1030 446 1030 446 1033 c 0,53,54
 446 1041 446 1041 454 1042 c 2,55,-1
 478 1046 l 2,56,57
 483 1046 483 1046 485 1050 c 2,58,-1
 496 1073 l 2,59,60
 499 1077 499 1077 504 1077 c 0,61,62
 508 1077 508 1077 511 1073 c 2,63,-1
 522 1050 l 2,64,65
 524 1046 524 1046 529 1046 c 2,66,-1
 553 1042 l 2,67,68
 561 1041 561 1041 561 1033 c 0,69,70
 561 1030 561 1030 558 1027 c 2,71,-1
 540 1010 l 2,72,73
 538 1008 538 1008 538 1004 c 2,74,-1
 542 976 l 2,75,76
 542 968 542 968 534 968 c 0,39,40
634 4 m 1,77,-1
 520 4 l 1,78,-1
 520 340 l 1,79,-1
 238 340 l 1,80,-1
 238 4 l 1,81,-1
 124 4 l 1,82,-1
 124 340 l 1,83,-1
 26 340 l 1,84,-1
 26 454 l 1,85,-1
 124 454 l 1,86,-1
 124 914 l 1,87,-1
 238 914 l 1,88,-1
 238 454 l 1,89,-1
 291 454 l 1,90,91
 280 467 280 467 280 484 c 0,92,93
 280 520 280 520 318 556 c 1,94,95
 311 566 311 566 311 580 c 0,96,97
 311 610 311 610 331 628 c 1,98,99
 324 637 324 637 324 648 c 0,100,101
 324 670 324 670 344 693 c 1,102,103
 341 701 341 701 341 709 c 0,104,105
 341 728 341 728 358 742 c 1,106,-1
 359 742 l 1,107,108
 359 759 359 759 364 774 c 0,109,110
 364 785 364 785 368.5 796.5 c 128,-1,111
 373 808 373 808 386 808 c 0,112,113
 401 808 401 808 407.5 788 c 128,-1,114
 414 768 414 768 416 749 c 1,115,116
 432 741 432 741 433 727 c 0,117,118
 433 717 433 717 429 708 c 1,119,120
 446 691 446 691 446 672 c 0,121,122
 446 660 446 660 438 650 c 1,123,124
 453 641 453 641 453 618 c 0,125,126
 453 605 453 605 445 594 c 1,127,128
 452 591 452 591 458 585 c 0,129,130
 470 572 470 572 470 556 c 0,131,132
 470 553 470 553 468.5 541.5 c 128,-1,133
 467 530 467 530 454 514 c 1,134,135
 466 504 466 504 466 482 c 0,136,137
 466 469 466 469 461 454 c 1,138,-1
 520 454 l 1,139,-1
 520 914 l 1,140,-1
 634 914 l 1,141,-1
 634 454 l 1,142,-1
 698 454 l 1,143,-1
 698 340 l 1,144,-1
 634 340 l 1,145,-1
 634 4 l 1,77,-1
437 454 m 1,146,147
 442 470 442 470 442 475 c 0,148,149
 442 496 442 496 419 498 c 0,150,151
 409 497 409 497 396 491 c 0,152,153
 344 472 344 472 320 454 c 1,154,-1
 437 454 l 1,146,147
362 708 m 1,155,156
 371 713 371 713 382 713 c 0,157,158
 388 713 388 713 392 712 c 128,-1,159
 396 711 396 711 402 711 c 2,160,-1
 406 711 l 1,161,162
 412 718 412 718 412 723 c 0,163,164
 412 731 412 731 388 731 c 1,165,166
 362 726 362 726 362 708 c 1,155,156
381 751 m 1,167,-1
 394 753 l 1,168,-1
 387 780 l 1,169,-1
 381 751 l 1,167,-1
349 641 m 1,170,171
 383 658 383 658 410 658 c 2,172,-1
 416 658 l 1,173,174
 424 665 424 665 424 674 c 0,175,176
 424 684 424 684 416 690 c 1,177,-1
 405 689 l 2,178,179
 397 689 397 689 389 691 c 2,180,-1
 383 692 l 2,181,182
 374 692 374 692 368 686 c 0,183,184
 367 681 367 681 362 680 c 0,185,186
 354 672 354 672 349 660 c 0,187,188
 346 655 346 655 346 650 c 256,189,190
 346 645 346 645 349 641 c 1,170,171
335 569 m 1,191,-1
 345 574 l 2,192,193
 379 587 379 587 417 595 c 0,194,195
 425 600 425 600 430 611 c 0,196,197
 432 615 432 615 432 619 c 0,198,199
 432 625 432 625 428.5 630 c 128,-1,200
 425 635 425 635 421 636 c 2,201,-1
 418 636 l 2,202,203
 414 636 414 636 411 638 c 0,204,205
 394 636 394 636 372 627 c 0,206,207
 371 626 371 626 369 626 c 0,208,209
 332 612 332 612 332 581 c 0,210,211
 332 574 332 574 335 569 c 1,191,-1
306 470 m 1,212,213
 337 493 337 493 382 508 c 0,214,215
 411 521 411 521 433 521 c 1,216,217
 448 536 448 536 448 553 c 0,218,219
 447 568 447 568 436 571 c 0,220,221
 398 571 398 571 351 553 c 0,222,223
 340 549 340 549 326 533.5 c 128,-1,224
 312 518 312 518 305 500 c 0,225,226
 301 492 301 492 301 484 c 256,227,228
 301 476 301 476 306 470 c 1,212,213
412 141 m 0,229,230
 410 141 410 141 397 147.5 c 128,-1,231
 384 154 384 154 382 154 c 256,232,233
 380 154 380 154 367 147.5 c 128,-1,234
 354 141 354 141 352 141 c 0,235,236
 343 141 343 141 343 151 c 2,237,-1
 347 177 l 2,238,239
 347 181 347 181 345 183 c 2,240,-1
 327 200 l 2,241,242
 324 203 324 203 324 206 c 0,243,244
 324 214 324 214 332 215 c 2,245,-1
 356 219 l 2,246,247
 361 219 361 219 363 223 c 2,248,-1
 374 246 l 2,249,250
 377 250 377 250 382 250 c 0,251,252
 386 250 386 250 389 246 c 2,253,-1
 400 223 l 2,254,255
 402 219 402 219 407 219 c 2,256,-1
 431 215 l 2,257,258
 439 214 439 214 439 206 c 0,259,260
 439 203 439 203 436 200 c 2,261,-1
 418 183 l 2,262,263
 416 181 416 181 416 177 c 2,264,-1
 420 149 l 2,265,266
 420 141 420 141 412 141 c 0,229,230
EndSplineSet
Validated: 1
EndChar

StartChar: I
Encoding: 73 73 44
Width: 276
GlyphClass: 2
Flags: W
LayerCount: 4
Fore
SplineSet
210 4 m 1,0,-1
 96 4 l 1,1,-1
 96 868 l 1,2,3
 80 865 80 865 62 865 c 0,4,5
 30 868 30 868 19 893 c 0,6,7
 15 902 15 902 15 911 c 0,8,9
 15 927 15 927 28 944 c 1,10,-1
 29 944 l 1,11,12
 23 955 23 955 23 967 c 0,13,14
 23 987 23 987 35 1008 c 0,15,16
 50 1037 50 1037 74 1052 c 1,17,18
 70 1063 70 1063 70 1075 c 0,19,20
 70 1109 70 1109 100 1129 c 1,21,22
 96 1138 96 1138 96 1148 c 0,23,24
 96 1174 96 1174 124 1199 c 1,25,-1
 123 1211 l 2,26,27
 123 1235 123 1235 147 1250 c 1,28,29
 150 1264 150 1264 156 1281.5 c 128,-1,30
 162 1299 162 1299 167 1308.5 c 128,-1,31
 172 1318 172 1318 183 1318 c 0,32,33
 209 1318 209 1318 209 1260 c 1,34,-1
 208 1248 l 1,35,36
 213 1246 213 1246 216 1242 c 0,37,38
 224 1234 224 1234 224 1224 c 256,39,40
 224 1214 224 1214 216 1202 c 1,41,42
 231 1186 231 1186 231 1166 c 0,43,44
 231 1149 231 1149 218 1137 c 1,45,46
 230 1126 230 1126 230 1107 c 0,47,48
 230 1087 230 1087 216 1072 c 1,49,50
 227 1068 227 1068 233 1056.5 c 128,-1,51
 239 1045 239 1045 239 1034 c 0,52,53
 239 1009 239 1009 214 984 c 1,54,55
 225 973 225 973 225 958 c 0,56,57
 225 955 225 955 223.5 943.5 c 128,-1,58
 222 932 222 932 210 913 c 1,59,-1
 210 4 l 1,0,-1
188 1255 m 1,60,61
 188 1273 188 1273 184 1291 c 1,62,-1
 184 1295 l 1,63,-1
 170 1255 l 1,64,-1
 176 1256 l 1,65,-1
 188 1255 l 1,60,61
193 1207 m 0,66,67
 202 1216 202 1216 203 1222 c 0,68,69
 203 1228 203 1228 195.5 1231.5 c 128,-1,70
 188 1235 188 1235 180 1235 c 0,71,72
 170 1235 170 1235 163 1233 c 0,73,74
 144 1227 144 1227 144 1213 c 2,75,-1
 144 1211 l 1,76,77
 152 1214 152 1214 160 1214 c 0,78,79
 170 1214 170 1214 179 1210.5 c 128,-1,80
 188 1207 188 1207 193 1207 c 0,66,67
119 1139 m 1,81,82
 151 1150 151 1150 174 1150 c 0,83,84
 185 1150 185 1150 196 1147 c 1,85,86
 209 1154 209 1154 209 1165 c 0,87,88
 209 1174 209 1174 204 1182 c 0,89,90
 204 1184 204 1184 203 1184.5 c 128,-1,91
 202 1185 202 1185 202 1186 c 2,92,-1
 193 1186 l 2,93,94
 189 1186 189 1186 164 1193 c 0,95,96
 156 1193 156 1193 145 1186 c 0,97,98
 143 1183 143 1183 139 1182 c 0,99,100
 127 1172 127 1172 120 1160 c 0,101,102
 116 1154 116 1154 116 1148 c 0,103,104
 116 1143 116 1143 119 1139 c 1,81,82
92 1062 m 1,105,106
 102 1065 102 1065 111.5 1066.5 c 128,-1,107
 121 1068 121 1068 133 1071 c 0,108,109
 160 1077 160 1077 188 1078 c 1,110,111
 209 1088 209 1088 209 1105 c 0,112,113
 209 1121 209 1121 197 1125 c 1,114,-1
 195 1125 l 2,115,116
 191 1125 191 1125 188 1128 c 2,117,-1
 179 1129 l 2,118,119
 156 1129 156 1129 123 1117 c 0,120,121
 100 1109 100 1109 91 1082 c 1,122,-1
 90 1072 l 2,123,124
 90 1066 90 1066 92 1062 c 1,105,106
65 886 m 2,125,-1
 96 888 l 1,126,-1
 96 914 l 1,127,-1
 186 914 l 1,128,129
 199 931 199 931 199 949 c 0,130,131
 199 956 199 956 196 962 c 0,132,133
 192 974 192 974 181 974 c 0,134,135
 167 974 167 974 128 964 c 2,136,-1
 119 962 l 2,137,138
 39 944 39 944 39 908 c 0,139,140
 39 902 39 902 42.5 894 c 128,-1,141
 46 886 46 886 65 886 c 2,125,-1
46 958 m 1,142,143
 81 977 81 977 128 986 c 0,144,145
 161 996 161 996 183 996 c 2,146,-1
 194 995 l 1,147,148
 202 1000 202 1000 209 1009 c 128,-1,149
 216 1018 216 1018 216 1028 c 0,150,151
 215 1044 215 1044 208.5 1050 c 128,-1,152
 202 1056 202 1056 193 1056 c 2,153,-1
 174 1054 l 2,154,155
 162 1051 162 1051 147 1051 c 0,156,157
 120 1050 120 1050 97 1042 c 0,158,159
 94 1038 94 1038 90 1038 c 0,160,161
 71 1026 71 1026 55 1002 c 0,162,163
 44 985 44 985 44 971 c 0,164,165
 44 964 44 964 46 958 c 1,142,143
231 1327 m 2,166,-1
 227 1328 l 1,167,168
 209 1342 209 1342 207 1342 c 2,169,-1
 182 1334 l 2,170,171
 180 1334 180 1334 177.5 1336 c 128,-1,172
 175 1338 175 1338 175 1341 c 2,173,-1
 182 1366 l 1,174,-1
 180 1370 l 2,175,176
 167 1388 167 1388 167 1391 c 0,177,178
 167 1396 167 1396 173 1398 c 2,179,-1
 194 1398 l 2,180,181
 198 1398 198 1398 200 1401 c 0,182,183
 215 1421 215 1421 217 1421 c 2,184,-1
 220 1421 l 2,185,186
 223 1421 223 1421 231 1397 c 0,187,188
 232 1393 232 1393 236 1392 c 2,189,-1
 256 1386 l 2,190,191
 260 1385 260 1385 261 1381 c 0,192,193
 261 1376 261 1376 258 1374 c 2,194,-1
 241 1361 l 2,195,196
 238 1359 238 1359 238 1355 c 2,197,-1
 239 1334 l 2,198,199
 239 1327 239 1327 231 1327 c 2,166,-1
EndSplineSet
Validated: 1
EndChar

StartChar: J
Encoding: 74 74 45
Width: 618
GlyphClass: 2
Flags: W
LayerCount: 4
Fore
SplineSet
107 949 m 0,0,1
 104 949 104 949 78 967 c 0,2,3
 75 969 75 969 71 969 c 2,4,-1
 37 958 l 2,5,6
 33 958 33 958 30.5 961 c 128,-1,7
 28 964 28 964 28 967 c 2,8,-1
 38 1002 l 2,9,10
 38 1006 38 1006 35 1009 c 0,11,12
 15 1035 15 1035 15 1038 c 0,13,14
 15 1048 15 1048 25 1048 c 2,15,-1
 54 1048 l 2,16,17
 60 1049 60 1049 63 1053 c 2,18,-1
 79 1077 l 2,19,20
 83 1082 83 1082 89 1082 c 0,21,22
 95 1081 95 1081 97 1075 c 2,23,-1
 106 1047 l 2,24,25
 108 1042 108 1042 113 1040 c 2,26,-1
 141 1032 l 2,27,28
 149 1029 149 1029 149 1022 c 0,29,30
 149 1017 149 1017 145 1014 c 2,31,-1
 121 997 l 2,32,33
 117 993 117 993 117 988 c 2,34,-1
 118 959 l 2,35,36
 117 949 117 949 107 949 c 0,0,1
447 1060 m 0,37,38
 445 1060 445 1060 434 1067.5 c 128,-1,39
 423 1075 423 1075 421 1075 c 2,40,-1
 396 1067 l 2,41,42
 390 1067 390 1067 390 1075 c 2,43,-1
 397 1099 l 2,44,45
 397 1101 397 1101 382 1119 c 1,46,-1
 381 1124 l 2,47,48
 381 1131 381 1131 388 1131 c 2,49,-1
 409 1131 l 2,50,51
 412 1131 412 1131 414 1134 c 2,52,-1
 426 1151 l 2,53,54
 429 1154 429 1154 432 1154 c 0,55,56
 437 1154 437 1154 439 1150 c 2,57,-1
 445 1130 l 2,58,59
 447 1126 447 1126 450 1125 c 2,60,-1
 470 1119 l 2,61,62
 475 1117 475 1117 475 1112 c 0,63,64
 475 1109 475 1109 472 1107 c 0,65,66
 453 1092 453 1092 453 1089 c 2,67,-1
 453 1068 l 2,68,69
 453 1060 453 1060 447 1060 c 0,37,38
330 4 m 0,70,71
 316 4 316 4 307 5 c 0,72,73
 42 31 42 31 20 307 c 1,74,-1
 17 364 l 1,75,-1
 130 370 l 1,76,-1
 133 313 l 1,77,78
 144 194 144 194 201 156 c 128,-1,79
 258 118 258 118 325 118 c 0,80,81
 365 118 365 118 394 149 c 0,82,83
 447 209 447 209 468 327.5 c 128,-1,84
 489 446 489 446 489 575 c 256,85,86
 489 704 489 704 481 798 c 1,87,-1
 33 798 l 1,88,-1
 33 912 l 1,89,-1
 166 912 l 1,90,91
 168 925 168 925 179 936 c 1,92,-1
 179 937 l 1,93,94
 173 947 173 947 173 959 c 0,95,96
 173 979 173 979 185 1001 c 0,97,98
 200 1030 200 1030 224 1045 c 1,99,100
 220 1056 220 1056 220 1067 c 0,101,102
 220 1082 220 1082 228.5 1097.5 c 128,-1,103
 237 1113 237 1113 251 1122 c 1,104,105
 247 1131 247 1131 247 1141 c 0,106,107
 247 1167 247 1167 274 1191 c 1,108,-1
 273 1203 l 2,109,110
 273 1229 273 1229 298 1242 c 1,111,112
 301 1257 301 1257 309 1279 c 0,113,114
 313 1295 313 1295 317.5 1303 c 128,-1,115
 322 1311 322 1311 333 1311 c 0,116,117
 346 1311 346 1311 350.5 1302.5 c 128,-1,118
 355 1294 355 1294 356 1283 c 0,119,120
 359 1266 359 1266 359 1249 c 2,121,-1
 359 1241 l 1,122,123
 364 1239 364 1239 367 1235 c 0,124,125
 375 1227 375 1227 375 1217 c 256,126,127
 375 1207 375 1207 367 1195 c 1,128,129
 381 1180 381 1180 381 1159 c 0,130,131
 381 1142 381 1142 368 1130 c 1,132,133
 380 1121 380 1121 380 1099 c 0,134,135
 380 1080 380 1080 367 1065 c 1,136,137
 390 1054 390 1054 390 1025 c 0,138,139
 390 1000 390 1000 365 977 c 1,140,141
 375 966 375 966 375 950 c 0,142,143
 375 949 375 949 374.5 939 c 128,-1,144
 374 929 374 929 364 912 c 1,145,-1
 532 912 l 1,146,-1
 561 907 l 1,147,148
 584 884 584 884 588 861 c 0,149,150
 590 853 590 853 593 814 c 0,151,152
 603 698 603 698 603 598 c 0,153,154
 603 314 603 314 537 165 c 0,155,156
 462 4 462 4 330 4 c 0,70,71
338 1248 m 1,157,158
 338 1266 338 1266 335 1284 c 2,159,-1
 334 1288 l 1,160,161
 331 1277 331 1277 327.5 1267.5 c 128,-1,162
 324 1258 324 1258 321 1248 c 1,163,-1
 326 1249 l 1,164,-1
 338 1248 l 1,157,158
344 1200 m 1,165,166
 354 1209 354 1209 354 1215 c 256,167,168
 354 1221 354 1221 345.5 1224 c 128,-1,169
 337 1227 337 1227 329 1227 c 0,170,171
 320 1227 320 1227 314 1226 c 0,172,173
 294 1220 294 1220 294 1204 c 1,174,175
 302 1207 302 1207 310 1207 c 0,176,177
 319 1207 319 1207 328.5 1203.5 c 128,-1,178
 338 1200 338 1200 344 1200 c 1,165,166
269 1132 m 1,179,180
 303 1143 303 1143 325 1143 c 0,181,182
 336 1143 336 1143 347 1140 c 1,183,184
 359 1147 359 1147 359 1158 c 0,185,186
 359 1166 359 1166 355 1175 c 0,187,188
 354 1176 354 1176 353.5 1177.5 c 128,-1,189
 353 1179 353 1179 346 1179 c 2,190,-1
 341 1178 l 1,191,-1
 315 1186 l 2,192,193
 307 1186 307 1186 296 1179 c 0,194,195
 293 1176 293 1176 290 1175 c 0,196,197
 267 1157 267 1157 267 1141 c 0,198,199
 267 1136 267 1136 269 1132 c 1,179,180
243 1054 m 1,200,201
 252 1058 252 1058 262 1059.5 c 128,-1,202
 272 1061 272 1061 284 1064 c 0,203,204
 310 1070 310 1070 339 1071 c 1,205,206
 360 1081 360 1081 360 1099 c 0,207,208
 360 1112 360 1112 348 1118 c 1,209,-1
 346 1118 l 2,210,211
 342 1118 342 1118 339 1121 c 2,212,-1
 330 1122 l 2,213,214
 316 1122 316 1122 303 1118 c 0,215,216
 296 1118 296 1118 272.5 1109.5 c 128,-1,217
 249 1101 249 1101 242 1075 c 1,218,-1
 241 1065 l 2,219,220
 241 1059 241 1059 243 1054 c 1,200,201
197 950 m 1,221,222
 232 970 232 970 275 978 c 1,223,224
 309 989 309 989 333 989 c 2,225,-1
 345 988 l 1,226,227
 353 993 353 993 359.5 1002 c 128,-1,228
 366 1011 366 1011 367 1021 c 0,229,230
 366 1048 366 1048 343 1048 c 0,231,232
 333 1048 333 1048 308 1044 c 0,233,234
 271 1042 271 1042 247 1034 c 0,235,236
 244 1031 244 1031 240 1031 c 0,237,238
 222 1019 222 1019 205 995 c 0,239,240
 195 978 195 978 195 964 c 0,241,242
 195 957 195 957 197 950 c 1,221,222
339 912 m 1,243,244
 350 927 350 927 350 943 c 0,245,246
 350 949 350 949 347 955 c 0,247,248
 343 967 343 967 331 967 c 0,249,250
 318 967 318 967 279 957 c 2,251,-1
 270 955 l 2,252,253
 203 940 203 940 192 912 c 1,254,-1
 339 912 l 1,243,244
281 226 m 0,255,256
 271 226 271 226 268 237 c 2,257,-1
 262 275 l 2,258,259
 261 281 261 281 254 284 c 2,260,-1
 220 301 l 2,261,262
 212 305 212 305 212 312 c 0,263,264
 212 320 212 320 219 324 c 2,265,-1
 253 342 l 2,266,267
 259 345 259 345 260 352 c 2,268,-1
 265 390 l 2,269,270
 268 402 268 402 278 402 c 0,271,272
 283 402 283 402 287 398 c 2,273,-1
 315 371 l 2,274,275
 319 367 319 367 324 367 c 2,276,-1
 368 374 l 2,277,278
 374 374 374 374 377 370 c 128,-1,279
 380 366 380 366 380 362 c 0,280,281
 380 359 380 359 370 338.5 c 128,-1,282
 360 318 360 318 360 315 c 2,283,-1
 361 309 l 1,284,285
 382 272 382 272 382 269 c 0,286,287
 382 265 382 265 379 260.5 c 128,-1,288
 376 256 376 256 368 256 c 2,289,-1
 326 262 l 2,290,291
 321 262 321 262 317 258 c 2,292,-1
 291 230 l 2,293,294
 286 226 286 226 281 226 c 0,255,256
EndSplineSet
Validated: 1
EndChar

StartChar: K
Encoding: 75 75 46
Width: 635
GlyphClass: 2
Flags: W
LayerCount: 4
Fore
SplineSet
129 4 m 1,0,-1
 15 4 l 1,1,-1
 15 914 l 1,2,-1
 129 914 l 1,3,-1
 129 517 l 1,4,5
 217 520 217 520 285 580 c 128,-1,6
 353 640 353 640 434 814 c 1,7,8
 416 827 416 827 416 849 c 0,9,10
 416 865 416 865 428 878 c 1,11,12
 422 889 422 889 422 900 c 0,13,14
 422 918 422 918 435.5 941 c 128,-1,15
 449 964 449 964 468 977 c 1,16,17
 464 986 464 986 464 996 c 0,18,19
 464 1010 464 1010 472 1024 c 128,-1,20
 480 1038 480 1038 492 1047 c 1,21,22
 489 1055 489 1055 489 1063 c 0,23,24
 489 1088 489 1088 514 1110 c 1,25,-1
 513 1120 l 2,26,27
 513 1143 513 1143 535 1156 c 1,28,29
 540 1178 540 1178 546 1190 c 0,30,31
 546 1197 546 1197 554 1211 c 0,32,33
 558 1218 558 1218 569 1219 c 0,34,35
 593 1219 593 1219 593 1163 c 2,36,-1
 593 1155 l 1,37,38
 607 1148 607 1148 607 1133 c 0,39,40
 607 1123 607 1123 600 1112 c 1,41,42
 613 1098 613 1098 613 1079 c 0,43,44
 613 1064 613 1064 602 1053 c 1,45,46
 612 1044 612 1044 612 1024 c 0,47,48
 612 1008 612 1008 601 995 c 1,49,50
 620 983 620 983 620 959 c 0,51,52
 620 936 620 936 599 915 c 1,53,54
 607 903 607 903 607 889 c 0,55,56
 607 876 607 876 596 853 c 128,-1,57
 585 830 585 830 561 818 c 1,58,-1
 554 803 l 2,59,60
 475 625 475 625 397.5 534 c 128,-1,61
 320 443 320 443 218 417 c 1,62,63
 260 357 260 357 309 310.5 c 128,-1,64
 358 264 358 264 401 259 c 2,65,-1
 457 257 l 1,66,-1
 452 143 l 1,67,-1
 395 146 l 2,68,69
 312 154 312 154 243 217 c 128,-1,70
 174 280 174 280 129 347 c 1,71,-1
 129 4 l 1,0,-1
572 1162 m 1,72,73
 572 1176 572 1176 569 1190 c 1,74,75
 568 1188 568 1188 567 1185 c 128,-1,76
 566 1182 566 1182 565 1180 c 128,-1,77
 564 1178 564 1178 562.5 1173.5 c 128,-1,78
 561 1169 561 1169 559 1162 c 1,79,-1
 572 1162 l 1,72,73
578 1118 m 1,80,81
 585 1125 585 1125 585 1131 c 0,82,83
 585 1135 585 1135 578.5 1138 c 128,-1,84
 572 1141 572 1141 564 1141 c 0,85,86
 536 1140 536 1140 534 1122 c 1,87,88
 543 1125 543 1125 551 1125 c 0,89,90
 558 1124 558 1124 564.5 1121 c 128,-1,91
 571 1118 571 1118 578 1118 c 1,80,81
511 1056 m 0,92,93
 536 1065 536 1065 562 1066 c 0,94,95
 571 1066 571 1066 581 1064 c 1,96,97
 591 1070 591 1070 591 1083 c 0,98,99
 591 1091 591 1091 586 1097 c 1,100,-1
 581 1097 l 2,101,102
 571 1097 571 1097 560.5 1100 c 128,-1,103
 550 1103 550 1103 545 1103 c 0,104,105
 540 1102 540 1102 536.5 1098.5 c 128,-1,106
 533 1095 533 1095 529 1092 c 128,-1,107
 525 1089 525 1089 519 1083 c 0,108,109
 509 1071 509 1071 509 1063 c 0,110,111
 509 1059 509 1059 511 1056 c 0,92,93
487 986 m 1,112,113
 496 989 496 989 508 991 c 0,114,115
 516 992 516 992 527 995 c 0,116,117
 549 1000 549 1000 573 1001 c 1,118,119
 592 1009 592 1009 592 1025 c 0,120,121
 592 1037 592 1037 582 1041 c 1,122,-1
 580 1041 l 2,123,124
 575 1041 575 1041 573 1044 c 2,125,-1
 565 1045 l 2,126,127
 542 1045 542 1045 515 1035 c 0,128,129
 494 1027 494 1027 487 1004 c 0,130,131
 485 999 485 999 485 995 c 0,132,133
 485 990 485 990 487 986 c 1,112,113
445 892 m 1,134,135
 477 909 477 909 519 918 c 0,136,137
 553 926 553 926 566 926 c 2,138,-1
 579 925 l 1,139,140
 598 941 598 941 598 953 c 2,141,-1
 598 955 l 1,142,143
 592 977 592 977 566 977 c 0,144,145
 527 977 527 977 491 966 c 1,146,-1
 491 965 l 1,147,148
 471 955 471 955 454 931 c 0,149,150
 443 915 443 915 443 902 c 0,151,152
 443 897 443 897 445 892 c 1,134,135
442 833 m 1,153,-1
 444 836 l 1,154,-1
 462 876 l 1,155,-1
 461 876 l 1,156,157
 447 869 447 869 441 854 c 0,158,159
 439 849 439 849 439 844 c 0,160,161
 439 838 439 838 442 833 c 1,153,-1
574 857 m 1,162,163
 582 871 582 871 582 884 c 0,164,165
 582 904 582 904 565 904 c 0,166,167
 553 903 553 903 520 896 c 0,168,169
 516 894 516 894 510.5 893 c 128,-1,170
 505 892 505 892 499 890 c 1,171,-1
 574 857 l 1,162,163
343 974 m 0,172,173
 340 974 340 974 326.5 983.5 c 128,-1,174
 313 993 313 993 310 993 c 0,175,176
 309 993 309 993 295 988 c 128,-1,177
 281 983 281 983 279 983 c 0,178,179
 269 983 269 983 269 991 c 2,180,-1
 278 1023 l 1,181,-1
 277 1029 l 1,182,-1
 260 1050 l 2,183,184
 258 1053 258 1053 258 1056 c 0,185,186
 258 1063 258 1063 267 1065 c 2,187,-1
 294 1065 l 2,188,189
 299 1065 299 1065 302 1069 c 2,190,-1
 317 1091 l 2,191,192
 320 1095 320 1095 326 1095 c 0,193,194
 331 1094 331 1094 333 1089 c 2,195,-1
 341 1063 l 2,196,197
 343 1059 343 1059 347 1057 c 2,198,-1
 373 1050 l 2,199,200
 380 1047 380 1047 380 1041 c 0,201,202
 380 1037 380 1037 376 1034 c 2,203,-1
 354 1018 l 2,204,205
 351 1015 351 1015 351 1010 c 2,206,-1
 352 983 l 2,207,208
 350 974 350 974 343 974 c 0,172,173
578 1227 m 0,209,210
 577 1227 577 1227 567.5 1233.5 c 128,-1,211
 558 1240 558 1240 556 1240 c 2,212,-1
 533 1233 l 2,213,214
 531 1233 531 1233 529 1235 c 128,-1,215
 527 1237 527 1237 527 1240 c 2,216,-1
 533 1262 l 1,217,-1
 532 1266 l 1,218,219
 519 1283 519 1283 519 1285 c 0,220,221
 519 1291 519 1291 526 1291 c 2,222,-1
 545 1291 l 2,223,224
 548 1291 548 1291 550 1294 c 2,225,-1
 560 1310 l 2,226,227
 562 1312 562 1312 565 1312 c 0,228,229
 570 1312 570 1312 572 1308 c 2,230,-1
 578 1290 l 2,231,232
 579 1287 579 1287 582 1286 c 2,233,-1
 600 1281 l 2,234,235
 605 1279 605 1279 605 1274 c 0,236,237
 605 1271 605 1271 602 1269 c 0,238,239
 585 1256 585 1256 585 1254 c 2,240,-1
 585 1234 l 2,241,242
 585 1227 585 1227 578 1227 c 0,209,210
248 56 m 0,243,244
 246 56 246 56 233 62.5 c 128,-1,245
 220 69 220 69 218 69 c 256,246,247
 216 69 216 69 203 62.5 c 128,-1,248
 190 56 190 56 188 56 c 0,249,250
 179 56 179 56 179 66 c 2,251,-1
 183 92 l 2,252,253
 183 96 183 96 181 98 c 2,254,-1
 163 115 l 2,255,256
 160 118 160 118 160 121 c 0,257,258
 160 129 160 129 168 130 c 2,259,-1
 192 134 l 2,260,261
 197 134 197 134 199 138 c 2,262,-1
 210 161 l 2,263,264
 213 165 213 165 218 165 c 0,265,266
 222 165 222 165 225 161 c 2,267,-1
 236 138 l 2,268,269
 238 134 238 134 243 134 c 2,270,-1
 267 130 l 2,271,272
 275 129 275 129 275 121 c 0,273,274
 275 118 275 118 272 115 c 2,275,-1
 254 98 l 2,276,277
 252 96 252 96 252 92 c 2,278,-1
 256 64 l 2,279,280
 256 56 256 56 248 56 c 0,243,244
EndSplineSet
Validated: 1
EndChar

StartChar: L
Encoding: 76 76 47
Width: 609
GlyphClass: 2
Flags: W
LayerCount: 4
Fore
SplineSet
296 179 m 2,0,-1
 291 180 l 1,1,2
 267 197 267 197 264 197 c 2,3,-1
 234 187 l 2,4,5
 226 187 226 187 226 195 c 2,6,-1
 235 227 l 2,7,8
 235 230 235 230 217 252 c 0,9,10
 215 255 215 255 215 258 c 0,11,12
 215 266 215 266 224 266 c 2,13,-1
 250 266 l 2,14,15
 255 267 255 267 257 270 c 2,16,-1
 272 292 l 2,17,18
 274 295 274 295 278 295 c 0,19,20
 279 295 279 295 282 295 c 128,-1,21
 285 295 285 295 287 289 c 2,22,-1
 296 265 l 2,23,24
 297 261 297 261 301 259 c 2,25,-1
 326 252 l 2,26,27
 332 250 332 250 332 243 c 0,28,29
 332 239 332 239 329 236 c 2,30,-1
 308 221 l 2,31,32
 305 218 305 218 305 214 c 2,33,-1
 305 188 l 2,34,35
 305 179 305 179 296 179 c 2,0,-1
262 1076 m 0,36,37
 261 1076 261 1076 252 1082.5 c 128,-1,38
 243 1089 243 1089 241 1089 c 2,39,-1
 219 1082 l 2,40,41
 213 1082 213 1082 213 1088 c 2,42,-1
 218 1109 l 2,43,44
 218 1111 218 1111 206 1128 c 1,45,-1
 205 1131 l 2,46,47
 205 1137 205 1137 211 1138 c 2,48,-1
 229 1138 l 2,49,50
 233 1138 233 1138 235 1141 c 2,51,-1
 245 1156 l 2,52,53
 247 1158 247 1158 249 1158 c 0,54,55
 254 1158 254 1158 256 1154 c 2,56,-1
 262 1137 l 2,57,58
 263 1134 263 1134 266 1133 c 2,59,-1
 283 1128 l 2,60,61
 287 1126 287 1126 288 1123 c 0,62,63
 288 1119 288 1119 285 1117 c 2,64,-1
 271 1106 l 2,65,66
 268 1104 268 1104 268 1101 c 2,67,-1
 269 1082 l 2,68,69
 268 1076 268 1076 262 1076 c 0,36,37
594 4 m 1,70,-1
 118 4 l 1,71,-1
 61 61 l 1,72,-1
 60 897 l 1,73,74
 30 897 30 897 19 923 c 0,75,76
 15 931 15 931 15 939 c 0,77,78
 15 953 15 953 27 968 c 1,79,80
 22 977 22 977 22 988 c 0,81,82
 22 1006 22 1006 34.5 1028.5 c 128,-1,83
 47 1051 47 1051 66 1063 c 1,84,85
 62 1072 62 1072 62 1082 c 0,86,87
 62 1095 62 1095 69.5 1109 c 128,-1,88
 77 1123 77 1123 89 1130 c 1,89,90
 86 1138 86 1138 86 1146 c 0,91,92
 86 1170 86 1170 110 1191 c 1,93,-1
 109 1201 l 2,94,95
 109 1219 109 1219 124 1232 c 0,96,97
 128 1235 128 1235 131 1236 c 0,98,99
 134 1249 134 1249 139 1262 c 0,100,101
 142 1271 142 1271 142 1274 c 0,102,103
 145 1282 145 1282 149 1289 c 128,-1,104
 153 1296 153 1296 163 1297 c 0,105,106
 187 1297 187 1297 187 1244 c 2,107,-1
 187 1235 l 1,108,109
 191 1233 191 1233 194 1230 c 0,110,111
 201 1222 201 1222 201 1214 c 0,112,113
 201 1205 201 1205 194 1194 c 1,114,115
 206 1180 206 1180 206 1163 c 0,116,117
 206 1148 206 1148 196 1137 c 1,118,119
 206 1129 206 1129 206 1110 c 0,120,121
 206 1093 206 1093 195 1081 c 1,122,123
 214 1069 214 1069 214 1046 c 0,124,125
 214 1024 214 1024 193 1003 c 1,126,127
 202 992 202 992 202 978 c 0,128,129
 202 946 202 946 169 918 c 1,130,-1
 174 918 l 1,131,-1
 175 118 l 1,132,-1
 594 118 l 1,133,-1
 594 4 l 1,70,-1
166 1242 m 1,134,135
 166 1255 166 1255 164 1268 c 1,136,137
 160 1260 160 1260 160 1259.5 c 128,-1,138
 160 1259 160 1259 154 1242 c 1,139,-1
 166 1242 l 1,134,135
172 1200 m 0,140,141
 179 1206 179 1206 179 1212 c 0,142,143
 179 1216 179 1216 172.5 1218.5 c 128,-1,144
 166 1221 166 1221 159 1221 c 2,145,-1
 147 1220 l 2,146,147
 131 1215 131 1215 131 1204 c 1,148,149
 139 1206 139 1206 147 1206 c 0,150,151
 153 1205 153 1205 159.5 1202.5 c 128,-1,152
 166 1200 166 1200 172 1200 c 0,140,141
108 1140 m 0,153,154
 134 1149 134 1149 157 1149 c 0,155,156
 166 1149 166 1149 175 1147 c 1,157,158
 185 1154 185 1154 185 1166 c 0,159,160
 185 1173 185 1173 180 1178 c 1,161,-1
 176 1178 l 2,162,163
 166 1178 166 1178 156 1182 c 0,164,165
 154 1182 154 1182 151 1183 c 128,-1,166
 148 1184 148 1184 144 1184 c 0,167,168
 138 1184 138 1184 132 1180 c 0,169,170
 130 1177 130 1177 126 1175 c 0,171,172
 106 1159 106 1159 106 1147 c 0,173,174
 106 1143 106 1143 108 1140 c 0,153,154
85 1072 m 1,175,176
 94 1075 94 1075 103.5 1076.5 c 128,-1,177
 113 1078 113 1078 123 1080 c 0,178,179
 145 1086 145 1086 168 1087 c 1,180,181
 186 1096 186 1096 186 1110 c 0,182,183
 186 1121 186 1121 176 1125 c 1,184,-1
 174 1125 l 2,185,186
 170 1125 170 1125 168 1128 c 2,187,-1
 159 1129 l 2,188,189
 148 1129 148 1129 137 1125 c 1,190,-1
 135 1125 l 1,191,192
 105 1120 105 1120 92 1105 c 0,193,194
 88 1099 88 1099 85 1089 c 0,195,196
 83 1084 83 1084 83 1080 c 256,197,198
 83 1076 83 1076 85 1072 c 1,175,176
44 981 m 1,199,200
 75 998 75 998 109 1004 c 0,201,202
 113 1005 113 1005 115.5 1006 c 128,-1,203
 118 1007 118 1007 121 1007 c 0,204,205
 144 1015 144 1015 163 1015 c 2,206,-1
 173 1014 l 1,207,208
 191 1026 191 1026 191 1040 c 2,209,-1
 191 1042 l 1,210,211
 186 1063 186 1063 161 1063 c 0,212,213
 122 1063 122 1063 89 1052 c 1,214,-1
 88 1052 l 2,215,216
 86 1049 86 1049 83 1049 c 0,217,218
 67 1039 67 1039 53 1018 c 0,219,220
 42 1004 42 1004 42 991 c 0,221,222
 42 986 42 986 44 981 c 1,199,200
60 918 m 2,223,-1
 89 920 l 2,224,225
 120 921 120 921 148 928 c 0,226,227
 162 934 162 934 170 951 c 0,228,229
 176 963 176 963 176 974 c 0,230,231
 174 993 174 993 162 993 c 0,232,233
 153 993 153 993 108 982 c 0,234,235
 38 966 38 966 38 935 c 0,236,237
 38 931 38 931 41 924.5 c 128,-1,238
 44 918 44 918 60 918 c 2,223,-1
EndSplineSet
Validated: 1
EndChar

StartChar: M
Encoding: 77 77 48
Width: 1029
GlyphClass: 2
Flags: W
LayerCount: 4
Fore
SplineSet
208 936 m 0,0,1
 206 936 206 936 202 938 c 0,2,3
 176 956 176 956 173 956 c 0,4,5
 172 956 172 956 157.5 951 c 128,-1,6
 143 946 143 946 141 946 c 0,7,8
 131 946 131 946 131 954 c 2,9,-1
 141 989 l 2,10,11
 141 992 141 992 139 994 c 0,12,13
 119 1019 119 1019 119 1023 c 0,14,15
 119 1030 119 1030 129 1032 c 2,16,-1
 157 1032 l 2,17,18
 162 1032 162 1032 165 1036 c 2,19,-1
 181 1059 l 2,20,21
 184 1063 184 1063 188 1063 c 0,22,23
 196 1063 196 1063 198 1057 c 2,24,-1
 207 1030 l 2,25,26
 209 1025 209 1025 213 1024 c 2,27,-1
 240 1016 l 2,28,29
 247 1013 247 1013 247 1006 c 0,30,31
 247 1002 247 1002 243 999 c 2,32,-1
 221 982 l 2,33,34
 217 979 217 979 217 974 c 2,35,-1
 218 946 l 2,36,37
 216 936 216 936 208 936 c 0,0,1
531 1043 m 2,38,-1
 527 1044 l 1,39,40
 509 1057 509 1057 507 1057 c 2,41,-1
 484 1050 l 2,42,43
 477 1050 477 1050 477 1057 c 0,44,45
 477 1058 477 1058 480 1068 c 128,-1,46
 483 1078 483 1078 483 1080 c 256,47,48
 483 1082 483 1082 470 1099 c 0,49,50
 468 1101 468 1101 468 1104 c 0,51,52
 468 1110 468 1110 475 1110 c 2,53,-1
 495 1110 l 2,54,55
 499 1111 499 1111 501 1113 c 2,56,-1
 512 1130 l 2,57,58
 515 1133 515 1133 519 1133 c 0,59,60
 522 1132 522 1132 524 1128 c 2,61,-1
 530 1109 l 2,62,63
 531 1106 531 1106 535 1105 c 2,64,-1
 554 1099 l 2,65,66
 558 1098 558 1098 559 1094 c 0,67,68
 559 1090 559 1090 556 1087 c 2,69,-1
 540 1076 l 2,70,71
 537 1073 537 1073 537 1070 c 2,72,-1
 538 1050 l 2,73,74
 538 1043 538 1043 531 1043 c 2,38,-1
129 -5 m 1,75,-1
 15 1 l 1,76,-1
 19 914 l 1,77,-1
 132 914 l 1,78,-1
 131 614 l 1,79,80
 191 802 191 802 272 868 c 1,81,82
 263 880 263 880 263 893 c 2,83,-1
 263 903 l 2,84,85
 263 911 263 911 276 925 c 1,86,87
 270 935 270 935 270 947 c 0,88,89
 270 966 270 966 284 990.5 c 128,-1,90
 298 1015 298 1015 319 1029 c 1,91,92
 314 1040 314 1040 314 1051 c 0,93,94
 314 1064 314 1064 322.5 1079 c 128,-1,95
 331 1094 331 1094 344 1102 c 1,96,97
 340 1111 340 1111 340 1120 c 0,98,99
 340 1145 340 1145 366 1168 c 1,100,-1
 365 1178 l 2,101,102
 365 1205 365 1205 389 1217 c 1,103,104
 394 1242 394 1242 400 1253 c 0,105,106
 401 1255 401 1255 401 1258 c 0,107,108
 404 1267 404 1267 408.5 1274.5 c 128,-1,109
 413 1282 413 1282 423 1283 c 0,110,111
 442 1283 442 1283 445 1256 c 0,112,113
 448 1240 448 1240 448 1224 c 2,114,-1
 448 1216 l 1,115,-1
 456 1210 l 2,116,117
 463 1202 463 1202 463 1193 c 0,118,119
 463 1183 463 1183 456 1171 c 1,120,121
 469 1156 469 1156 469 1138 c 0,122,123
 469 1121 469 1121 457 1109 c 1,124,125
 469 1100 469 1100 469 1081 c 256,126,127
 469 1062 469 1062 456 1048 c 1,128,129
 477 1037 477 1037 477 1011 c 0,130,131
 477 986 477 986 454 964 c 1,132,133
 464 953 464 953 464 937 c 0,134,135
 464 914 464 914 444 887 c 1,136,137
 534 832 534 832 570 616 c 1,138,139
 637 804 637 804 754 805 c 0,140,141
 814 805 814 805 863 758 c 1,142,143
 935 679 935 679 967 526 c 128,-1,144
 999 373 999 373 1006.5 231 c 128,-1,145
 1014 89 1014 89 1014 61 c 2,146,-1
 1014 4 l 1,147,-1
 900 4 l 1,148,-1
 900 61 l 2,149,150
 900 162 900 162 888.5 288.5 c 128,-1,151
 877 415 877 415 851 523.5 c 128,-1,152
 825 632 825 632 783 677 c 0,153,154
 767 691 767 691 753 691 c 0,155,156
 732 691 732 691 696 622 c 128,-1,157
 660 553 660 553 626 364 c 1,158,159
 597 164 597 164 593 49 c 0,160,161
 591 3 591 3 590 -3 c 1,162,-1
 477 2 l 1,163,-1
 477 7 l 2,164,165
 477 21 477 21 480 71 c 0,166,167
 483 142 483 142 483 218 c 0,168,169
 483 281 483 281 479.5 388.5 c 128,-1,170
 476 496 476 496 455.5 615.5 c 128,-1,171
 435 735 435 735 394 782 c 0,172,173
 383 793 383 793 374 793 c 0,174,175
 338 793 338 793 291 707 c 0,176,177
 241 614 241 614 195 413 c 0,178,179
 160 251 160 251 144 127 c 0,180,181
 129 10 129 10 129 -4 c 2,182,-1
 129 -5 l 1,75,-1
427 1223 m 1,183,184
 427 1231 427 1231 426 1239 c 128,-1,185
 425 1247 425 1247 424 1256 c 1,186,187
 423 1252 423 1252 421.5 1248.5 c 128,-1,188
 420 1245 420 1245 419 1243 c 128,-1,189
 418 1241 418 1241 417 1237.5 c 128,-1,190
 416 1234 416 1234 414.5 1230.5 c 128,-1,191
 413 1227 413 1227 412 1223 c 1,192,-1
 427 1223 l 1,183,184
433 1177 m 1,193,194
 441 1185 441 1185 441 1191 c 0,195,196
 441 1196 441 1196 434 1199 c 128,-1,197
 427 1202 427 1202 418 1202 c 0,198,199
 416 1202 416 1202 413 1201.5 c 128,-1,200
 410 1201 410 1201 404.5 1200 c 128,-1,201
 399 1199 399 1199 395 1196 c 0,202,203
 387 1190 387 1190 387 1181 c 1,204,205
 396 1184 396 1184 405 1184 c 0,206,207
 412 1183 412 1183 418.5 1180 c 128,-1,208
 425 1177 425 1177 433 1177 c 1,193,194
362 1112 m 0,209,210
 389 1121 389 1121 417 1122 c 0,211,212
 426 1122 426 1122 436 1120 c 1,213,214
 447 1126 447 1126 447 1137 c 0,215,216
 447 1144 447 1144 443 1152 c 0,217,218
 443 1154 443 1154 442 1154.5 c 128,-1,219
 441 1155 441 1155 441 1156 c 1,220,221
 438 1156 438 1156 436 1155 c 0,222,223
 426 1155 426 1155 418.5 1158.5 c 128,-1,224
 411 1162 411 1162 404 1162 c 256,225,226
 397 1162 397 1162 387 1156 c 0,227,228
 385 1153 385 1153 382 1152 c 0,229,230
 370 1143 370 1143 364 1131 c 0,231,232
 360 1125 360 1125 360 1119 c 0,233,234
 360 1115 360 1115 362 1112 c 0,209,210
337 1038 m 1,235,236
 347 1042 347 1042 359 1043 c 0,237,238
 404 1053 404 1053 428 1054 c 1,239,240
 448 1062 448 1062 448 1079 c 0,241,242
 448 1093 448 1093 437 1097 c 1,243,-1
 435 1097 l 2,244,245
 430 1097 430 1097 428 1100 c 2,246,-1
 419 1101 l 1,247,-1
 394 1098 l 1,248,-1
 393 1097 l 1,249,250
 358 1092 358 1092 346.5 1076.5 c 128,-1,251
 335 1061 335 1061 335 1048 c 0,252,253
 335 1043 335 1043 337 1038 c 1,235,236
293 939 m 1,254,255
 327 957 327 957 364 964 c 0,256,257
 403 975 403 975 420 975 c 2,258,-1
 434 974 l 1,259,260
 454 988 454 988 454 1004 c 0,261,262
 453 1019 453 1019 438 1026 c 0,263,264
 429 1030 429 1030 421 1030 c 0,265,266
 377 1030 377 1030 342 1018 c 0,267,268
 340 1015 340 1015 336 1014 c 0,269,270
 318 1003 318 1003 302 980 c 0,271,272
 291 965 291 965 291 951 c 0,273,274
 291 945 291 945 293 939 c 1,254,255
288 881 m 1,275,276
 328 907 328 907 374 907 c 0,277,278
 401 907 401 907 425 897 c 1,279,280
 438 913 438 913 438 931 c 0,281,282
 438 937 438 937 436 942 c 0,283,284
 431 953 431 953 420 953 c 2,285,-1
 400 951 l 1,286,-1
 372 944 l 2,287,288
 337 937 337 937 306 922 c 0,289,290
 286 908 286 908 286 890 c 0,291,292
 286 885 286 885 288 881 c 1,275,276
747 325 m 0,293,294
 737 325 737 325 737 335 c 2,295,-1
 736 364 l 2,296,297
 735 369 735 369 731 372 c 2,298,-1
 706 388 l 2,299,300
 701 391 701 391 701 396 c 0,301,302
 701 404 701 404 708 406 c 2,303,-1
 736 417 l 2,304,305
 740 419 740 419 742 424 c 2,306,-1
 749 452 l 2,307,308
 752 460 752 460 759 460 c 0,309,310
 764 460 764 460 767 456 c 2,311,-1
 785 433 l 2,312,313
 789 429 789 429 794 429 c 2,314,-1
 824 431 l 2,315,316
 835 431 835 431 835 421 c 2,317,-1
 833 415 l 1,318,319
 814 387 814 387 814 385 c 2,320,-1
 827 349 l 2,321,322
 827 346 827 346 824 343 c 128,-1,323
 821 340 821 340 816 340 c 2,324,-1
 783 348 l 2,325,326
 779 348 779 348 776 346 c 0,327,328
 750 325 750 325 747 325 c 0,293,294
EndSplineSet
Validated: 1
EndChar

StartChar: N
Encoding: 78 78 49
Width: 707
GlyphClass: 2
Flags: W
LayerCount: 4
Fore
SplineSet
268 975 m 2,0,-1
 263 976 l 1,1,-1
 245 990 l 1,2,-1
 240 991 l 2,3,4
 238 991 238 991 226 987 c 128,-1,5
 214 983 214 983 213 983 c 0,6,7
 205 983 205 983 205 991 c 2,8,-1
 213 1018 l 2,9,10
 213 1020 213 1020 197 1040 c 0,11,12
 195 1043 195 1043 195 1046 c 0,13,14
 195 1053 195 1053 203 1053 c 2,15,-1
 226 1053 l 2,16,17
 230 1053 230 1053 233 1057 c 2,18,-1
 246 1076 l 2,19,20
 248 1079 248 1079 251 1079 c 0,21,22
 257 1079 257 1079 260 1074 c 2,23,-1
 267 1052 l 2,24,25
 268 1048 268 1048 272 1047 c 2,26,-1
 295 1040 l 2,27,28
 300 1038 300 1038 300 1032 c 0,29,30
 300 1029 300 1029 297 1026 c 2,31,-1
 278 1013 l 2,32,33
 275 1010 275 1010 275 1006 c 2,34,-1
 276 983 l 2,35,36
 276 975 276 975 268 975 c 2,0,-1
467 583 m 0,37,38
 463 583 463 583 442 599 c 1,39,-1
 437 600 l 2,40,41
 435 600 435 600 422.5 595.5 c 128,-1,42
 410 591 410 591 408 591 c 256,43,44
 406 591 406 591 403.5 593.5 c 128,-1,45
 401 596 401 596 401 600 c 2,46,-1
 409 627 l 2,47,48
 409 630 409 630 400 641.5 c 128,-1,49
 391 653 391 653 391 656 c 0,50,51
 391 664 391 664 399 664 c 2,52,-1
 423 664 l 2,53,54
 427 664 427 664 430 668 c 2,55,-1
 443 687 l 2,56,57
 446 691 446 691 449 691 c 0,58,59
 456 691 456 691 458 685 c 2,60,-1
 465 663 l 2,61,62
 467 659 467 659 471 657 c 2,63,-1
 494 651 l 2,64,65
 499 648 499 648 499 642 c 0,66,67
 499 639 499 639 496 636 c 2,68,-1
 477 622 l 2,69,70
 473 620 473 620 473 615 c 2,71,-1
 474 592 l 2,72,73
 474 583 474 583 467 583 c 0,37,38
670 5 m 1,74,-1
 557 19 l 1,75,-1
 564 75 l 2,76,77
 565 81 565 81 573 185 c 0,78,79
 579 261 579 261 579 355 c 0,80,81
 574 749 574 749 460 796 c 0,82,83
 455 798 455 798 448 798 c 256,84,85
 441 798 441 798 430 792 c 0,86,87
 369 751 369 751 309.5 615.5 c 128,-1,88
 250 480 250 480 202 311.5 c 128,-1,89
 154 143 154 143 127 5 c 1,90,-1
 15 16 l 1,91,-1
 16 929 l 1,92,-1
 130 928 l 1,93,-1
 129 461 l 1,94,95
 254 844 254 844 393 900 c 0,96,97
 396 905 396 905 400 909 c 1,98,99
 395 918 395 918 395 928 c 0,100,101
 395 945 395 945 406.5 964 c 128,-1,102
 418 983 418 983 435 995 c 1,103,104
 432 1003 432 1003 432 1011 c 0,105,106
 432 1023 432 1023 438.5 1035.5 c 128,-1,107
 445 1048 445 1048 455 1055 c 1,108,109
 453 1061 453 1061 453 1067 c 0,110,111
 453 1090 453 1090 474 1109 c 1,112,-1
 473 1117 l 2,113,114
 473 1138 473 1138 493 1150 c 1,115,116
 498 1167 498 1167 503 1185 c 128,-1,117
 508 1203 508 1203 523 1205 c 0,118,119
 534 1205 534 1205 538 1198 c 0,120,121
 546 1183 546 1183 546 1149 c 0,122,123
 549 1147 549 1147 551 1144 c 0,124,125
 558 1137 558 1137 558 1128 c 0,126,127
 557 1119 557 1119 552 1111 c 1,128,129
 563 1098 563 1098 563 1083 c 0,130,131
 563 1070 563 1070 554 1060 c 1,132,133
 563 1051 563 1051 563 1038 c 0,134,135
 563 1022 563 1022 553 1010 c 1,136,137
 560 1006 560 1006 564.5 997 c 128,-1,138
 569 988 569 988 569 978 c 0,139,140
 569 958 569 958 551 940 c 1,141,142
 558 931 558 931 558 920 c 0,143,144
 558 916 558 916 556.5 905.5 c 128,-1,145
 555 895 555 895 544 880 c 1,146,147
 678 787 678 787 691 432 c 1,148,-1
 692 339 l 2,149,150
 692 250 692 250 685.5 161 c 128,-1,151
 679 72 679 72 677 61 c 2,152,-1
 670 5 l 1,74,-1
526 891 m 1,153,154
 533 902 533 902 534 913 c 0,155,156
 534 918 534 918 531 924 c 128,-1,157
 528 930 528 930 520 930 c 0,158,159
 515 930 515 930 511.5 929 c 128,-1,160
 508 928 508 928 505 928 c 0,161,162
 479 924 479 924 444 912 c 1,163,-1
 449 912 l 2,164,165
 489 912 489 912 526 891 c 1,153,154
525 1155 m 1,166,-1
 523 1173 l 1,167,-1
 517 1156 l 1,168,-1
 525 1155 l 1,166,-1
530 1118 m 0,169,170
 536 1123 536 1123 536 1127 c 0,171,172
 536 1130 536 1130 531 1132 c 128,-1,173
 526 1134 526 1134 520 1134 c 256,174,175
 514 1134 514 1134 512 1133.5 c 128,-1,176
 510 1133 510 1133 509 1133 c 0,177,178
 497 1130 497 1130 495 1122 c 1,179,-1
 504 1123 l 2,180,181
 512 1123 512 1123 518.5 1120.5 c 128,-1,182
 525 1118 525 1118 530 1118 c 0,169,170
474 1064 m 1,183,184
 494 1072 494 1072 516 1072 c 2,185,-1
 533 1071 l 1,186,187
 542 1076 542 1076 542 1086 c 0,188,189
 542 1092 542 1092 537 1096 c 1,190,191
 526 1096 526 1096 515 1100 c 2,192,-1
 506 1101 l 2,193,194
 500 1101 500 1101 497 1098 c 128,-1,195
 494 1095 494 1095 490 1094 c 2,196,-1
 482 1085 l 2,197,198
 473 1076 473 1076 473 1068 c 2,199,-1
 474 1064 l 1,183,184
453 1004 m 1,200,-1
 487 1011 l 2,201,202
 506 1015 506 1015 527 1016 c 1,203,204
 542 1024 542 1024 542 1036 c 0,205,206
 542 1045 542 1045 535.5 1046.5 c 128,-1,207
 529 1048 529 1048 526 1051 c 0,208,209
 501 1051 501 1051 498 1048 c 0,210,211
 470 1042 470 1042 460 1031 c 0,212,213
 452 1018 452 1018 452 1009 c 2,214,-1
 453 1004 l 1,200,-1
417 923 m 1,215,216
 445 937 445 937 474 943 c 0,217,218
 480 945 480 945 485 945 c 0,219,220
 508 952 508 952 520 952 c 2,221,-1
 531 951 l 1,222,223
 537 955 537 955 542 961.5 c 128,-1,224
 547 968 547 968 547 973 c 2,225,-1
 547 975 l 1,226,227
 543 993 543 993 522 993 c 2,228,-1
 499 991 l 2,229,230
 477 990 477 990 457 983 c 1,231,-1
 456 983 l 1,232,-1
 452 980 l 2,233,234
 438 972 438 972 427 956.5 c 128,-1,235
 416 941 416 941 416 930 c 2,236,-1
 417 923 l 1,215,216
EndSplineSet
Validated: 1
EndChar

StartChar: O
Encoding: 79 79 50
Width: 695
GlyphClass: 2
Flags: W
LayerCount: 4
Fore
SplineSet
222 971 m 0,0,1
 218 971 218 971 215 973 c 0,2,3
 188 992 188 992 185 992 c 2,4,-1
 150 981 l 2,5,6
 147 981 147 981 144 984 c 128,-1,7
 141 987 141 987 141 991 c 0,8,9
 141 992 141 992 145.5 1007.5 c 128,-1,10
 150 1023 150 1023 150 1025 c 0,11,12
 150 1028 150 1028 148 1032 c 2,13,-1
 130 1055 l 2,14,15
 128 1058 128 1058 128 1061 c 0,16,17
 128 1071 128 1071 138 1071 c 2,18,-1
 168 1071 l 2,19,20
 173 1071 173 1071 176 1076 c 2,21,-1
 193 1100 l 2,22,23
 197 1104 197 1104 201 1104 c 2,24,-1
 205 1104 l 2,25,26
 208 1104 208 1104 211 1098 c 2,27,-1
 220 1070 l 2,28,29
 222 1065 222 1065 227 1063 c 2,30,-1
 255 1055 l 2,31,32
 262 1053 262 1053 262 1045 c 0,33,34
 262 1040 262 1040 258 1037 c 2,35,-1
 234 1020 l 2,36,37
 230 1016 230 1016 230 1011 c 2,38,-1
 231 982 l 2,39,40
 231 971 231 971 222 971 c 0,0,1
423 455 m 0,41,42
 419 455 419 455 415 458 c 2,43,-1
 386 479 l 2,44,45
 383 481 383 481 380 481 c 0,46,47
 378 481 378 481 358.5 474 c 128,-1,48
 339 467 339 467 337 467 c 0,49,50
 332 467 332 467 328.5 471 c 128,-1,51
 325 475 325 475 325 479 c 2,52,-1
 337 522 l 2,53,54
 337 526 337 526 334 529 c 2,55,-1
 312 557 l 2,56,57
 309 561 309 561 309 564 c 0,58,59
 309 577 309 577 321 577 c 2,60,-1
 357 577 l 2,61,62
 364 578 364 578 368 583 c 2,63,-1
 388 612 l 2,64,65
 393 618 393 618 398 618 c 0,66,67
 399 618 399 618 403 617.5 c 128,-1,68
 407 617 407 617 410 609 c 2,69,-1
 421 575 l 2,70,71
 423 569 423 569 429 567 c 2,72,-1
 464 557 l 2,73,74
 473 555 473 555 473 545 c 0,75,76
 473 540 473 540 468 535 c 2,77,-1
 439 514 l 2,78,79
 434 510 434 510 434 504 c 2,80,-1
 435 468 l 2,81,82
 434 455 434 455 423 455 c 0,41,42
356 10 m 0,83,84
 290 10 290 10 227 46 c 0,85,86
 113 117 113 117 59 250 c 0,87,88
 15 359 15 359 15 459 c 0,89,90
 15 585 15 585 85 719 c 0,91,92
 141 828 141 828 240 882 c 0,93,94
 261 892 261 892 289 900 c 1,95,96
 279 912 279 912 279 929 c 256,97,98
 279 946 279 946 293 960 c 1,99,100
 286 971 286 971 286 983 c 0,101,102
 286 1003 286 1003 299 1024 c 0,103,104
 314 1052 314 1052 338 1068 c 1,105,106
 333 1079 333 1079 333 1091 c 0,107,108
 333 1105 333 1105 341.5 1120.5 c 128,-1,109
 350 1136 350 1136 364 1145 c 1,110,111
 359 1154 359 1154 359 1164 c 0,112,113
 359 1190 359 1190 388 1214 c 1,114,-1
 387 1226 l 2,115,116
 387 1253 387 1253 411 1265 c 1,117,118
 414 1280 414 1280 420 1294 c 0,119,120
 428 1332 428 1332 447 1334 c 0,121,122
 473 1334 473 1334 473 1276 c 1,123,-1
 472 1264 l 1,124,125
 477 1262 477 1262 480 1258 c 0,126,127
 488 1250 488 1250 488 1240 c 0,128,129
 488 1228 488 1228 480 1218 c 1,130,131
 495 1202 495 1202 495 1182 c 0,132,133
 495 1165 495 1165 482 1153 c 1,134,135
 494 1142 494 1142 494 1123 c 0,136,137
 494 1103 494 1103 480 1088 c 1,138,139
 491 1083 491 1083 497 1072 c 128,-1,140
 503 1061 503 1061 503 1050 c 0,141,142
 503 1023 503 1023 478 1000 c 1,143,144
 489 989 489 989 489 973 c 0,145,146
 489 967 489 967 485 951.5 c 128,-1,147
 481 936 481 936 465 916.5 c 128,-1,148
 449 897 449 897 430 892 c 1,149,150
 460 882 460 882 493 863 c 0,151,152
 596 795 596 795 640 667 c 0,153,154
 680 553 680 553 680 439 c 2,155,-1
 679 408 l 1,156,157
 667 177 667 177 538 76 c 1,158,159
 447 10 447 10 356 10 c 0,83,84
452 1271 m 1,160,161
 452 1289 452 1289 448 1307 c 2,162,-1
 447 1310 l 1,163,-1
 434 1271 l 1,164,-1
 440 1272 l 1,165,-1
 452 1271 l 1,160,161
457 1223 m 1,166,167
 466 1232 466 1232 467 1238 c 0,168,169
 467 1244 467 1244 458.5 1247 c 128,-1,170
 450 1250 450 1250 442 1250 c 0,171,172
 433 1250 433 1250 427 1249 c 0,173,174
 408 1243 408 1243 408 1229 c 2,175,-1
 408 1227 l 1,176,177
 416 1230 416 1230 425 1230 c 0,178,179
 441 1228 441 1228 452 1223 c 1,180,-1
 457 1223 l 1,166,167
383 1155 m 1,181,182
 414 1165 414 1165 441 1165 c 0,183,184
 450 1165 450 1165 460 1163 c 1,185,186
 473 1170 473 1170 473 1183 c 0,187,188
 473 1192 473 1192 465 1202 c 1,189,-1
 460 1201 l 2,190,191
 449 1201 449 1201 441.5 1204.5 c 128,-1,192
 434 1208 434 1208 426 1208 c 0,193,194
 419 1208 419 1208 409 1202 c 0,195,196
 407 1199 407 1199 403 1198 c 0,197,198
 380 1179 380 1179 380 1163 c 0,199,200
 380 1159 380 1159 383 1155 c 1,181,182
356 1077 m 1,201,202
 366 1081 366 1081 376 1082.5 c 128,-1,203
 386 1084 386 1084 397 1087 c 0,204,205
 424 1093 424 1093 452 1094 c 1,206,207
 473 1105 473 1105 473 1120 c 0,208,209
 473 1136 473 1136 461 1141 c 1,210,-1
 459 1141 l 2,211,212
 455 1141 455 1141 452 1144 c 2,213,-1
 443 1145 l 2,214,215
 419 1145 419 1145 387 1133 c 0,216,217
 364 1125 364 1125 355 1098 c 0,218,219
 353 1093 353 1093 353 1088 c 0,220,221
 353 1082 353 1082 356 1077 c 1,201,202
310 973 m 1,222,223
 345 993 345 993 385 1000 c 1,224,225
 426 1012 426 1012 447 1012 c 2,226,-1
 458 1011 l 1,227,228
 466 1016 466 1016 473 1025 c 128,-1,229
 480 1034 480 1034 480 1044 c 0,230,231
 478 1071 478 1071 457 1071 c 0,232,233
 442 1071 442 1071 431.5 1069 c 128,-1,234
 421 1067 421 1067 411 1066 c 0,235,236
 384 1065 384 1065 361 1057 c 0,237,238
 358 1054 358 1054 354 1054 c 0,239,240
 335 1042 335 1042 319 1017 c 0,241,242
 308 1001 308 1001 308 986 c 0,243,244
 308 979 308 979 310 973 c 1,222,223
314 904 m 1,245,246
 330 907 330 907 347 907 c 0,247,248
 361 907 361 907 375 905 c 0,249,250
 403 907 403 907 429 913 c 0,251,252
 446 920 446 920 456 940 c 0,253,254
 462 953 462 953 462 964 c 0,255,256
 462 971 462 971 460 977 c 0,257,258
 455 990 455 990 445 990 c 0,259,260
 431 990 431 990 392 980 c 2,261,-1
 383 978 l 2,262,263
 307 961 307 961 302 923 c 0,264,265
 302 911 302 911 314 904 c 1,245,246
357 124 m 0,266,267
 411 124 411 124 470 167 c 0,268,269
 556 236 556 236 566 413 c 1,270,-1
 566 431 l 2,271,272
 566 539 566 539 531.5 632 c 128,-1,273
 497 725 497 725 434 765 c 0,274,275
 388 793 388 793 347 793 c 0,276,277
 318 793 318 793 291 780 c 0,278,279
 224 743 224 743 182 659 c 0,280,281
 129 554 129 554 129 456 c 0,282,283
 129 372 129 372 169 281 c 128,-1,284
 209 190 209 190 284 144 c 0,285,286
 320 124 320 124 357 124 c 0,266,267
EndSplineSet
Validated: 1
EndChar

StartChar: P
Encoding: 80 80 51
Width: 562
GlyphClass: 2
Flags: W
LayerCount: 4
Fore
SplineSet
300 527 m 0,0,1
 297 527 297 527 294 529 c 2,2,-1
 271 546 l 1,3,-1
 265 547 l 2,4,5
 263 547 263 547 248 541.5 c 128,-1,6
 233 536 233 536 231 536 c 0,7,8
 228 536 228 536 225 539 c 128,-1,9
 222 542 222 542 222 547 c 2,10,-1
 231 578 l 2,11,12
 231 582 231 582 229 585 c 0,13,14
 210 611 210 611 210 614 c 0,15,16
 210 623 210 623 222 623.5 c 128,-1,17
 234 624 234 624 248 624 c 0,18,19
 253 624 253 624 256 628 c 2,20,-1
 272 651 l 2,21,22
 275 655 275 655 279 655 c 2,23,-1
 284 655 l 2,24,25
 287 655 287 655 289 649 c 2,26,-1
 298 622 l 2,27,28
 300 617 300 617 305 616 c 2,29,-1
 332 608 l 2,30,31
 339 606 339 606 339 598 c 0,32,33
 339 594 339 594 335 591 c 2,34,-1
 312 574 l 2,35,36
 308 571 308 571 308 566 c 2,37,-1
 309 537 l 2,38,39
 309 527 309 527 300 527 c 0,0,1
197 1162 m 0,40,41
 196 1162 196 1162 187.5 1168 c 128,-1,42
 179 1174 179 1174 177 1174 c 2,43,-1
 157 1168 l 2,44,45
 152 1168 152 1168 152 1174 c 2,46,-1
 157 1194 l 2,47,48
 157 1196 157 1196 156 1197 c 0,49,50
 144 1212 144 1212 144 1214 c 0,51,52
 144 1220 144 1220 150 1220 c 2,53,-1
 167 1220 l 2,54,55
 170 1220 170 1220 172 1223 c 2,56,-1
 181 1237 l 2,57,58
 183 1239 183 1239 186 1239 c 0,59,60
 190 1239 190 1239 192.5 1233 c 128,-1,61
 195 1227 195 1227 197 1219 c 0,62,63
 198 1216 198 1216 201 1215 c 2,64,-1
 217 1210 l 2,65,66
 221 1209 221 1209 221 1205 c 0,67,68
 221 1202 221 1202 219 1200 c 2,69,-1
 205 1190 l 2,70,71
 203 1188 203 1188 203 1185 c 2,72,-1
 203 1168 l 2,73,74
 203 1162 203 1162 197 1162 c 0,40,41
129 4 m 1,75,-1
 15 4 l 1,76,-1
 15 857 l 1,77,-1
 70 914 l 1,78,-1
 87 915 l 2,79,80
 116 915 116 915 178 911 c 1,81,82
 180 915 180 915 184 919 c 1,83,84
 179 928 179 928 179 938 c 0,85,86
 179 956 179 956 191 976 c 128,-1,87
 203 996 203 996 220 1008 c 1,88,89
 217 1016 217 1016 217 1025 c 0,90,91
 217 1053 217 1053 242 1071 c 1,92,93
 239 1078 239 1078 239 1085 c 0,94,95
 239 1109 239 1109 262 1127 c 1,96,-1
 261 1137 l 2,97,98
 261 1159 261 1159 281 1169 c 1,99,100
 294 1212 294 1212 298 1218.5 c 128,-1,101
 302 1225 302 1225 312 1226 c 0,102,103
 335 1226 335 1226 335 1175 c 2,104,-1
 335 1168 l 1,105,106
 347 1160 347 1160 347 1148 c 2,107,-1
 347 1143 l 2,108,109
 347 1138 347 1138 341 1129 c 1,110,111
 352 1118 352 1118 352 1100 c 0,112,113
 352 1086 352 1086 343 1076 c 1,114,115
 352 1069 352 1069 352 1051 c 0,116,117
 352 1036 352 1036 342 1024 c 1,118,119
 350 1020 350 1020 354.5 1011 c 128,-1,120
 359 1002 359 1002 359 993 c 0,121,122
 359 971 359 971 340 952 c 1,123,124
 348 942 348 942 348 929 c 0,125,126
 348 909 348 909 331 886 c 1,127,128
 433 861 433 861 499 793 c 0,129,130
 547 738 547 738 547 666 c 0,131,132
 547 648 547 648 544 629 c 0,133,134
 525 526 525 526 468.5 463 c 128,-1,135
 412 400 412 400 345 367 c 128,-1,136
 278 334 278 334 227.5 322 c 128,-1,137
 177 310 177 310 170 310 c 2,138,-1
 129 305 l 1,139,-1
 129 4 l 1,75,-1
309 891 m 1,140,141
 323 907 323 907 323 924 c 0,142,143
 323 929 323 929 322 933 c 0,144,145
 318 941 318 941 314.5 941 c 128,-1,146
 311 941 311 941 309 941 c 0,147,148
 293 941 293 941 268 933 c 0,149,150
 264 933 264 933 261 932 c 0,151,152
 224 924 224 924 205 909 c 1,153,154
 255 904 255 904 309 891 c 1,140,141
314 1175 m 1,155,-1
 312 1195 l 1,156,-1
 304 1175 l 1,157,-1
 314 1175 l 1,155,-1
320 1135 m 0,158,159
 326 1143 326 1143 326 1145 c 0,160,161
 326 1148 326 1148 320 1151 c 128,-1,162
 314 1154 314 1154 307 1154 c 0,163,164
 306 1154 306 1154 303.5 1153.5 c 128,-1,165
 301 1153 301 1153 296.5 1152 c 128,-1,166
 292 1151 292 1151 287.5 1148 c 128,-1,167
 283 1145 283 1145 282 1139 c 1,168,169
 287 1141 287 1141 293 1141 c 0,170,171
 302 1141 302 1141 307 1139 c 128,-1,172
 312 1137 312 1137 317 1136 c 0,173,174
 318 1135 318 1135 320 1135 c 0,158,159
260 1080 m 1,175,176
 281 1088 281 1088 304 1088 c 2,177,-1
 322 1087 l 1,178,179
 331 1092 331 1092 331 1101 c 0,180,181
 331 1108 331 1108 326 1114 c 1,182,-1
 322 1114 l 2,183,184
 313 1114 313 1114 304 1118 c 2,185,-1
 294 1119 l 2,186,187
 287 1119 287 1119 284 1116 c 128,-1,188
 281 1113 281 1113 277 1110.5 c 128,-1,189
 273 1108 273 1108 268 1103 c 0,190,191
 259 1093 259 1093 259 1084 c 2,192,-1
 260 1080 l 1,175,176
239 1017 m 1,193,194
 247 1020 247 1020 257 1021 c 0,195,196
 288 1029 288 1029 315 1030 c 1,197,198
 332 1038 332 1038 332 1051 c 0,199,200
 332 1061 332 1061 323 1064 c 0,201,202
 318 1064 318 1064 315 1067 c 0,203,204
 286 1067 286 1067 286 1064 c 2,205,-1
 264 1059 l 2,206,207
 243 1052 243 1052 238 1024 c 1,208,-1
 239 1017 l 1,193,194
201 933 m 1,209,210
 230 948 230 948 267 956 c 0,211,212
 294 963 294 963 309 963 c 2,213,-1
 320 962 l 1,214,215
 326 966 326 966 331.5 973 c 128,-1,216
 337 980 337 980 337 986 c 2,217,-1
 337 988 l 1,218,219
 331 1007 331 1007 311 1007 c 0,220,221
 275 1007 275 1007 243 997 c 0,222,223
 243 996 243 996 241.5 995 c 128,-1,224
 240 994 240 994 237 994 c 0,225,226
 223 985 223 985 210 966 c 0,227,228
 200 952 200 952 200 940 c 2,229,-1
 201 933 l 1,209,210
129 420 m 1,230,-1
 156 423 l 2,231,232
 161 423 161 423 198.5 432 c 128,-1,233
 236 441 236 441 285.5 464.5 c 128,-1,234
 335 488 335 488 376.5 532 c 128,-1,235
 418 576 418 576 432 647 c 0,236,237
 434 656 434 656 434 665 c 0,238,239
 434 695 434 695 414 717 c 0,240,241
 373 759 373 759 290.5 778.5 c 128,-1,242
 208 798 208 798 129 800 c 1,243,-1
 129 420 l 1,230,-1
EndSplineSet
Validated: 1
EndChar

StartChar: Q
Encoding: 81 81 52
Width: 692
GlyphClass: 2
Flags: W
LayerCount: 4
Fore
SplineSet
342 433 m 0,0,1
 338 433 338 433 334 435 c 2,2,-1
 304 457 l 2,3,4
 301 459 301 459 297 459 c 2,5,-1
 253 445 l 2,6,7
 248 445 248 445 244 449 c 128,-1,8
 240 453 240 453 240 458 c 2,9,-1
 253 501 l 2,10,11
 253 505 253 505 250 509 c 2,12,-1
 227 538 l 2,13,14
 225 542 225 542 225 546 c 0,15,16
 225 557 225 557 237 559 c 2,17,-1
 275 559 l 2,18,19
 281 559 281 559 285 564 c 2,20,-1
 306 595 l 2,21,22
 310 601 310 601 316 601 c 0,23,24
 317 601 317 601 321.5 600.5 c 128,-1,25
 326 600 326 600 329 592 c 2,26,-1
 340 557 l 2,27,28
 343 551 343 551 349 549 c 2,29,-1
 385 538 l 2,30,31
 394 534 394 534 394 526 c 0,32,33
 394 520 394 520 389 516 c 2,34,-1
 359 494 l 2,35,36
 353 490 353 490 353 483 c 2,37,-1
 354 446 l 2,38,39
 354 433 354 433 342 433 c 0,0,1
258 1230 m 0,40,41
 255 1230 255 1230 252 1232 c 0,42,43
 228 1249 228 1249 225 1249 c 2,44,-1
 194 1239 l 2,45,46
 186 1239 186 1239 186 1248 c 2,47,-1
 194 1279 l 1,48,-1
 193 1284 l 1,49,50
 175 1308 175 1308 175 1310 c 0,51,52
 175 1319 175 1319 186 1319.5 c 128,-1,53
 197 1320 197 1320 210 1320 c 0,54,55
 215 1320 215 1320 217 1324 c 2,56,-1
 232 1345 l 2,57,58
 235 1349 235 1349 239 1349 c 0,59,60
 246 1349 246 1349 248 1343 c 2,61,-1
 256 1318 l 2,62,63
 258 1314 258 1314 262 1312 c 2,64,-1
 288 1305 l 2,65,66
 294 1302 294 1302 294 1296 c 0,67,68
 294 1292 294 1292 291 1289 c 2,69,-1
 269 1273 l 2,70,71
 266 1271 266 1271 266 1266 c 2,72,-1
 266 1240 l 2,73,74
 266 1230 266 1230 258 1230 c 0,40,41
358 57 m 0,75,76
 266 57 266 57 183.5 113 c 128,-1,77
 101 169 101 169 56 264 c 0,78,79
 15 358 15 358 15 493 c 0,80,81
 15 496 15 496 16 567.5 c 128,-1,82
 17 639 17 639 78 758 c 0,83,84
 129 849 129 849 210 887 c 1,85,-1
 209 895 l 2,86,87
 209 914 209 914 224 931 c 1,88,89
 217 942 217 942 217 956 c 0,90,91
 217 975 217 975 228 996 c 0,92,93
 244 1029 244 1029 272 1048 c 1,94,95
 267 1057 267 1057 267 1068 c 0,96,97
 267 1085 267 1085 276 1103 c 128,-1,98
 285 1121 285 1121 301 1131 c 1,99,100
 295 1140 295 1140 295 1151 c 0,101,102
 295 1180 295 1180 326 1205 c 1,103,104
 324 1212 324 1212 324 1218 c 0,105,106
 324 1240 324 1240 342 1255 c 0,107,108
 346 1258 346 1258 351 1260 c 1,109,110
 354 1276 354 1276 360 1292 c 0,111,112
 362 1296 362 1296 365 1306.5 c 128,-1,113
 368 1317 368 1317 372.5 1325 c 128,-1,114
 377 1333 377 1333 389 1334 c 0,115,116
 402 1334 402 1334 406.5 1325 c 128,-1,117
 411 1316 411 1316 412 1304 c 0,118,119
 416 1286 416 1286 416 1267 c 2,120,-1
 416 1259 l 1,121,122
 433 1249 433 1249 433 1233 c 0,123,124
 433 1223 433 1223 424 1209 c 1,125,126
 439 1194 439 1194 439 1172 c 0,127,128
 439 1153 439 1153 425 1139 c 1,129,130
 439 1129 439 1129 439 1107 c 0,131,132
 439 1086 439 1086 424 1070 c 1,133,134
 438 1063 438 1063 444 1048 c 0,135,136
 448 1037 448 1037 448 1027 c 0,137,138
 448 999 448 999 422 974 c 1,139,-1
 425 972 l 1,140,141
 432 962 432 962 432 949 c 0,142,143
 432 928 432 928 417 898 c 0,144,145
 416 897 416 897 416 896.5 c 128,-1,146
 416 896 416 896 415 896 c 1,147,148
 521 861 521 861 592 765 c 1,149,150
 677 640 677 640 677 476 c 1,151,-1
 676 445 l 2,152,153
 671 321 671 321 606.5 209 c 128,-1,154
 542 97 542 97 414 63 c 0,155,156
 386 57 386 57 358 57 c 0,75,76
395 1266 m 1,157,158
 395 1281 395 1281 390 1312 c 1,159,160
 386 1307 386 1307 384.5 1298.5 c 128,-1,161
 383 1290 383 1290 380 1283 c 128,-1,162
 377 1276 377 1276 374 1266 c 1,163,-1
 381 1267 l 1,164,-1
 395 1266 l 1,157,158
401 1214 m 1,165,166
 411 1226 411 1226 411 1231 c 0,167,168
 411 1238 411 1238 402 1241.5 c 128,-1,169
 393 1245 393 1245 384 1245 c 0,170,171
 346 1244 346 1244 346 1220 c 2,172,-1
 346 1218 l 1,173,174
 355 1222 355 1222 364 1222 c 0,175,176
 375 1222 375 1222 385 1218 c 128,-1,177
 395 1214 395 1214 401 1214 c 1,165,166
320 1140 m 1,178,179
 354 1152 354 1152 381 1152 c 0,180,181
 392 1152 392 1152 403 1150 c 1,182,183
 418 1158 418 1158 418 1172 c 0,184,185
 418 1179 418 1179 413 1189 c 0,186,187
 410 1193 410 1193 405 1193 c 0,188,189
 402 1192 402 1192 397 1192 c 0,190,191
 389 1194 389 1194 382 1197 c 128,-1,192
 375 1200 375 1200 367 1200 c 256,193,194
 359 1200 359 1200 348 1193 c 0,195,196
 345 1190 345 1190 341 1188 c 0,197,198
 327 1178 327 1178 320 1164 c 0,199,200
 316 1157 316 1157 316 1151 c 256,201,202
 316 1145 316 1145 320 1140 c 1,178,179
291 1057 m 1,203,204
 301 1061 301 1061 313 1063 c 0,205,206
 378 1074 378 1074 395 1075 c 1,207,208
 406 1080 406 1080 413 1090 c 0,209,210
 418 1096 418 1096 418 1105 c 0,211,212
 418 1121 418 1121 405 1127 c 1,213,-1
 403 1127 l 2,214,215
 398 1127 398 1127 395 1130 c 2,216,-1
 385 1131 l 1,217,218
 297 1131 297 1131 287 1070 c 0,219,220
 287 1062 287 1062 291 1057 c 1,203,204
240 943 m 1,221,222
 290 970 290 970 346 980 c 0,223,224
 372 986 372 986 388 986 c 2,225,-1
 401 985 l 1,226,227
 423 997 423 997 425 1019 c 0,228,229
 425 1041 425 1041 416 1045.5 c 128,-1,230
 407 1050 407 1050 397 1050 c 2,231,-1
 376 1050 l 2,232,233
 338 1050 338 1050 300 1039 c 0,234,235
 298 1038 298 1038 295.5 1036 c 128,-1,236
 293 1034 293 1034 290 1033 c 0,237,238
 276 1024 276 1024 261 1008 c 0,239,240
 236 981 236 981 236 958 c 0,241,242
 236 950 236 950 240 943 c 1,221,222
230 895 m 1,243,244
 276 911 276 911 323 911 c 0,245,246
 359 911 359 911 395 901 c 1,247,248
 407 919 407 919 408 938 c 0,249,250
 408 956 408 956 400.5 959.5 c 128,-1,251
 393 963 393 963 384 963 c 0,252,253
 360 963 360 963 330 953 c 0,254,255
 280 943 280 943 248 923 c 0,256,257
 246 919 246 919 241 918 c 0,258,259
 230 907 230 907 230 895 c 1,243,244
356 171 m 0,260,261
 373 171 373 171 390 174 c 0,262,263
 473 197 473 197 516 278 c 128,-1,264
 559 359 559 359 562 450 c 0,265,266
 563 454 563 454 564 474 c 0,267,268
 564 518 564 518 552.5 578 c 128,-1,269
 541 638 541 638 499 699 c 0,270,271
 465 745 465 745 417.5 771 c 128,-1,272
 370 797 370 797 321 797 c 0,273,274
 230 797 230 797 177 703 c 1,275,276
 129 608 129 608 129 486 c 0,277,278
 129 382 129 382 159 311 c 0,279,280
 190 246 190 246 253 203 c 0,281,282
 301 171 301 171 356 171 c 0,260,261
630 -105 m 1,283,-1
 55 -105 l 1,284,-1
 55 9 l 1,285,-1
 630 9 l 1,286,-1
 630 -105 l 1,283,-1
EndSplineSet
Validated: 1
EndChar

StartChar: R
Encoding: 82 82 53
Width: 615
GlyphClass: 2
Flags: W
LayerCount: 4
Fore
SplineSet
392 1230 m 0,0,1
 389 1230 389 1230 374.5 1240 c 128,-1,2
 360 1250 360 1250 356 1250 c 2,3,-1
 323 1239 l 2,4,5
 320 1239 320 1239 317 1242 c 128,-1,6
 314 1245 314 1245 314 1250 c 2,7,-1
 323 1281 l 2,8,9
 323 1285 323 1285 321 1288 c 0,10,11
 302 1314 302 1314 302 1317 c 0,12,13
 302 1326 302 1326 312 1327 c 2,14,-1
 340 1327 l 2,15,16
 345 1327 345 1327 348 1331 c 2,17,-1
 364 1355 l 2,18,19
 367 1359 367 1359 372 1359 c 0,20,21
 378 1359 378 1359 382 1352 c 2,22,-1
 391 1325 l 2,23,24
 392 1320 392 1320 397 1319 c 2,25,-1
 425 1311 l 2,26,27
 431 1309 431 1309 431 1301 c 0,28,29
 431 1296 431 1296 428 1293 c 2,30,-1
 405 1277 l 2,31,32
 401 1273 401 1273 401 1268 c 2,33,-1
 401 1240 l 2,34,35
 401 1230 401 1230 392 1230 c 0,0,1
226 640 m 2,36,-1
 218 641 l 1,37,38
 200 654 200 654 198 654 c 256,39,40
 196 654 196 654 185.5 650.5 c 128,-1,41
 175 647 175 647 173 647 c 0,42,43
 167 647 167 647 167 652 c 2,44,-1
 174 677 l 2,45,46
 174 679 174 679 160 697 c 1,47,-1
 159 702 l 2,48,49
 159 708 159 708 166 708 c 2,50,-1
 186 708 l 2,51,52
 189 708 189 708 192 711 c 2,53,-1
 203 728 l 2,54,55
 206 731 206 731 210 731 c 0,56,57
 214 730 214 730 215 726 c 2,58,-1
 222 707 l 2,59,60
 223 704 223 704 226 702 c 2,61,-1
 246 697 l 2,62,63
 250 695 250 695 250 689 c 0,64,65
 250 687 250 687 248 685 c 2,66,-1
 231 673 l 2,67,68
 229 670 229 670 229 667 c 2,69,-1
 229 647 l 2,70,71
 229 642 229 642 226 640 c 2,36,-1
483 -70 m 0,72,73
 437 -70 437 -70 391 -47 c 0,74,75
 304 1 304 1 237.5 103 c 128,-1,76
 171 205 171 205 129 306 c 1,77,-1
 129 8 l 1,78,-1
 15 8 l 1,79,-1
 15 854 l 1,80,-1
 65 910 l 2,81,82
 71 912 71 912 93 913 c 1,83,-1
 92 923 l 2,84,85
 92 940 92 940 105 955 c 1,86,-1
 106 955 l 1,87,88
 99 966 99 966 99 979 c 0,89,90
 99 998 99 998 113.5 1022.5 c 128,-1,91
 128 1047 128 1047 149 1060 c 1,92,93
 145 1070 145 1070 145 1081 c 0,94,95
 145 1096 145 1096 153 1111 c 128,-1,96
 161 1126 161 1126 175 1135 c 1,97,98
 170 1143 170 1143 170 1153 c 0,99,100
 170 1179 170 1179 198 1202 c 1,101,-1
 197 1214 l 2,102,103
 197 1237 197 1237 220 1252 c 1,104,105
 223 1266 223 1266 228 1280 c 2,106,-1
 231 1288 l 2,107,108
 236 1304 236 1304 240 1311 c 128,-1,109
 244 1318 244 1318 255 1318 c 0,110,111
 281 1318 281 1318 281 1262 c 1,112,-1
 280 1250 l 1,113,114
 285 1248 285 1248 288 1245 c 0,115,116
 296 1236 296 1236 296 1227 c 0,117,118
 296 1219 296 1219 288 1205 c 1,119,120
 302 1191 302 1191 302 1170 c 0,121,122
 302 1154 302 1154 290 1142 c 1,123,124
 301 1132 301 1132 301 1113 c 256,125,126
 301 1094 301 1094 288 1080 c 1,127,128
 310 1069 310 1069 310 1043 c 0,129,130
 310 1016 310 1016 286 994 c 1,131,132
 296 982 296 982 296 966 c 0,133,134
 296 957 296 957 288.5 937 c 128,-1,135
 281 917 281 917 259 900 c 1,136,137
 326 884 326 884 378 837 c 0,138,139
 403 814 403 814 421 771 c 0,140,141
 435 738 435 738 435 692 c 0,142,143
 429 564 429 564 349 503 c 0,144,145
 278 450 278 450 201 434 c 1,146,147
 237 333 237 333 301 216.5 c 128,-1,148
 365 100 365 100 442 54 c 0,149,150
 463 44 463 44 483 44 c 0,151,152
 496 44 496 44 508 48 c 2,153,-1
 562 67 l 1,154,-1
 600 -40 l 1,155,-1
 546 -59 l 2,156,157
 515 -70 515 -70 483 -70 c 0,72,73
259 1257 m 1,158,-1
 259 1263 l 1,159,-1
 256 1292 l 2,160,161
 254 1287 254 1287 252.5 1283.5 c 128,-1,162
 251 1280 251 1280 250.5 1278 c 128,-1,163
 250 1276 250 1276 248.5 1272.5 c 128,-1,164
 247 1269 247 1269 246 1265.5 c 128,-1,165
 245 1262 245 1262 243 1257 c 2,166,-1
 245 1258 l 1,167,168
 254 1258 254 1258 259 1257 c 1,158,-1
265 1211 m 1,169,170
 274 1219 274 1219 274 1225 c 0,171,172
 274 1230 274 1230 266.5 1233 c 128,-1,173
 259 1236 259 1236 250 1236 c 0,174,175
 242 1236 242 1236 236 1235 c 0,176,177
 218 1229 218 1229 218 1214 c 1,178,179
 227 1218 227 1218 236 1218 c 0,180,181
 244 1217 244 1217 251 1214 c 128,-1,182
 258 1211 258 1211 265 1211 c 1,169,170
193 1144 m 1,183,184
 220 1155 220 1155 249 1155 c 0,185,186
 258 1155 258 1155 268 1153 c 1,187,188
 279 1158 279 1158 280 1167 c 0,189,190
 280 1176 280 1176 276 1186 c 0,191,192
 275 1187 275 1187 274.5 1188 c 128,-1,193
 274 1189 274 1189 271 1189 c 0,194,195
 257 1189 257 1189 249.5 1192.5 c 128,-1,196
 242 1196 242 1196 235 1196 c 256,197,198
 228 1196 228 1196 219 1190 c 0,199,200
 216 1187 216 1187 213 1186 c 0,201,202
 190 1167 190 1167 190 1153 c 0,203,204
 190 1148 190 1148 193 1144 c 1,183,184
167 1069 m 1,205,206
 178 1073 178 1073 188.5 1074.5 c 128,-1,207
 199 1076 199 1076 210 1079 c 0,208,209
 235 1085 235 1085 260 1086 c 1,210,211
 281 1094 281 1094 281 1113 c 0,212,213
 281 1126 281 1126 269 1130 c 1,214,-1
 267 1130 l 2,215,216
 262 1130 262 1130 260 1133 c 2,217,-1
 251 1134 l 1,218,-1
 225 1131 l 2,219,220
 225 1130 225 1130 224 1130 c 0,221,222
 211 1128 211 1128 198 1123 c 0,223,224
 173 1114 173 1114 167 1089 c 0,225,226
 165 1084 165 1084 165 1079 c 256,227,228
 165 1074 165 1074 167 1069 c 1,205,206
123 969 m 1,229,230
 157 987 157 987 209 998 c 0,231,232
 234 1006 234 1006 255 1006 c 2,233,-1
 266 1005 l 1,234,235
 287 1020 287 1020 287 1035 c 2,236,-1
 287 1037 l 1,237,238
 280 1062 280 1062 252 1062 c 2,239,-1
 225 1059 l 2,240,241
 197 1058 197 1058 172 1049 c 1,242,-1
 171 1049 l 2,243,244
 169 1046 169 1046 166 1046 c 0,245,246
 148 1035 148 1035 131 1011 c 0,247,248
 120 996 120 996 120 982 c 0,249,250
 120 975 120 975 123 969 c 1,229,230
223 907 m 1,251,-1
 238 911 l 2,252,253
 254 917 254 917 264 936 c 0,254,255
 270 949 270 949 270 959 c 0,256,257
 270 966 270 966 268 972 c 0,258,259
 264 984 264 984 253 984 c 0,260,261
 232 984 232 984 203 974 c 1,262,263
 163 966 163 966 136 952 c 0,264,265
 116 938 116 938 116 919 c 2,266,-1
 116 914 l 1,267,-1
 133 914 l 2,268,269
 173 914 173 914 223 907 c 1,251,-1
129 538 m 1,270,271
 211 542 211 542 274 588 c 0,272,273
 319 621 319 621 322 692 c 0,274,275
 322 714 322 714 315 730.5 c 128,-1,276
 308 747 308 747 298 755 c 0,277,278
 249 800 249 800 129 800 c 1,279,-1
 129 538 l 1,270,271
EndSplineSet
Validated: 1
EndChar

StartChar: S
Encoding: 83 83 54
Width: 685
GlyphClass: 2
Flags: W
LayerCount: 4
Fore
SplineSet
373 1197 m 0,0,1
 368 1197 368 1197 367 1205 c 128,-1,2
 366 1213 366 1213 366 1223 c 0,3,4
 366 1227 366 1227 363 1228 c 2,5,-1
 345 1238 l 2,6,7
 342 1241 342 1241 342 1245 c 256,8,9
 342 1249 342 1249 346 1251 c 2,10,-1
 365 1258 l 2,11,12
 368 1260 368 1260 369 1263 c 2,13,-1
 373 1282 l 2,14,15
 374 1287 374 1287 378 1288 c 0,16,17
 382 1288 382 1288 385 1285 c 2,18,-1
 398 1270 l 2,19,20
 400 1268 400 1268 404 1268 c 2,21,-1
 423 1270 l 2,22,23
 431 1270 431 1270 431 1263 c 0,24,25
 431 1260 431 1260 419 1243 c 1,26,-1
 418 1239 l 2,27,28
 418 1238 418 1238 422.5 1227.5 c 128,-1,29
 427 1217 427 1217 427 1215 c 0,30,31
 427 1209 427 1209 421 1209 c 2,32,-1
 397 1213 l 2,33,34
 395 1213 395 1213 394 1212 c 0,35,36
 376 1197 376 1197 373 1197 c 0,0,1
333 -10 m 0,37,38
 149 -10 149 -10 68 85 c 0,39,40
 15 149 15 149 15 240 c 0,41,42
 15 268 15 268 19.5 297.5 c 128,-1,43
 24 327 24 327 29 355 c 1,44,-1
 141 336 l 1,45,-1
 132 280 l 2,46,47
 129 263 129 263 129 243 c 0,48,49
 129 231 129 231 131 208 c 128,-1,50
 133 185 133 185 155 158 c 0,51,52
 204 104 204 104 333 104 c 0,53,54
 401 104 401 104 450.5 129.5 c 128,-1,55
 500 155 500 155 528 195.5 c 128,-1,56
 556 236 556 236 556 278 c 0,57,58
 556 340 556 340 496.5 378.5 c 128,-1,59
 437 417 437 417 330 423 c 0,60,61
 229 431 229 431 173 464.5 c 128,-1,62
 117 498 117 498 93.5 538.5 c 128,-1,63
 70 579 70 579 64.5 605.5 c 128,-1,64
 59 632 59 632 59 659 c 0,65,66
 59 712 59 712 88.5 776 c 128,-1,67
 118 840 118 840 194 884 c 1,68,-1
 214 893 l 1,69,-1
 215 899 l 1,70,71
 191 915 191 915 191 945 c 0,72,73
 191 949 191 949 193.5 970 c 128,-1,74
 196 991 196 991 216 1022 c 1,75,76
 198 1036 198 1036 198 1065 c 0,77,78
 198 1090 198 1090 211 1106 c 1,79,80
 196 1117 196 1117 196 1137 c 0,81,82
 196 1139 196 1139 196.5 1150.5 c 128,-1,83
 197 1162 197 1162 208 1182 c 1,84,85
 198 1197 198 1197 198 1213 c 0,86,87
 198 1228 198 1228 211 1241 c 1,88,89
 207 1261 207 1261 207 1287 c 2,90,-1
 206 1297 l 2,91,92
 206 1302 206 1302 207 1308.5 c 128,-1,93
 208 1315 208 1315 218 1320 c 0,94,95
 223 1322 223 1322 228 1322 c 0,96,97
 240 1322 240 1322 252.5 1303.5 c 128,-1,98
 265 1285 265 1285 272 1263 c 1,99,100
 280 1263 280 1263 286 1259 c 0,101,102
 300 1251 300 1251 300 1233 c 2,103,-1
 299 1222 l 1,104,105
 331 1204 331 1204 331 1178 c 0,106,107
 331 1170 331 1170 327 1161 c 1,108,109
 336 1158 336 1158 344 1149 c 0,110,111
 355 1133 355 1133 355 1118 c 0,112,113
 355 1108 355 1108 351 1098 c 1,114,115
 360 1098 360 1098 370 1092 c 0,116,117
 393 1076 393 1076 393 1048 c 0,118,119
 393 1030 393 1030 385 1012 c 1,120,-1
 388 1011 l 1,121,122
 411 996 411 996 411 964 c 0,123,124
 411 962 411 962 410.5 944.5 c 128,-1,125
 410 927 410 927 393 902 c 1,126,127
 481 876 481 876 563 796 c 2,128,-1
 603 756 l 1,129,-1
 523 675 l 1,130,-1
 483 715 l 2,131,132
 394 801 394 801 316 801 c 0,133,134
 281 801 281 801 249 784 c 0,135,136
 208 760 208 760 187 717 c 0,137,138
 173 688 173 688 173 659 c 0,139,140
 173 645 173 645 176 632 c 0,141,142
 198 546 198 546 336 537 c 0,143,144
 522 522 522 522 598 442 c 0,145,146
 670 366 670 366 670 282 c 0,147,148
 670 207 670 207 625 139 c 0,149,150
 584 75 584 75 509.5 32.5 c 128,-1,151
 435 -10 435 -10 333 -10 c 0,37,38
240 904 m 1,152,153
 276 915 276 915 314 915 c 0,154,155
 341 915 341 915 370 909 c 1,156,157
 381 918 381 918 387 935 c 0,158,159
 389 944 389 944 389 952 c 256,160,161
 389 960 389 960 387 967 c 0,162,163
 374 979 374 979 362 992 c 1,164,165
 351 988 351 988 341 982 c 0,166,167
 313 967 313 967 307 960 c 0,168,169
 280 942 280 942 256 921 c 1,170,-1
 255 919 l 1,171,172
 247 912 247 912 240 904 c 1,152,153
230 1038 m 1,173,-1
 238 1045 l 1,174,175
 277 1070 277 1070 320 1089 c 1,176,-1
 321 1091 l 1,177,178
 333 1103 333 1103 333 1119 c 0,179,180
 333 1139 333 1139 313 1142 c 2,181,-1
 311 1142 l 2,182,183
 308 1140 308 1140 305 1140 c 2,184,-1
 302 1141 l 1,185,186
 288 1138 288 1138 276 1131 c 0,187,188
 245 1111 245 1111 232 1097.5 c 128,-1,189
 219 1084 219 1084 219 1063 c 0,190,191
 219 1047 219 1047 230 1038 c 1,173,-1
227 1122 m 1,192,193
 260 1152 260 1152 302 1162 c 1,194,195
 308 1170 308 1170 308 1178 c 0,196,197
 308 1181 308 1181 306 1188.5 c 128,-1,198
 304 1196 304 1196 291 1202 c 1,199,200
 278 1195 278 1195 262 1194 c 0,201,202
 250 1194 250 1194 243.5 1190.5 c 128,-1,203
 237 1187 237 1187 231 1178 c 0,204,205
 230 1175 230 1175 228 1173 c 0,206,207
 217 1155 217 1155 217 1139 c 0,208,209
 217 1128 217 1128 227 1122 c 1,192,193
230 1255 m 1,210,211
 240 1260 240 1260 250 1262 c 1,212,213
 243 1278 243 1278 232 1293 c 0,214,215
 228 1301 228 1301 227 1301 c 2,216,-1
 226 1299 l 1,217,218
 227 1287 227 1287 228.5 1275 c 128,-1,219
 230 1263 230 1263 230 1255 c 1,210,211
222 1201 m 1,220,221
 232 1213 232 1213 252 1215 c 0,222,223
 265 1216 265 1216 276 1220 c 1,224,225
 279 1226 279 1226 279 1234 c 0,226,227
 279 1243 279 1243 267 1243 c 0,228,229
 247 1241 247 1241 237 1235 c 0,230,231
 219 1223 219 1223 219 1211 c 0,232,233
 219 1206 219 1206 222 1201 c 1,220,221
225 918 m 1,234,235
 262 960 262 960 311 989 c 0,236,237
 341 1009 341 1009 362 1014 c 1,238,239
 373 1033 373 1033 373 1045 c 0,240,241
 373 1053 373 1053 370 1060 c 0,242,243
 363 1073 363 1073 352 1073 c 0,244,245
 340 1073 340 1073 324 1067 c 0,246,247
 323 1067 323 1067 323 1066 c 0,248,249
 213 1025 213 1025 213 946 c 0,250,251
 213 928 213 928 225 918 c 1,234,235
308 201 m 0,252,253
 299 201 299 201 298 211 c 2,254,-1
 296 240 l 2,255,256
 295 246 295 246 290 248 c 2,257,-1
 264 263 l 2,258,259
 260 266 260 266 260 271 c 0,260,261
 260 279 260 279 266 282 c 2,262,-1
 294 293 l 2,263,264
 298 295 298 295 300 300 c 2,265,-1
 306 329 l 2,266,267
 308 336 308 336 314 337 c 0,268,269
 320 337 320 337 324 334 c 2,270,-1
 343 311 l 2,271,272
 347 307 347 307 352 307 c 2,273,-1
 382 310 l 2,274,275
 394 310 394 310 394 301 c 0,276,277
 394 298 394 298 392 295 c 0,278,279
 375 268 375 268 375 265 c 0,280,281
 375 263 375 263 382 247 c 128,-1,282
 389 231 389 231 389 229 c 0,283,284
 389 225 389 225 386 222 c 128,-1,285
 383 219 383 219 378 219 c 2,286,-1
 344 226 l 2,287,288
 340 226 340 226 337 224 c 2,289,-1
 315 204 l 2,290,291
 312 201 312 201 308 201 c 0,252,253
EndSplineSet
Validated: 1
EndChar

StartChar: T
Encoding: 84 84 55
Width: 696
GlyphClass: 2
Flags: W
LayerCount: 4
Fore
SplineSet
406 4 m 1,0,-1
 292 4 l 1,1,-1
 292 791 l 1,2,-1
 15 791 l 1,3,-1
 15 905 l 1,4,-1
 302 905 l 1,5,6
 303 917 303 917 310 929 c 1,7,8
 298 942 298 942 298 959 c 0,9,10
 298 1000 298 1000 339 1037 c 1,11,12
 331 1048 331 1048 331 1063 c 0,13,14
 331 1096 331 1096 353 1114 c 1,15,16
 345 1124 345 1124 345 1137 c 0,17,18
 345 1160 345 1160 366 1183 c 1,19,20
 363 1192 363 1192 363 1200 c 0,21,22
 363 1222 363 1222 382 1235 c 1,23,24
 382 1253 382 1253 387 1270 c 0,25,26
 388 1273 388 1273 388 1277 c 0,27,28
 391 1305 391 1305 410 1305 c 0,29,30
 425 1305 425 1305 432 1284 c 128,-1,31
 439 1263 439 1263 441 1242 c 1,32,33
 459 1235 459 1235 459 1216 c 0,34,35
 459 1207 459 1207 455 1199 c 1,36,37
 473 1183 473 1183 473 1161 c 0,38,39
 473 1149 473 1149 465 1138 c 1,40,41
 481 1126 481 1126 481 1102 c 0,42,43
 481 1089 481 1089 473 1077 c 1,44,45
 480 1074 480 1074 486 1068 c 0,46,47
 499 1054 499 1054 499 1037 c 0,48,49
 499 1014 499 1014 482 992 c 1,50,-1
 483 992 l 1,51,52
 496 980 496 980 496 961 c 0,53,54
 496 933 496 933 476 905 c 1,55,-1
 666 905 l 1,56,-1
 666 791 l 1,57,-1
 406 791 l 1,58,-1
 406 4 l 1,0,-1
385 1199 m 1,59,60
 395 1204 395 1204 406 1204 c 2,61,-1
 418 1203 l 2,62,63
 420 1201 420 1201 432 1201 c 1,64,65
 438 1211 438 1211 438 1216 c 0,66,67
 438 1223 438 1223 422 1225 c 0,68,69
 416 1225 416 1225 412 1224 c 0,70,71
 400 1222 400 1222 392.5 1215.5 c 128,-1,72
 385 1209 385 1209 385 1203 c 2,73,-1
 385 1199 l 1,59,60
405 1244 m 2,74,75
 411 1246 411 1246 419 1246 c 1,76,77
 418 1257 418 1257 414.5 1266.5 c 128,-1,78
 411 1276 411 1276 411 1284 c 2,79,-1
 410 1280 l 2,80,81
 410 1268 410 1268 407 1257 c 0,82,83
 405 1251 405 1251 404 1244 c 1,84,-1
 405 1244 l 2,74,75
371 1127 m 1,85,86
 410 1145 410 1145 436 1145 c 2,87,-1
 442 1145 l 1,88,89
 451 1153 451 1153 451 1165 c 0,90,91
 451 1175 451 1175 442 1181 c 1,92,-1
 430 1180 l 2,93,94
 422 1180 422 1180 413 1182 c 2,95,-1
 406 1183 l 2,96,97
 398 1183 398 1183 390 1176 c 0,98,99
 389 1171 389 1171 384 1169 c 0,100,101
 376 1161 376 1161 370 1148 c 0,102,103
 367 1142 367 1142 367 1137 c 0,104,105
 367 1131 367 1131 371 1127 c 1,85,86
356 1050 m 1,106,107
 364 1056 364 1056 368 1056 c 0,108,109
 404 1070 404 1070 443 1078 c 0,110,111
 453 1084 453 1084 458 1095 c 0,112,113
 461 1100 461 1100 461 1105 c 0,114,115
 461 1120 461 1120 447 1123 c 2,116,-1
 445 1123 l 2,117,118
 441 1123 441 1123 437 1125 c 0,119,120
 424 1125 424 1125 395 1114 c 1,121,-1
 392 1112 l 1,122,123
 352 1099 352 1099 352 1063 c 0,124,125
 352 1056 352 1056 356 1050 c 1,106,107
325 945 m 1,126,127
 357 968 357 968 395 981 c 0,128,129
 437 1000 437 1000 460 1000 c 1,130,131
 477 1015 477 1015 477 1035 c 0,132,133
 477 1051 477 1051 464 1054 c 2,134,-1
 454 1055 l 1,135,136
 417 1052 417 1052 373 1035 c 0,137,138
 361 1030 361 1030 346 1013.5 c 128,-1,139
 331 997 331 997 323 977 c 0,140,141
 319 969 319 969 319 961 c 0,142,143
 319 952 319 952 325 945 c 1,126,127
446 905 m 1,144,145
 457 911 457 911 462 921 c 0,146,147
 470 937 470 937 470 952 c 0,148,149
 470 976 470 976 446 976 c 0,150,151
 435 975 435 975 424 970 c 0,152,153
 389 958 389 958 356 940 c 1,154,-1
 356 939 l 1,155,156
 345 934 345 934 335 926 c 0,157,158
 334 923 334 923 332 921 c 0,159,160
 327 914 327 914 324 905 c 1,161,-1
 446 905 l 1,144,145
203 966 m 0,162,163
 199 966 199 966 195 968 c 0,164,165
 151 991 151 991 147 991 c 0,166,167
 144 991 144 991 140 989 c 0,168,169
 96 966 96 966 91 966 c 0,170,171
 87 966 87 966 82 970 c 128,-1,172
 77 974 77 974 77 981 c 2,173,-1
 84 1033 l 2,174,175
 84 1039 84 1039 80 1044 c 2,176,-1
 47 1076 l 2,177,178
 42 1081 42 1081 42 1087 c 0,179,180
 42 1100 42 1100 56 1103 c 2,181,-1
 101 1109 l 2,182,183
 109 1111 109 1111 113 1118 c 2,184,-1
 133 1159 l 2,185,186
 139 1168 139 1168 147 1168 c 0,187,188
 156 1168 156 1168 161 1159 c 2,189,-1
 182 1118 l 2,190,191
 186 1111 186 1111 194 1109 c 2,192,-1
 239 1103 l 2,193,194
 253 1100 253 1100 253 1087 c 0,195,196
 253 1081 253 1081 248 1076 c 2,197,-1
 215 1044 l 2,198,199
 210 1039 210 1039 210 1032 c 2,200,-1
 218 983 l 2,201,202
 218 974 218 974 213 970 c 128,-1,203
 208 966 208 966 203 966 c 0,162,163
645 1120 m 0,204,205
 643 1120 643 1120 626 1129 c 128,-1,206
 609 1138 609 1138 606 1138 c 2,207,-1
 601 1136 l 2,208,209
 570 1120 570 1120 566 1120 c 0,210,211
 563 1120 563 1120 559.5 1122.5 c 128,-1,212
 556 1125 556 1125 556 1131 c 2,213,-1
 561 1167 l 2,214,215
 561 1172 561 1172 558 1175 c 2,216,-1
 535 1198 l 2,217,218
 531 1202 531 1202 531 1206 c 0,219,220
 531 1214 531 1214 541 1217 c 2,221,-1
 573 1221 l 2,222,223
 579 1222 579 1222 581 1227 c 2,224,-1
 596 1256 l 2,225,226
 600 1263 600 1263 606 1263 c 256,227,228
 612 1263 612 1263 616 1256 c 2,229,-1
 630 1227 l 2,230,231
 633 1222 633 1222 638 1221 c 2,232,-1
 671 1217 l 2,233,234
 681 1214 681 1214 681 1206 c 0,235,236
 681 1202 681 1202 677 1198 c 2,237,-1
 653 1175 l 2,238,239
 650 1172 650 1172 650 1167 c 2,240,-1
 656 1131 l 2,241,242
 656 1125 656 1125 652 1122.5 c 128,-1,243
 648 1120 648 1120 645 1120 c 0,204,205
526 546 m 0,244,245
 524 546 524 546 511 552.5 c 128,-1,246
 498 559 498 559 496 559 c 256,247,248
 494 559 494 559 481 552.5 c 128,-1,249
 468 546 468 546 466 546 c 0,250,251
 457 546 457 546 457 556 c 2,252,-1
 461 582 l 2,253,254
 461 586 461 586 459 588 c 2,255,-1
 441 605 l 2,256,257
 438 608 438 608 438 611 c 0,258,259
 438 619 438 619 446 620 c 2,260,-1
 470 624 l 2,261,262
 475 624 475 624 477 628 c 2,263,-1
 488 651 l 2,264,265
 491 655 491 655 496 655 c 0,266,267
 500 655 500 655 503 651 c 2,268,-1
 514 628 l 2,269,270
 516 624 516 624 521 624 c 2,271,-1
 545 620 l 2,272,273
 553 619 553 619 553 611 c 0,274,275
 553 608 553 608 550 605 c 2,276,-1
 532 588 l 2,277,278
 530 586 530 586 530 582 c 2,279,-1
 534 554 l 2,280,281
 534 546 534 546 526 546 c 0,244,245
EndSplineSet
Validated: 1
EndChar

StartChar: U
Encoding: 85 85 56
Width: 653
GlyphClass: 2
Flags: W
LayerCount: 4
Fore
SplineSet
261 886 m 0,0,1
 225 888 225 888 215 916 c 0,2,3
 211 925 211 925 211 934 c 0,4,5
 211 952 211 952 226 970 c 1,6,7
 219 981 219 981 219 995 c 0,8,9
 219 1016 219 1016 234.5 1043.5 c 128,-1,10
 250 1071 250 1071 273 1086 c 1,11,12
 268 1096 268 1096 268 1108 c 0,13,14
 268 1125 268 1125 277.5 1142.5 c 128,-1,15
 287 1160 287 1160 301 1169 c 1,16,17
 296 1179 296 1179 296 1189 c 0,18,19
 296 1215 296 1215 326 1242 c 1,20,-1
 325 1255 l 2,21,22
 325 1283 325 1283 350 1298 c 1,23,24
 352 1310 352 1310 364 1343 c 1,25,26
 370 1372 370 1372 388 1372 c 0,27,28
 413 1372 413 1372 413 1312 c 2,29,-1
 412 1297 l 1,30,31
 417 1295 417 1295 420 1291 c 0,32,33
 428 1282 428 1282 428 1272 c 256,34,35
 428 1262 428 1262 419 1248 c 1,36,37
 423 1244 423 1244 426 1238 c 128,-1,38
 429 1232 429 1232 431 1225.5 c 128,-1,39
 433 1219 433 1219 433 1211 c 0,40,41
 433 1193 433 1193 419 1179 c 1,42,43
 432 1169 432 1169 432 1147 c 0,44,45
 432 1126 432 1126 417 1110 c 1,46,47
 429 1104 429 1104 436 1089 c 0,48,49
 440 1079 440 1079 440 1069 c 0,50,51
 440 1040 440 1040 414 1016 c 1,52,53
 424 1004 424 1004 424 988 c 0,54,55
 424 958 424 958 401 928 c 0,56,57
 384 906 384 906 366 901 c 0,58,59
 332 894 332 894 281 889 c 0,60,61
 262 887 262 887 261 886 c 0,0,1
261 908 m 0,62,63
 276 910 276 910 292 911 c 0,64,65
 327 914 327 914 360 922 c 0,66,67
 375 927 375 927 386 943 c 128,-1,68
 397 959 397 959 398 975 c 0,69,70
 397 996 397 996 388 1000 c 128,-1,71
 379 1004 379 1004 370 1004 c 0,72,73
 355 1004 355 1004 313 990 c 0,74,75
 234 968 234 968 234 929 c 0,76,77
 234 924 234 924 237 916 c 128,-1,78
 240 908 240 908 261 908 c 0,62,63
391 1304 m 1,79,-1
 392 1314 l 2,80,81
 391 1329 391 1329 388 1343 c 2,82,-1
 388 1350 l 2,83,84
 388 1349 388 1349 386 1342.5 c 128,-1,85
 384 1336 384 1336 380 1326 c 128,-1,86
 376 1316 376 1316 373 1304 c 1,87,-1
 379 1305 l 1,88,-1
 391 1304 l 1,79,-1
397 1254 m 1,89,90
 407 1264 407 1264 407 1271 c 0,91,92
 407 1276 407 1276 398.5 1280 c 128,-1,93
 390 1284 390 1284 383 1284 c 0,94,95
 366 1284 366 1284 356 1276 c 128,-1,96
 346 1268 346 1268 346 1257 c 1,97,98
 354 1261 354 1261 363 1261 c 0,99,100
 373 1260 373 1260 380.5 1257 c 128,-1,101
 388 1254 388 1254 393 1254 c 2,102,-1
 397 1254 l 1,89,90
319 1179 m 1,103,104
 353 1191 353 1191 379 1191 c 0,105,106
 388 1191 388 1191 398 1189 c 1,107,108
 412 1196 412 1196 412 1211 c 0,109,110
 412 1219 412 1219 407 1228 c 0,111,112
 404 1232 404 1232 399 1232 c 2,113,-1
 393 1231 l 2,114,115
 386 1232 386 1232 379 1235.5 c 128,-1,116
 372 1239 372 1239 363 1239 c 0,117,118
 357 1239 357 1239 348 1233 c 0,119,120
 345 1228 345 1228 340 1226 c 0,121,122
 316 1206 316 1206 316 1188 c 0,123,124
 316 1183 316 1183 319 1179 c 1,103,104
292 1096 m 1,125,126
 304 1101 304 1101 340 1107 c 0,127,128
 364 1114 364 1114 388 1115 c 1,129,130
 400 1121 400 1121 407 1132 c 0,131,132
 412 1139 412 1139 412 1147 c 0,133,134
 412 1161 412 1161 400 1167 c 1,135,-1
 396 1166 l 2,136,137
 392 1166 392 1166 390 1170 c 1,138,-1
 382 1170 l 2,139,140
 370 1170 370 1170 345 1164 c 0,141,142
 339 1164 339 1164 318 1155 c 0,143,144
 306 1149 306 1149 297.5 1135 c 128,-1,145
 289 1121 289 1121 289 1108 c 0,146,147
 289 1102 289 1102 292 1096 c 1,125,126
243 984 m 1,148,149
 276 1003 276 1003 321 1014 c 0,150,151
 361 1027 361 1027 379 1027 c 2,152,-1
 393 1026 l 1,153,154
 414 1043 414 1043 414 1060 c 0,155,156
 414 1066 414 1066 412 1071 c 0,157,158
 404 1089 404 1089 375 1089 c 0,159,160
 332 1089 332 1089 294 1076 c 1,161,-1
 292 1074 l 2,162,163
 280 1067 280 1067 266 1051 c 128,-1,164
 252 1035 252 1035 244 1016 c 0,165,166
 240 1006 240 1006 240 998 c 0,167,168
 240 991 240 991 243 984 c 1,148,149
413 689 m 0,169,170
 409 689 409 689 405 691 c 2,171,-1
 374 713 l 2,172,173
 371 715 371 715 368 715 c 256,174,175
 365 715 365 715 345 708 c 128,-1,176
 325 701 325 701 323 701 c 0,177,178
 318 701 318 701 314.5 705 c 128,-1,179
 311 709 311 709 311 714 c 0,180,181
 311 716 311 716 317 735.5 c 128,-1,182
 323 755 323 755 323 756 c 0,183,184
 323 761 323 761 321 765 c 2,185,-1
 298 794 l 2,186,187
 295 798 295 798 295 803 c 0,188,189
 295 813 295 813 308 815 c 2,190,-1
 345 815 l 2,191,192
 352 815 352 815 355 820 c 2,193,-1
 376 851 l 2,194,195
 380 857 380 857 387 857 c 0,196,197
 388 857 388 857 392 856.5 c 128,-1,198
 396 856 396 856 399 848 c 2,199,-1
 411 813 l 2,200,201
 413 806 413 806 419 804 c 2,202,-1
 455 794 l 2,203,204
 464 790 464 790 464 782 c 0,205,206
 464 776 464 776 459 772 c 2,207,-1
 429 750 l 2,208,209
 424 745 424 745 424 739 c 2,210,-1
 425 702 l 2,211,212
 425 692 425 692 413 689 c 0,169,170
151 1017 m 0,213,214
 148 1017 148 1017 145 1019 c 0,215,216
 120 1036 120 1036 119 1036 c 2,217,-1
 88 1026 l 2,218,219
 78 1026 78 1026 78 1034 c 2,220,-1
 87 1065 l 2,221,222
 87 1068 87 1068 85 1071 c 0,223,224
 67 1094 67 1094 67 1097 c 0,225,226
 67 1106 67 1106 76 1106 c 2,227,-1
 103 1106 l 2,228,229
 107 1106 107 1106 110 1110 c 2,230,-1
 125 1132 l 2,231,232
 128 1136 128 1136 132 1136 c 0,233,234
 139 1136 139 1136 141 1130 c 2,235,-1
 149 1105 l 2,236,237
 151 1100 151 1100 155 1099 c 2,238,-1
 180 1092 l 2,239,240
 187 1090 187 1090 187 1082 c 0,241,242
 187 1079 187 1079 183 1076 c 2,243,-1
 162 1060 l 2,244,245
 158 1057 158 1057 158 1053 c 2,246,-1
 159 1026 l 2,247,248
 159 1019 159 1019 151 1017 c 0,213,214
321 -3 m 0,249,250
 235 -3 235 -3 171 64 c 0,251,252
 53 188 53 188 24 541 c 0,253,254
 15 659 15 659 15 745 c 0,255,256
 15 820 15 820 20 917 c 1,257,-1
 133 911 l 1,258,259
 128 825 128 825 128 779 c 0,260,261
 128 715 128 715 133 601.5 c 128,-1,262
 138 488 138 488 165.5 350 c 128,-1,263
 193 212 193 212 253 143 c 0,264,265
 283 111 283 111 321 111 c 256,266,267
 359 111 359 111 389 143 c 0,268,269
 451 213 451 213 481 351 c 0,270,271
 525 553 525 553 525 806 c 0,272,273
 525 833 525 833 522 912 c 1,274,-1
 636 916 l 1,275,-1
 637 859 l 2,276,277
 638 851 638 851 638 761 c 0,278,279
 637 670 637 670 625 540 c 0,280,281
 590 188 590 188 471 64 c 0,282,283
 406 -3 406 -3 321 -3 c 0,249,250
EndSplineSet
Validated: 1
EndChar

StartChar: V
Encoding: 86 86 57
Width: 821
GlyphClass: 2
Flags: W
LayerCount: 4
Fore
SplineSet
383 893 m 1,0,1
 352 897 352 897 340 922 c 0,2,3
 337 931 337 931 337 939 c 0,4,5
 337 956 337 956 350 972 c 1,6,7
 344 983 344 983 344 996 c 0,8,9
 344 1012 344 1012 356 1036 c 0,10,11
 371 1064 371 1064 395 1080 c 1,12,13
 391 1091 391 1091 391 1102 c 0,14,15
 391 1136 391 1136 421 1156 c 1,16,17
 417 1165 417 1165 417 1175 c 0,18,19
 417 1201 417 1201 444 1225 c 1,20,-1
 443 1237 l 2,21,22
 443 1257 443 1257 460 1271 c 0,23,24
 463 1274 463 1274 468 1276 c 1,25,26
 473 1301 473 1301 479 1313 c 2,27,-1
 488 1336 l 2,28,29
 492 1344 492 1344 503 1344 c 0,30,31
 530 1344 530 1344 530 1283 c 1,32,-1
 529 1275 l 1,33,34
 545 1264 545 1264 545 1251 c 0,35,36
 545 1239 545 1239 536 1229 c 1,37,38
 551 1215 551 1215 551 1193 c 0,39,40
 551 1176 551 1176 538 1164 c 1,41,42
 551 1153 551 1153 551 1133 c 0,43,44
 551 1114 551 1114 537 1100 c 1,45,46
 547 1095 547 1095 553 1084 c 128,-1,47
 559 1073 559 1073 559 1062 c 0,48,49
 559 1034 559 1034 535 1012 c 1,50,51
 545 1001 545 1001 545 986 c 0,52,53
 545 979 545 979 541 963.5 c 128,-1,54
 537 948 537 948 520.5 928.5 c 128,-1,55
 504 909 504 909 486 905 c 0,56,57
 453 899 453 899 419 897 c 2,58,-1
 383 893 l 1,0,1
386 914 m 2,59,-1
 419 917 l 2,60,61
 454 918 454 918 485 926 c 0,62,63
 502 932 502 932 512 952 c 0,64,65
 519 966 519 966 519 978 c 0,66,67
 519 984 519 984 517 990 c 0,68,69
 512 1002 512 1002 502 1002 c 0,70,71
 488 1002 488 1002 449 992 c 2,72,-1
 440 990 l 2,73,74
 360 972 360 972 360 935 c 0,75,76
 360 930 360 930 363.5 922.5 c 128,-1,77
 367 915 367 915 386 914 c 2,59,-1
508 1282 m 1,78,79
 508 1289 508 1289 504 1320 c 1,80,-1
 491 1282 l 1,81,-1
 508 1282 l 1,78,79
514 1234 m 1,82,83
 523 1242 523 1242 523 1249 c 0,84,85
 523 1254 523 1254 515 1257.5 c 128,-1,86
 507 1261 507 1261 499 1261 c 0,87,88
 497 1261 497 1261 493 1260.5 c 128,-1,89
 489 1260 489 1260 483.5 1259 c 128,-1,90
 478 1258 478 1258 473 1255 c 0,91,92
 465 1249 465 1249 465 1240 c 2,93,-1
 465 1238 l 1,94,95
 473 1241 473 1241 481 1241 c 256,96,97
 489 1241 489 1241 497.5 1237.5 c 128,-1,98
 506 1234 506 1234 514 1234 c 1,82,83
440 1166 m 1,99,100
 472 1177 472 1177 495 1177 c 0,101,102
 506 1177 506 1177 517 1174 c 1,103,104
 529 1181 529 1181 529 1194 c 0,105,106
 529 1202 529 1202 522 1212 c 1,107,108
 505 1212 505 1212 498 1215.5 c 128,-1,109
 491 1219 491 1219 483 1219 c 0,110,111
 476 1219 476 1219 466 1213 c 0,112,113
 463 1210 463 1210 460 1209 c 0,114,115
 447 1199 447 1199 440 1187 c 0,116,117
 437 1181 437 1181 437 1176 c 256,118,119
 437 1171 437 1171 440 1166 c 1,99,100
413 1089 m 1,120,121
 423 1093 423 1093 433 1094 c 0,122,123
 483 1105 483 1105 509 1106 c 0,124,125
 518 1110 518 1110 525 1119 c 0,126,127
 529 1125 529 1125 529 1132 c 0,128,129
 529 1148 529 1148 518 1152 c 1,130,-1
 516 1152 l 2,131,132
 512 1152 512 1152 508 1155 c 2,133,-1
 499 1156 l 2,134,135
 486 1156 486 1156 473 1152 c 0,136,137
 466 1152 466 1152 443.5 1144 c 128,-1,138
 421 1136 421 1136 412 1109 c 1,139,-1
 411 1100 l 2,140,141
 411 1094 411 1094 413 1089 c 1,120,121
367 986 m 1,142,143
 403 1005 403 1005 449 1014 c 0,144,145
 482 1024 482 1024 503 1024 c 2,146,-1
 514 1023 l 1,147,148
 522 1028 522 1028 529 1037 c 128,-1,149
 536 1046 536 1046 536 1056 c 0,150,151
 535 1083 535 1083 513 1083 c 0,152,153
 503 1083 503 1083 494 1081 c 0,154,155
 492 1080 492 1080 466.5 1078.5 c 128,-1,156
 441 1077 441 1077 418 1069 c 0,157,158
 415 1066 415 1066 411 1066 c 0,159,160
 392 1054 392 1054 376 1029 c 0,161,162
 365 1013 365 1013 365 999 c 0,163,164
 365 992 365 992 367 986 c 1,142,143
278 984 m 0,165,166
 275 984 275 984 249 1003 c 1,167,-1
 244 1004 l 1,168,-1
 209 993 l 2,169,170
 205 993 205 993 202 996 c 128,-1,171
 199 999 199 999 199 1004 c 2,172,-1
 209 1038 l 2,173,174
 209 1041 209 1041 207 1044 c 0,175,176
 187 1070 187 1070 187 1073 c 0,177,178
 187 1082 187 1082 197 1083 c 2,179,-1
 226 1083 l 2,180,181
 231 1083 231 1083 234 1087 c 2,182,-1
 251 1112 l 2,183,184
 255 1116 255 1116 259 1116 c 0,185,186
 266 1116 266 1116 268 1109 c 2,187,-1
 278 1081 l 2,188,189
 279 1076 279 1076 284 1075 c 2,190,-1
 312 1067 l 2,191,192
 320 1063 320 1063 320 1057 c 0,193,194
 320 1052 320 1052 316 1049 c 2,195,-1
 292 1032 l 2,196,197
 288 1028 288 1028 288 1023 c 2,198,-1
 289 994 l 2,199,200
 289 984 289 984 278 984 c 0,165,166
615 1095 m 2,201,-1
 611 1096 l 1,202,203
 593 1109 593 1109 590 1109 c 2,204,-1
 567 1102 l 2,205,206
 564 1102 564 1102 561.5 1104 c 128,-1,207
 559 1106 559 1106 559 1109 c 2,208,-1
 566 1133 l 2,209,210
 566 1135 566 1135 552 1154 c 1,211,-1
 551 1158 l 2,212,213
 551 1165 551 1165 557 1165 c 2,214,-1
 578 1165 l 2,215,216
 582 1165 582 1165 584 1168 c 2,217,-1
 595 1185 l 2,218,219
 598 1188 598 1188 601 1188 c 0,220,221
 606 1188 606 1188 608 1184 c 2,222,-1
 614 1164 l 2,223,224
 616 1160 616 1160 619 1159 c 2,225,-1
 639 1153 l 2,226,227
 644 1151 644 1151 645 1146 c 0,228,229
 645 1143 645 1143 641 1141 c 2,230,-1
 625 1129 l 2,231,232
 622 1126 622 1126 622 1123 c 2,233,-1
 622 1102 l 2,234,235
 622 1095 622 1095 615 1095 c 2,201,-1
467 12 m 1,236,-1
 361 12 l 1,237,-1
 15 879 l 1,238,-1
 121 921 l 1,239,-1
 413 188 l 1,240,-1
 700 921 l 1,241,-1
 806 880 l 1,242,-1
 467 12 l 1,236,-1
456 437 m 2,243,-1
 451 438 l 1,244,245
 427 452 427 452 424 452 c 2,246,-1
 419 451 l 1,247,248
 394 437 394 437 391 437 c 0,249,250
 382 437 382 437 382 446 c 2,251,-1
 387 476 l 2,252,253
 387 480 387 480 384 482 c 2,254,-1
 364 501 l 2,255,256
 362 504 362 504 362 508 c 0,257,258
 362 515 362 515 369 517 c 2,259,-1
 396 521 l 2,260,261
 401 522 401 522 403 526 c 2,262,-1
 415 550 l 2,263,264
 418 555 418 555 423 555 c 256,265,266
 428 555 428 555 432 550 c 2,267,-1
 443 526 l 2,268,269
 446 522 446 522 450 521 c 2,270,-1
 477 517 l 2,271,272
 486 516 486 516 486 509 c 0,273,274
 486 505 486 505 482 501 c 2,275,-1
 463 482 l 2,276,277
 460 479 460 479 460 474 c 2,278,-1
 465 448 l 2,279,280
 465 437 465 437 456 437 c 2,243,-1
EndSplineSet
Validated: 1
EndChar

StartChar: W
Encoding: 87 87 58
Width: 851
GlyphClass: 2
Flags: W
LayerCount: 4
Fore
SplineSet
452 984 m 0,0,1
 448 984 448 984 445 986 c 0,2,3
 418 1005 418 1005 416 1005 c 2,4,-1
 382 994 l 2,5,6
 377 994 377 994 374 997 c 128,-1,7
 371 1000 371 1000 371 1005 c 2,8,-1
 381 1039 l 2,9,10
 381 1042 381 1042 379 1044 c 0,11,12
 359 1071 359 1071 359 1074 c 0,13,14
 359 1083 359 1083 369 1084 c 2,15,-1
 398 1084 l 2,16,17
 403 1084 403 1084 406 1088 c 2,18,-1
 423 1113 l 2,19,20
 426 1117 426 1117 431 1117 c 0,21,22
 437 1117 437 1117 441 1110 c 2,23,-1
 450 1082 l 2,24,25
 452 1077 452 1077 457 1076 c 2,26,-1
 485 1067 l 2,27,28
 492 1064 492 1064 492 1058 c 0,29,30
 492 1053 492 1053 488 1050 c 2,31,-1
 465 1032 l 2,32,33
 460 1029 460 1029 460 1024 c 2,34,-1
 461 994 l 2,35,36
 461 984 461 984 452 984 c 0,0,1
790 1096 m 2,37,-1
 786 1097 l 1,38,39
 767 1110 767 1110 765 1110 c 256,40,41
 763 1110 763 1110 752.5 1106.5 c 128,-1,42
 742 1103 742 1103 741 1103 c 0,43,44
 733 1103 733 1103 733 1110 c 0,45,46
 733 1111 733 1111 736.5 1122 c 128,-1,47
 740 1133 740 1133 740 1135 c 2,48,-1
 739 1139 l 1,49,50
 724 1157 724 1157 724 1160 c 0,51,52
 724 1165 724 1165 732 1167 c 2,53,-1
 752 1167 l 2,54,55
 756 1167 756 1167 758 1170 c 2,56,-1
 770 1187 l 2,57,58
 772 1190 772 1190 775 1190 c 0,59,60
 780 1190 780 1190 783 1185 c 2,61,-1
 789 1165 l 2,62,63
 790 1162 790 1162 794 1161 c 2,64,-1
 814 1155 l 2,65,66
 819 1152 819 1152 819 1147 c 0,67,68
 819 1144 819 1144 816 1142 c 2,69,-1
 799 1130 l 2,70,71
 796 1128 796 1128 796 1124 c 2,72,-1
 797 1103 l 2,73,74
 797 1096 797 1096 790 1096 c 2,37,-1
255 -6 m 1,75,-1
 147 9 l 1,76,-1
 15 898 l 1,77,-1
 128 915 l 1,78,-1
 231 218 l 1,79,-1
 322 420 l 1,80,-1
 425 423 l 1,81,-1
 544 187 l 1,82,83
 573 276 573 276 606 391 c 1,84,85
 534 460 534 460 490 573 c 0,86,87
 460 652 460 652 460 724 c 0,88,89
 460 755 460 755 465 784 c 0,90,91
 478 839 478 839 514 874 c 1,92,93
 503 887 503 887 503 906 c 0,94,95
 503 922 503 922 516 936 c 1,96,-1
 516 937 l 1,97,98
 509 948 509 948 509 960 c 0,99,100
 509 979 509 979 522 1001 c 0,101,102
 537 1030 537 1030 561 1045 c 1,103,104
 556 1056 556 1056 556 1067 c 0,105,106
 556 1082 556 1082 564.5 1097.5 c 128,-1,107
 573 1113 573 1113 587 1122 c 1,108,109
 583 1131 583 1131 583 1141 c 0,110,111
 583 1168 583 1168 611 1191 c 1,112,-1
 610 1203 l 2,113,114
 610 1230 610 1230 634 1242 c 1,115,116
 637 1257 637 1257 643 1271 c 2,117,-1
 648 1286 l 2,118,119
 654 1311 654 1311 670 1311 c 0,120,121
 682 1311 682 1311 687 1303 c 0,122,123
 696 1283 696 1283 696 1241 c 1,124,125
 711 1234 711 1234 711 1219 c 2,126,-1
 711 1211 l 2,127,128
 710 1205 710 1205 703 1195 c 1,129,130
 717 1181 717 1181 717 1159 c 0,131,132
 717 1142 717 1142 705 1130 c 1,133,134
 717 1120 717 1120 717 1099 c 0,135,136
 717 1080 717 1080 704 1065 c 1,137,138
 726 1054 726 1054 726 1027 c 0,139,140
 726 999 726 999 702 977 c 1,141,142
 712 965 712 965 712 949 c 0,143,144
 712 938 712 938 707 926 c 1,145,146
 742 916 742 916 763 884 c 1,147,148
 787 858 787 858 791 773 c 1,149,-1
 791 759 l 2,150,151
 791 673 791 673 750 495 c 1,152,-1
 836 437 l 1,153,-1
 804 390 l 2,154,155
 768 340 768 340 709 340 c 1,156,157
 672 210 672 210 641.5 119.5 c 128,-1,158
 611 29 611 29 607 21 c 1,159,-1
 503 15 l 1,160,-1
 377 265 l 1,161,-1
 255 -6 l 1,75,-1
529 888 m 1,162,163
 582 929 582 929 668 929 c 2,164,-1
 684 929 l 1,165,166
 686 936 686 936 686 943 c 0,167,168
 686 949 686 949 684 955 c 0,169,170
 678 967 678 967 668 967 c 0,171,172
 654 967 654 967 616 957 c 0,173,174
 526 939 526 939 526 900 c 0,175,176
 526 893 526 893 529 888 c 1,162,163
675 1248 m 1,177,178
 675 1266 675 1266 671 1284 c 2,179,-1
 670 1288 l 1,180,181
 668 1277 668 1277 664 1267.5 c 128,-1,182
 660 1258 660 1258 657 1248 c 1,183,-1
 663 1249 l 1,184,-1
 675 1248 l 1,177,178
681 1200 m 1,185,186
 690 1210 690 1210 690 1216 c 0,187,188
 690 1221 690 1221 682 1224 c 128,-1,189
 674 1227 674 1227 665 1227 c 0,190,191
 657 1227 657 1227 651 1226 c 0,192,193
 631 1220 631 1220 631 1204 c 1,194,195
 639 1207 639 1207 647 1207 c 0,196,197
 656 1207 656 1207 664.5 1203.5 c 128,-1,198
 673 1200 673 1200 681 1200 c 1,185,186
606 1132 m 1,199,200
 638 1143 638 1143 661 1143 c 0,201,202
 673 1143 673 1143 684 1140 c 1,203,204
 696 1147 696 1147 696 1158 c 0,205,206
 696 1166 696 1166 692 1175 c 0,207,208
 689 1179 689 1179 683 1179 c 2,209,-1
 677 1178 l 1,210,-1
 652 1186 l 2,211,212
 643 1186 643 1186 632 1179 c 0,213,214
 630 1176 630 1176 626 1175 c 0,215,216
 603 1156 603 1156 603 1141 c 0,217,218
 603 1136 603 1136 606 1132 c 1,199,200
579 1054 m 1,219,220
 589 1058 589 1058 599 1059.5 c 128,-1,221
 609 1061 609 1061 620 1064 c 0,222,223
 647 1070 647 1070 675 1071 c 1,224,225
 697 1082 697 1082 697 1099 c 0,226,227
 697 1112 697 1112 685 1118 c 1,228,-1
 683 1118 l 2,229,230
 678 1118 678 1118 675 1121 c 2,231,-1
 666 1122 l 2,232,233
 651 1122 651 1122 637.5 1118.5 c 128,-1,234
 624 1115 624 1115 610 1110 c 128,-1,235
 596 1105 596 1105 586.5 1092.5 c 128,-1,236
 577 1080 577 1080 577 1065 c 0,237,238
 577 1059 577 1059 579 1054 c 1,219,220
533 950 m 1,239,240
 569 970 569 970 615 979 c 0,241,242
 647 989 647 989 669 989 c 2,243,-1
 681 988 l 1,244,245
 689 993 689 993 696 1002 c 128,-1,246
 703 1011 703 1011 703 1021 c 0,247,248
 701 1048 701 1048 680 1048 c 0,249,250
 663 1048 663 1048 654 1045 c 2,251,-1
 634 1043 l 2,252,253
 608 1042 608 1042 584 1034 c 0,254,255
 581 1031 581 1031 577 1031 c 0,256,257
 558 1019 558 1019 542 995 c 0,258,259
 530 978 530 978 530 963 c 0,260,261
 530 956 530 956 533 950 c 1,239,240
641 527 m 1,262,263
 677 690 677 690 677 758 c 0,264,265
 677 807 677 807 671 816 c 1,266,267
 599 816 599 816 582 776 c 0,268,269
 573 755 573 755 573 728 c 0,270,271
 573 679 573 679 592 625 c 128,-1,272
 611 571 611 571 641 527 c 1,262,263
372 529 m 2,273,-1
 366 530 l 1,274,275
 333 548 333 548 330 548 c 2,276,-1
 325 546 l 2,277,278
 293 529 293 529 289 529 c 0,279,280
 286 529 286 529 282 531.5 c 128,-1,281
 278 534 278 534 278 541 c 2,282,-1
 284 578 l 2,283,284
 284 583 284 583 280 586 c 2,285,-1
 256 610 l 2,286,287
 252 614 252 614 252 619 c 0,288,289
 252 627 252 627 262 630 c 2,290,-1
 296 635 l 2,291,292
 302 636 302 636 305 641 c 2,293,-1
 320 672 l 2,294,295
 324 678 324 678 330 678 c 0,296,297
 337 678 337 678 341 672 c 2,298,-1
 356 641 l 2,299,300
 359 636 359 636 365 635 c 2,301,-1
 398 630 l 2,302,303
 409 627 409 627 409 619 c 0,304,305
 409 614 409 614 405 610 c 2,306,-1
 380 586 l 2,307,308
 377 583 377 583 377 578 c 2,309,-1
 383 541 l 2,310,311
 383 534 383 534 379 531.5 c 128,-1,312
 375 529 375 529 372 529 c 2,273,-1
EndSplineSet
Validated: 1
EndChar

StartChar: X
Encoding: 88 88 59
Width: 632
GlyphClass: 2
Flags: W
LayerCount: 4
Fore
SplineSet
233 844 m 1,0,-1
 229 845 l 1,1,2
 194 848 194 848 185 875 c 0,3,4
 182 884 182 884 182 892 c 0,5,6
 182 910 182 910 196 927 c 1,7,8
 188 938 188 938 188 952 c 0,9,10
 188 969 188 969 199 990 c 0,11,12
 215 1023 215 1023 242 1040 c 1,13,14
 237 1051 237 1051 237 1063 c 0,15,16
 237 1079 237 1079 246 1095 c 128,-1,17
 255 1111 255 1111 270 1121 c 1,18,19
 265 1130 265 1130 265 1140 c 0,20,21
 265 1168 265 1168 295 1193 c 1,22,23
 293 1200 293 1200 293 1206 c 0,24,25
 293 1227 293 1227 310 1241 c 0,26,27
 314 1244 314 1244 319 1246 c 1,28,29
 322 1262 322 1262 330 1285 c 0,30,31
 335 1302 335 1302 339.5 1310 c 128,-1,32
 344 1318 344 1318 356 1318 c 0,33,34
 382 1318 382 1318 382 1258 c 2,35,-1
 382 1245 l 1,36,37
 387 1243 387 1243 391 1239 c 0,38,39
 399 1230 399 1230 399 1220 c 256,40,41
 399 1210 399 1210 390 1197 c 1,42,43
 405 1182 405 1182 405 1158 c 0,44,45
 405 1141 405 1141 392 1129 c 1,46,47
 405 1118 405 1118 405 1099 c 0,48,49
 405 1077 405 1077 391 1062 c 1,50,51
 414 1049 414 1049 414 1021 c 256,52,53
 414 993 414 993 388 969 c 1,54,55
 398 957 398 957 398 941 c 0,56,57
 398 910 398 910 374 882 c 0,58,59
 357 861 357 861 338.5 857.5 c 128,-1,60
 320 854 320 854 233 844 c 1,0,-1
233 866 m 0,61,62
 249 868 249 868 267 868 c 0,63,64
 307 868 307 868 341 879 c 0,65,66
 354 885 354 885 363.5 902 c 128,-1,67
 373 919 373 919 374 934 c 0,68,69
 374 960 374 960 347 960 c 0,70,71
 330 960 330 960 303 950 c 2,72,-1
 284 945 l 2,73,74
 247 935 247 935 220 920 c 0,75,76
 217 915 217 915 214 914 c 128,-1,77
 211 913 211 913 209 911 c 0,78,79
 202 901 202 901 202 892 c 0,80,81
 202 886 202 886 208 876 c 128,-1,82
 214 866 214 866 233 866 c 0,61,62
361 1252 m 1,83,84
 361 1262 361 1262 356 1296 c 1,85,-1
 342 1253 l 1,86,-1
 361 1252 l 1,83,84
367 1202 m 1,87,88
 377 1212 377 1212 377 1218 c 256,89,90
 377 1224 377 1224 368.5 1228 c 128,-1,91
 360 1232 360 1232 352 1232 c 0,92,93
 335 1232 335 1232 325 1225.5 c 128,-1,94
 315 1219 315 1219 315 1208 c 2,95,-1
 315 1206 l 1,96,97
 325 1210 325 1210 336 1210 c 0,98,99
 343 1209 343 1209 351 1205.5 c 128,-1,100
 359 1202 359 1202 367 1202 c 1,87,88
289 1130 m 1,101,102
 321 1142 321 1142 349 1142 c 0,103,104
 359 1142 359 1142 370 1140 c 1,105,106
 384 1148 384 1148 384 1161 c 0,107,108
 384 1168 384 1168 379 1177 c 0,109,110
 375 1180 375 1180 375 1181 c 2,111,-1
 363 1180 l 2,112,113
 356 1182 356 1182 349 1185 c 128,-1,114
 342 1188 342 1188 335 1188 c 0,115,116
 326 1188 326 1188 316 1181 c 0,117,118
 314 1178 314 1178 310 1177 c 0,119,120
 285 1158 285 1158 285 1141 c 0,121,122
 285 1135 285 1135 289 1130 c 1,101,102
261 1050 m 1,123,124
 271 1054 271 1054 282.5 1055.5 c 128,-1,125
 294 1057 294 1057 307 1060 c 0,126,127
 334 1065 334 1065 361 1067 c 1,128,129
 384 1077 384 1077 384 1096 c 0,130,131
 384 1111 384 1111 371 1117 c 1,132,-1
 368 1117 l 2,133,134
 364 1117 364 1117 362 1120 c 2,135,-1
 352 1121 l 2,136,137
 336 1121 336 1121 324 1117 c 0,138,139
 315 1117 315 1117 291.5 1109 c 128,-1,140
 268 1101 268 1101 259 1071 c 0,141,142
 257 1066 257 1066 257 1062 c 0,143,144
 257 1055 257 1055 261 1050 c 1,123,124
212 940 m 1,145,146
 253 963 253 963 300 971 c 1,147,148
 332 981 332 981 356 981 c 2,149,-1
 368 980 l 1,150,151
 390 994 390 994 390 1013 c 0,152,153
 390 1034 390 1034 381.5 1038 c 128,-1,154
 373 1042 373 1042 363 1042 c 2,155,-1
 359 1042 l 2,156,157
 355 1043 355 1043 344 1043 c 0,158,159
 329 1043 329 1043 307 1040 c 0,160,161
 274 1035 274 1035 265 1029 c 0,162,163
 263 1027 263 1027 260 1026 c 0,164,165
 246 1017 246 1017 232 1002 c 0,166,167
 208 975 208 975 208 954 c 0,168,169
 208 946 208 946 212 940 c 1,145,146
120 939 m 0,170,171
 116 939 116 939 113 941 c 2,172,-1
 88 959 l 2,173,174
 85 961 85 961 81 961 c 2,175,-1
 45 949 l 2,176,177
 41 949 41 949 38 952.5 c 128,-1,178
 35 956 35 956 35 960 c 2,179,-1
 46 997 l 2,180,181
 46 1000 46 1000 44 1002 c 0,182,183
 22 1030 22 1030 22 1033 c 0,184,185
 22 1043 22 1043 33 1044 c 2,186,-1
 64 1044 l 2,187,188
 69 1044 69 1044 72 1048 c 2,189,-1
 90 1074 l 2,190,191
 93 1078 93 1078 98 1078 c 2,192,-1
 102 1078 l 2,193,194
 106 1078 106 1078 109 1071 c 2,195,-1
 118 1042 l 2,196,197
 120 1037 120 1037 125 1035 c 2,198,-1
 155 1027 l 2,199,200
 162 1023 162 1023 162 1016 c 0,201,202
 162 1011 162 1011 158 1008 c 2,203,-1
 133 990 l 2,204,205
 129 986 129 986 129 981 c 2,206,-1
 130 950 l 2,207,208
 130 939 130 939 120 939 c 0,170,171
474 1056 m 0,209,210
 472 1056 472 1056 469 1058 c 0,211,212
 449 1072 449 1072 448 1072 c 2,213,-1
 422 1064 l 2,214,215
 419 1064 419 1064 417 1066 c 128,-1,216
 415 1068 415 1068 415 1071 c 2,217,-1
 421 1097 l 1,218,-1
 420 1101 l 1,219,220
 405 1120 405 1120 405 1123 c 0,221,222
 405 1130 405 1130 413 1130 c 2,223,-1
 435 1130 l 2,224,225
 438 1130 438 1130 441 1134 c 2,226,-1
 453 1152 l 2,227,228
 456 1155 456 1155 460 1155 c 0,229,230
 464 1154 464 1154 466 1150 c 2,231,-1
 473 1129 l 2,232,233
 474 1125 474 1125 478 1124 c 2,234,-1
 499 1118 l 2,235,236
 504 1115 504 1115 504 1110 c 0,237,238
 504 1107 504 1107 501 1105 c 2,239,-1
 484 1092 l 2,240,241
 481 1090 481 1090 481 1086 c 2,242,-1
 481 1064 l 2,243,244
 481 1056 481 1056 474 1056 c 0,209,210
518 -31 m 1,245,-1
 310 342 l 1,246,-1
 116 -30 l 1,247,-1
 15 23 l 1,248,-1
 243 461 l 1,249,-1
 15 869 l 1,250,-1
 114 925 l 1,251,-1
 306 582 l 1,252,-1
 484 924 l 1,253,-1
 585 872 l 1,254,-1
 372 463 l 1,255,-1
 617 25 l 1,256,-1
 518 -31 l 1,245,-1
350 83 m 0,257,258
 348 83 348 83 335 89.5 c 128,-1,259
 322 96 322 96 320 96 c 256,260,261
 318 96 318 96 305 89.5 c 128,-1,262
 292 83 292 83 290 83 c 0,263,264
 281 83 281 83 281 93 c 2,265,-1
 285 119 l 2,266,267
 285 123 285 123 283 125 c 2,268,-1
 265 142 l 2,269,270
 262 145 262 145 262 148 c 0,271,272
 262 156 262 156 270 157 c 2,273,-1
 294 161 l 2,274,275
 299 161 299 161 301 165 c 2,276,-1
 312 188 l 2,277,278
 315 192 315 192 320 192 c 0,279,280
 324 192 324 192 327 188 c 2,281,-1
 338 165 l 2,282,283
 340 161 340 161 345 161 c 2,284,-1
 369 157 l 2,285,286
 376 156 376 156 376 148 c 0,287,288
 376 145 376 145 374 142 c 2,289,-1
 356 125 l 2,290,291
 354 123 354 123 354 119 c 2,292,-1
 358 91 l 2,293,294
 358 83 358 83 350 83 c 0,257,258
EndSplineSet
Validated: 1
EndChar

StartChar: Y
Encoding: 89 89 60
Width: 642
GlyphClass: 2
Flags: W
LayerCount: 4
Fore
SplineSet
306 869 m 1,0,1
 277 873 277 873 267 896 c 0,2,3
 263 904 263 904 263 913 c 0,4,5
 263 927 263 927 275 942 c 1,6,7
 270 951 270 951 270 962 c 0,8,9
 270 982 270 982 283 1004.5 c 128,-1,10
 296 1027 296 1027 316 1040 c 1,11,12
 312 1050 312 1050 312 1060 c 0,13,14
 312 1073 312 1073 319.5 1087 c 128,-1,15
 327 1101 327 1101 339 1109 c 1,16,17
 336 1117 336 1117 336 1125 c 0,18,19
 336 1150 336 1150 361 1172 c 1,20,-1
 360 1182 l 2,21,22
 360 1205 360 1205 382 1218 c 1,23,24
 385 1231 385 1231 390 1244 c 0,25,26
 392 1252 392 1252 394 1256 c 0,27,28
 399 1278 399 1278 415 1280 c 0,29,30
 439 1280 439 1280 439 1226 c 2,31,-1
 439 1216 l 1,32,33
 443 1214 443 1214 446 1211 c 0,34,35
 454 1203 454 1203 454 1193 c 0,36,37
 453 1183 453 1183 447 1174 c 1,38,39
 459 1160 459 1160 459 1143 c 0,40,41
 459 1127 459 1127 448 1116 c 1,42,43
 459 1105 459 1105 459 1089 c 0,44,45
 459 1071 459 1071 447 1058 c 1,46,47
 466 1047 466 1047 466 1023 c 0,48,49
 466 998 466 998 445 978 c 1,50,51
 454 968 454 968 454 954 c 0,52,53
 454 927 454 927 432 902 c 0,54,55
 417 884 417 884 400 880 c 0,56,57
 368 875 368 875 306 869 c 1,0,1
309 891 m 2,58,-1
 339 893 l 2,59,60
 370 894 370 894 399 901 c 0,61,62
 414 907 414 907 423 925 c 0,63,64
 429 936 429 936 429 946 c 0,65,66
 429 952 429 952 427 957 c 0,67,68
 423 968 423 968 413 968 c 0,69,70
 397 968 397 968 363 958 c 0,71,72
 330 951 330 951 305 938 c 0,73,74
 286 926 286 926 286 908 c 0,75,76
 286 904 286 904 289 897.5 c 128,-1,77
 292 891 292 891 309 891 c 2,58,-1
419 1223 m 1,78,79
 418 1238 418 1238 415 1251 c 1,80,-1
 405 1224 l 1,81,-1
 419 1223 l 1,78,79
424 1180 m 1,82,83
 432 1188 432 1188 432 1192 c 256,84,85
 432 1196 432 1196 425 1199 c 128,-1,86
 418 1202 418 1202 412 1202 c 0,87,88
 381 1202 381 1202 381 1184 c 1,89,90
 388 1186 388 1186 394 1186 c 0,91,92
 405 1186 405 1186 411 1183 c 128,-1,93
 417 1180 417 1180 424 1180 c 1,82,83
358 1119 m 0,94,95
 386 1128 386 1128 409 1128 c 0,96,97
 418 1128 418 1128 427 1126 c 1,98,99
 438 1133 438 1133 438 1143 c 0,100,101
 438 1152 438 1152 432 1159 c 1,102,-1
 427 1159 l 2,103,104
 417 1159 417 1159 407 1162 c 128,-1,105
 397 1165 397 1165 392 1165 c 0,106,107
 387 1164 387 1164 383.5 1160.5 c 128,-1,108
 380 1157 380 1157 377 1156 c 2,109,-1
 366 1145 l 2,110,111
 356 1133 356 1133 356 1125 c 0,112,113
 356 1122 356 1122 358 1119 c 0,94,95
334 1049 m 1,114,115
 344 1052 344 1052 353.5 1053.5 c 128,-1,116
 363 1055 363 1055 374 1058 c 0,117,118
 396 1063 396 1063 420 1064 c 1,119,120
 438 1073 438 1073 438 1087 c 0,121,122
 438 1100 438 1100 428 1104 c 1,123,-1
 426 1104 l 2,124,125
 422 1104 422 1104 420 1106 c 2,126,-1
 411 1107 l 2,127,128
 393 1107 393 1107 362 1097 c 0,129,130
 341 1090 341 1090 334 1067 c 0,131,132
 332 1062 332 1062 332 1057 c 0,133,134
 332 1053 332 1053 334 1049 c 1,114,115
292 956 m 1,135,136
 325 973 325 973 360 979 c 1,137,138
 392 990 392 990 414 990 c 2,139,-1
 425 989 l 1,140,141
 431 993 431 993 437.5 1001 c 128,-1,142
 444 1009 444 1009 444 1016 c 2,143,-1
 444 1018 l 1,144,145
 438 1040 438 1040 413 1040 c 2,146,-1
 387 1037 l 2,147,148
 362 1036 362 1036 339 1029 c 0,149,150
 338 1029 338 1029 336.5 1027.5 c 128,-1,151
 335 1026 335 1026 332 1026 c 0,152,153
 316 1015 316 1015 301 994 c 0,154,155
 290 979 290 979 290 966 c 0,156,157
 290 961 290 961 292 956 c 1,135,136
202 834 m 2,158,-1
 201 834 l 2,159,160
 199 834 199 834 191 839.5 c 128,-1,161
 183 845 183 845 182 845 c 2,162,-1
 163 839 l 2,163,164
 158 839 158 839 158 844 c 2,165,-1
 163 862 l 2,166,167
 163 864 163 864 162 865 c 0,168,169
 152 879 152 879 152 881 c 0,170,171
 152 886 152 886 157 886 c 2,172,-1
 172 886 l 2,173,174
 175 886 175 886 181 894.5 c 128,-1,175
 187 903 187 903 189 903 c 0,176,177
 193 903 193 903 199 885 c 0,178,179
 200 883 200 883 218 877 c 0,180,181
 221 876 221 876 221 872 c 0,182,183
 221 870 221 870 207 859 c 0,184,185
 205 857 205 857 205 854 c 2,186,-1
 205 839 l 2,187,188
 205 836 205 836 202 834 c 2,158,-1
320 4 m 0,189,190
 240 4 240 4 185 38 c 128,-1,191
 130 72 130 72 96.5 115.5 c 128,-1,192
 63 159 63 159 48 193.5 c 128,-1,193
 33 228 33 228 32 233 c 2,194,-1
 15 288 l 1,195,-1
 124 321 l 1,196,197
 144 256 144 256 149 246 c 0,198,199
 173 191 173 191 218 154 c 1,200,-1
 228 185 l 2,201,202
 228 188 228 188 207 214 c 0,203,204
 205 217 205 217 205 220 c 0,205,206
 205 230 205 230 215 230 c 2,207,-1
 245 230 l 2,208,209
 250 231 250 231 253 235 c 2,210,-1
 270 259 l 2,211,212
 273 263 273 263 277 263 c 2,213,-1
 282 263 l 2,214,215
 285 263 285 263 287 257 c 2,216,-1
 297 229 l 2,217,218
 298 224 298 224 303 222 c 2,219,-1
 331 214 l 2,220,221
 339 212 339 212 339 204 c 0,222,223
 339 199 339 199 335 196 c 2,224,-1
 311 179 l 2,225,226
 307 176 307 176 307 170 c 2,227,-1
 308 141 l 2,228,229
 308 134 308 134 298 131 c 0,230,231
 295 131 295 131 280.5 141.5 c 128,-1,232
 266 152 266 152 263 152 c 2,233,-1
 235 142 l 1,234,235
 269 118 269 118 320 118 c 0,236,237
 355 118 355 118 382 147 c 0,238,239
 447 223 447 223 476 379 c 1,240,241
 416 317 416 317 316 310 c 1,242,-1
 308 310 l 2,243,244
 209 310 209 310 140 379 c 1,245,246
 74 452 74 452 49.5 555 c 128,-1,247
 25 658 25 658 23 743 c 2,248,-1
 22 813 l 2,249,250
 22 835 22 835 27 906 c 1,251,-1
 141 899 l 1,252,253
 136 824 136 824 136 801 c 0,254,255
 136 769 136 769 139 711.5 c 128,-1,256
 142 654 142 654 161 579 c 128,-1,257
 180 504 180 504 222 459 c 0,258,259
 254 424 254 424 304 424 c 0,260,261
 443 428 443 428 489 659 c 0,262,263
 513 780 513 780 513 887 c 2,264,-1
 513 892 l 1,265,-1
 627 895 l 1,266,-1
 628 865 l 2,267,268
 628 839 628 839 627.5 768 c 128,-1,269
 627 697 627 697 616 561 c 0,270,271
 566 4 566 4 320 4 c 0,189,190
EndSplineSet
Validated: 1
EndChar

StartChar: Z
Encoding: 90 90 61
Width: 546
GlyphClass: 2
Flags: W
LayerCount: 4
Fore
SplineSet
160 1207 m 0,0,1
 156 1207 156 1207 152 1209 c 0,2,3
 119 1232 119 1232 116 1232 c 2,4,-1
 75 1218 l 2,5,6
 71 1218 71 1218 67 1222 c 128,-1,7
 63 1226 63 1226 63 1230 c 2,8,-1
 75 1272 l 2,9,10
 75 1276 75 1276 72 1279 c 2,11,-1
 51 1307 l 2,12,13
 48 1311 48 1311 48 1315 c 0,14,15
 48 1317 48 1317 50.5 1321.5 c 128,-1,16
 53 1326 53 1326 60 1326 c 2,17,-1
 96 1326 l 2,18,19
 102 1326 102 1326 105 1331 c 2,20,-1
 125 1361 l 2,21,22
 129 1366 129 1366 135 1366 c 0,23,24
 144 1366 144 1366 147 1358 c 2,25,-1
 158 1324 l 2,26,27
 160 1318 160 1318 166 1316 c 2,28,-1
 200 1306 l 2,29,30
 208 1304 208 1304 208 1295 c 0,31,32
 208 1289 208 1289 203 1285 c 2,33,-1
 175 1264 l 2,34,35
 170 1260 170 1260 170 1254 c 2,36,-1
 171 1219 l 2,37,38
 171 1207 171 1207 160 1207 c 0,0,1
405 156 m 2,39,-1
 400 157 l 1,40,41
 377 175 377 175 374 175 c 2,42,-1
 341 164 l 2,43,44
 338 164 338 164 335.5 167 c 128,-1,45
 333 170 333 170 333 174 c 2,46,-1
 342 205 l 2,47,48
 342 208 342 208 332 221 c 128,-1,49
 322 234 322 234 322 237 c 0,50,51
 322 246 322 246 331 246 c 2,52,-1
 357 246 l 2,53,54
 362 246 362 246 365 250 c 2,55,-1
 380 272 l 2,56,57
 383 276 383 276 387 276 c 2,58,-1
 391 276 l 2,59,60
 394 276 394 276 396 270 c 2,61,-1
 405 245 l 2,62,63
 406 240 406 240 411 239 c 2,64,-1
 436 231 l 2,65,66
 443 228 443 228 443 222 c 0,67,68
 443 218 443 218 439 215 c 2,69,-1
 418 199 l 2,70,71
 414 196 414 196 414 192 c 2,72,-1
 415 165 l 2,73,74
 415 156 415 156 405 156 c 2,39,-1
531 4 m 1,75,-1
 72 4 l 1,76,-1
 21 87 l 1,77,-1
 382 798 l 1,78,-1
 15 798 l 1,79,-1
 15 911 l 1,80,-1
 144 911 l 1,81,82
 140 920 140 920 140 929 c 0,83,84
 140 948 140 948 155 965 c 1,85,86
 147 977 147 977 147 990 c 0,87,88
 147 1009 147 1009 158 1029 c 0,89,90
 174 1062 174 1062 202 1080 c 1,91,92
 197 1092 197 1092 197 1104 c 0,93,94
 197 1119 197 1119 205.5 1135.5 c 128,-1,95
 214 1152 214 1152 229 1162 c 1,96,97
 224 1171 224 1171 224 1181 c 0,98,99
 224 1209 224 1209 254 1235 c 1,100,-1
 253 1247 l 2,101,102
 253 1268 253 1268 270 1284 c 0,103,104
 274 1287 274 1287 279 1289 c 1,105,106
 282 1305 282 1305 288.5 1323.5 c 128,-1,107
 295 1342 295 1342 300 1351.5 c 128,-1,108
 305 1361 305 1361 316 1362 c 0,109,110
 343 1362 343 1362 343 1297 c 2,111,-1
 343 1288 l 1,112,113
 360 1278 360 1278 360 1262 c 0,114,115
 360 1252 360 1252 351 1239 c 1,116,117
 366 1222 366 1222 366 1200 c 0,118,119
 366 1183 366 1183 353 1170 c 1,120,121
 366 1159 366 1159 366 1138 c 256,122,123
 366 1117 366 1117 351 1102 c 1,124,125
 375 1089 375 1089 375 1059 c 0,126,127
 375 1033 375 1033 349 1008 c 1,128,129
 360 995 360 995 360 978 c 0,130,131
 360 944 360 944 327 911 c 1,132,-1
 475 911 l 1,133,-1
 525 829 l 1,134,-1
 164 118 l 1,135,-1
 531 118 l 1,136,-1
 531 4 l 1,75,-1
322 1295 m 1,137,138
 322 1317 322 1317 317 1339 c 1,139,140
 312 1329 312 1329 308.5 1317.5 c 128,-1,141
 305 1306 305 1306 302 1295 c 1,142,-1
 309 1296 l 1,143,-1
 322 1295 l 1,137,138
328 1244 m 1,144,145
 338 1254 338 1254 338 1261 c 0,146,147
 338 1267 338 1267 329 1270.5 c 128,-1,148
 320 1274 320 1274 311 1274 c 0,149,150
 274 1273 274 1273 274 1248 c 1,151,152
 283 1251 283 1251 292 1251 c 0,153,154
 304 1251 304 1251 312.5 1247.5 c 128,-1,155
 321 1244 321 1244 328 1244 c 1,144,145
248 1171 m 1,156,157
 282 1183 282 1183 309 1183 c 0,158,159
 320 1183 320 1183 331 1181 c 1,160,161
 345 1189 345 1189 345 1202 c 0,162,163
 345 1210 345 1210 340 1219 c 0,164,165
 338 1223 338 1223 334 1223 c 2,166,-1
 332 1222 l 1,167,168
 319 1222 319 1222 308.5 1226 c 128,-1,169
 298 1230 298 1230 295 1230 c 0,170,171
 287 1230 287 1230 276 1223 c 0,172,173
 273 1219 273 1219 269 1218 c 0,174,175
 256 1208 256 1208 248 1194 c 0,176,177
 245 1188 245 1188 245 1182 c 256,178,179
 245 1176 245 1176 248 1171 c 1,156,157
220 1089 m 1,180,181
 231 1094 231 1094 267 1099 c 0,182,183
 295 1105 295 1105 322 1107 c 1,184,185
 333 1112 333 1112 340 1122 c 0,186,187
 345 1128 345 1128 345 1137 c 0,188,189
 345 1152 345 1152 332 1158 c 1,190,-1
 330 1158 l 2,191,192
 325 1158 325 1158 322 1161 c 2,193,-1
 312 1162 l 2,194,195
 296 1162 296 1162 284 1158 c 1,196,-1
 282 1158 l 1,197,198
 217 1145 217 1145 217 1103 c 0,199,200
 217 1095 217 1095 220 1089 c 1,180,181
171 978 m 1,201,202
 213 1001 213 1001 260 1010 c 0,203,204
 265 1012 265 1012 270 1012 c 0,205,206
 294 1020 294 1020 314 1020 c 2,207,-1
 328 1018 l 1,208,209
 350 1033 350 1033 352 1052 c 0,210,211
 352 1073 352 1073 343.5 1077.5 c 128,-1,212
 335 1082 335 1082 324 1082 c 2,213,-1
 320 1082 l 2,214,215
 315 1083 315 1083 305 1083 c 0,216,217
 264 1083 264 1083 229 1071 c 0,218,219
 227 1071 227 1071 224.5 1068.5 c 128,-1,220
 222 1066 222 1066 219 1066 c 0,221,222
 205 1057 205 1057 191 1041 c 0,223,224
 166 1014 166 1014 166 994 c 0,225,226
 166 985 166 985 171 978 c 1,201,202
283 911 m 1,227,-1
 302 917 l 2,228,229
 315 923 315 923 324.5 940 c 128,-1,230
 334 957 334 957 335 972 c 0,231,232
 335 999 335 999 308 999 c 0,233,234
 290 999 290 999 258 988 c 0,235,236
 216 977 216 977 178 958 c 0,237,238
 176 953 176 953 171 953 c 1,239,240
 161 939 161 939 161 929 c 256,241,242
 161 919 161 919 169 911 c 1,243,-1
 283 911 l 1,227,-1
EndSplineSet
Validated: 1
EndChar

StartChar: bracketleft
Encoding: 91 91 62
Width: 238
GlyphClass: 2
Flags: W
LayerCount: 4
Fore
SplineSet
223 -37 m 1,0,-1
 15 -37 l 1,1,-1
 15 961 l 1,2,-1
 223 961 l 1,3,-1
 223 848 l 1,4,-1
 129 848 l 1,5,-1
 129 77 l 1,6,-1
 223 77 l 1,7,-1
 223 -37 l 1,0,-1
EndSplineSet
Validated: 1
EndChar

StartChar: backslash
Encoding: 92 92 63
Width: 465
GlyphClass: 2
Flags: W
LayerCount: 4
Fore
SplineSet
347 121 m 1,0,-1
 15 811 l 1,1,-1
 117 860 l 1,2,-1
 450 171 l 1,3,-1
 347 121 l 1,0,-1
EndSplineSet
Validated: 1
EndChar

StartChar: bracketright
Encoding: 93 93 64
Width: 238
GlyphClass: 2
Flags: W
LayerCount: 4
Fore
SplineSet
223 -46 m 1,0,-1
 15 -46 l 1,1,-1
 15 68 l 1,2,-1
 109 68 l 1,3,-1
 109 839 l 1,4,-1
 15 839 l 1,5,-1
 15 952 l 1,6,-1
 223 952 l 1,7,-1
 223 -46 l 1,0,-1
EndSplineSet
Validated: 1
EndChar

StartChar: asciicircum
Encoding: 94 94 65
Width: 470
GlyphClass: 2
Flags: W
LayerCount: 4
Fore
SplineSet
375 833 m 1,0,-1
 237 971 l 1,1,-1
 94 833 l 1,2,-1
 15 915 l 1,3,-1
 198 1091 l 1,4,-1
 278 1091 l 1,5,-1
 455 913 l 1,6,-1
 375 833 l 1,0,-1
EndSplineSet
Validated: 1
EndChar

StartChar: underscore
Encoding: 95 95 66
Width: 589
GlyphClass: 2
Flags: W
LayerCount: 4
Fore
SplineSet
574 -99 m 1,0,-1
 15 -99 l 1,1,-1
 15 15 l 1,2,-1
 574 15 l 1,3,-1
 574 -99 l 1,0,-1
EndSplineSet
Validated: 1
EndChar

StartChar: grave
Encoding: 96 96 67
Width: 250
GlyphClass: 2
Flags: W
LayerCount: 4
Fore
SplineSet
142 870 m 1,0,-1
 15 1049 l 1,1,-1
 108 1115 l 1,2,-1
 235 936 l 1,3,-1
 142 870 l 1,0,-1
EndSplineSet
Validated: 1
EndChar

StartChar: a
Encoding: 97 97 68
Width: 550
GlyphClass: 2
Flags: W
LayerCount: 4
Fore
SplineSet
500.5 0 m 1,0,-1
 415 0 l 1,1,-1
 415 104.25 l 1,2,3
 398.5 75 398.5 75 376 52.5 c 0,4,5
 322 0 322 0 249.25 0 c 0,6,7
 167.5 0 167.5 0 114.25 63.75 c 0,8,9
 63.25 123.75 63.25 123.75 46.75 229.5 c 0,10,11
 41.5 268.5 41.5 268.5 41.5 307.5 c 0,12,13
 41.5 357 41.5 357 52.75 426.75 c 128,-1,14
 64 496.5 64 496.5 105.625 565.125 c 128,-1,15
 147.25 633.75 147.25 633.75 214.75 658.5 c 0,16,17
 259.75 673.5 259.75 673.5 299.5 673.5 c 0,18,19
 367 673.5 367 673.5 415 632.25 c 1,20,-1
 415 673.5 l 1,21,-1
 500.5 673.5 l 1,22,-1
 500.5 0 l 1,0,-1
248.5 84.75 m 2,23,24
 287.5 84.75 287.5 84.75 316 113.25 c 0,25,26
 355 155.25 355 155.25 375.25 228 c 0,27,28
 406 339 406 339 406 469.5 c 0,29,30
 406 479.25 406 479.25 404.875 487.125 c 128,-1,31
 403.75 495 403.75 495 397.75 511.125 c 128,-1,32
 391.75 527.25 391.75 527.25 379.75 545.625 c 128,-1,33
 367.75 564 367.75 564 347.125 576 c 128,-1,34
 326.5 588 326.5 588 298.75 588 c 0,35,36
 273.25 588 273.25 588 242.5 578.25 c 0,37,38
 181.75 553.5 181.75 553.5 149.5 454.5 c 0,39,40
 127 386.25 127 386.25 127 310.5 c 0,41,42
 127 276.75 127 276.75 131.5 241.5 c 0,43,44
 134.5 217.5 134.5 217.5 145.375 181.5 c 128,-1,45
 156.25 145.5 156.25 145.5 180.25 117 c 128,-1,46
 204.25 88.5 204.25 88.5 244.75 84.75 c 1,47,-1
 248.5 84.75 l 2,23,24
EndSplineSet
Validated: 524289
EndChar

StartChar: b
Encoding: 98 98 69
Width: 509
GlyphClass: 2
Flags: W
LayerCount: 4
Fore
SplineSet
150.375 0 m 0,0,1
 106.125 0 106.125 0 94.875 1.5 c 2,2,-1
 52.125 4.5 l 1,3,-1
 58.125 90 l 1,4,-1
 70.125 88.5 l 1,5,-1
 70.125 641.25 l 1,6,-1
 108.375 683.25 l 1,7,8
 122.625 686.25 122.625 686.25 169.875 686.25 c 0,9,10
 292.125 686.25 292.125 686.25 354.375 631.5 c 0,11,12
 389.625 597 389.625 597 389.625 548.25 c 0,13,14
 385.125 450.75 385.125 450.75 300.375 392.25 c 1,15,16
 303.375 391.5 303.375 391.5 305.625 390 c 0,17,18
 466.875 326.25 466.875 326.25 466.875 199.5 c 2,19,-1
 466.875 191.25 l 2,20,21
 466.875 124.5 466.875 124.5 419.625 78.75 c 1,22,23
 328.875 0 328.875 0 150.375 0 c 0,0,1
154.875 419.25 m 1,24,25
 167.625 421.5 167.625 421.5 201.375 434.625 c 128,-1,26
 235.125 447.75 235.125 447.75 267 474.375 c 128,-1,27
 298.875 501 298.875 501 304.125 543.75 c 1,28,-1
 304.125 547.5 l 2,29,30
 304.125 561 304.125 561 295.125 570 c 0,31,32
 259.125 600.75 259.125 600.75 162.375 600.75 c 2,33,-1
 154.875 600.75 l 1,34,-1
 154.875 419.25 l 1,24,25
154.875 85.5 m 1,35,36
 208.125 86.25 208.125 86.25 267 98.25 c 128,-1,37
 325.875 110.25 325.875 110.25 361.125 140.25 c 0,38,39
 382.125 160.5 382.125 160.5 382.125 190.5 c 2,40,-1
 382.125 192.75 l 1,41,42
 379.125 241.5 379.125 241.5 346.125 270 c 128,-1,43
 313.125 298.5 313.125 298.5 270.375 312.375 c 128,-1,44
 227.625 326.25 227.625 326.25 194.625 330 c 0,45,46
 166.875 333.75 166.875 333.75 160.875 333.75 c 2,47,-1
 159.375 333.75 l 1,48,-1
 154.875 385.5 l 1,49,-1
 154.875 85.5 l 1,35,36
EndSplineSet
EndChar

StartChar: c
Encoding: 99 99 70
Width: 543
GlyphClass: 2
Flags: W
LayerCount: 4
Fore
SplineSet
316.125 -3 m 0,0,1
 229.875 -3 229.875 -3 135.375 82.5 c 1,2,3
 80.625 136.5 80.625 136.5 62.625 237.75 c 0,4,5
 51.375 297.75 51.375 297.75 51.375 356.25 c 0,6,7
 51.375 594.75 51.375 594.75 229.125 666.75 c 1,8,9
 268.875 679.5 268.875 679.5 307.125 679.5 c 0,10,11
 392.625 679.5 392.625 679.5 466.125 614.25 c 2,12,-1
 497.625 585 l 1,13,-1
 439.125 522.75 l 1,14,-1
 407.625 552 l 2,15,16
 360.375 594.75 360.375 594.75 306.375 594.75 c 0,17,18
 283.125 594.75 283.125 594.75 258.375 586.5 c 0,19,20
 160.125 546.75 160.125 546.75 141.375 426 c 0,21,22
 136.875 387 136.875 387 136.875 351 c 0,23,24
 136.875 298.5 136.875 298.5 150 236.625 c 128,-1,25
 163.125 174.75 163.125 174.75 192.375 146.25 c 0,26,27
 262.875 83.25 262.875 83.25 316.875 83.25 c 0,28,29
 340.125 83.25 340.125 83.25 360.75 95.625 c 128,-1,30
 381.375 108 381.375 108 394.125 127.5 c 0,31,32
 398.625 134.25 398.625 134.25 418.875 172.5 c 1,33,-1
 493.875 132 l 1,34,-1
 474.375 94.5 l 2,35,36
 473.625 91.5 473.625 91.5 459.375 72 c 128,-1,37
 445.125 52.5 445.125 52.5 417 30.75 c 128,-1,38
 388.875 9 388.875 9 346.125 0 c 0,39,40
 331.125 -3 331.125 -3 316.125 -3 c 0,0,1
EndSplineSet
EndChar

StartChar: d
Encoding: 100 100 71
Width: 578
GlyphClass: 2
Flags: W
LayerCount: 4
Fore
SplineSet
182.25 0 m 0,0,1
 120 1.5 120 1.5 100.5 6 c 1,2,-1
 62.25 6 l 1,3,-1
 62.25 14.25 l 1,4,-1
 54 15.75 l 1,5,-1
 62.25 53.25 l 1,6,-1
 62.25 516.75 l 1,7,-1
 45.75 543 l 1,8,-1
 62.25 552.75 l 1,9,-1
 62.25 681.75 l 1,10,-1
 147.75 681.75 l 1,11,-1
 147.75 645 l 1,12,13
 213 698.25 213 698.25 289.5 698.25 c 0,14,15
 313.5 698.25 313.5 698.25 337.5 693 c 0,16,17
 429 670.5 429 670.5 479.625 582.75 c 128,-1,18
 530.25 495 530.25 495 530.25 360 c 0,19,20
 530.25 167.25 530.25 167.25 415.5 72.75 c 0,21,22
 378 42.75 378 42.75 336.75 27 c 128,-1,23
 295.5 11.25 295.5 11.25 255.75 5.625 c 128,-1,24
 216 0 216 0 182.25 0 c 0,0,1
176.25 84.75 m 0,25,26
 207.75 84.75 207.75 84.75 258 91.875 c 128,-1,27
 308.25 99 308.25 99 362.25 139.5 c 1,28,29
 444.75 207.75 444.75 207.75 444.75 360 c 0,30,31
 444.75 463.5 444.75 463.5 411.375 529.125 c 128,-1,32
 378 594.75 378 594.75 318 609.75 c 0,33,34
 303.75 612.75 303.75 612.75 290.25 612.75 c 0,35,36
 256.5 612.75 256.5 612.75 217.875 591 c 128,-1,37
 179.25 569.25 179.25 569.25 152.25 516 c 1,38,-1
 147.75 510.75 l 1,39,-1
 147.75 86.25 l 1,40,41
 161.25 84.75 161.25 84.75 176.25 84.75 c 0,25,26
EndSplineSet
EndChar

StartChar: e
Encoding: 101 101 72
Width: 561
GlyphClass: 2
Flags: W
LayerCount: 4
Fore
SplineSet
322.125 0 m 0,0,1
 241.125 0 241.125 0 175.125 49.5 c 0,2,3
 90.375 116.25 90.375 116.25 64.125 245.25 c 0,4,5
 55.875 291 55.875 291 55.875 335.25 c 0,6,7
 55.875 408 55.875 408 78.375 478.5 c 0,8,9
 111.375 573.75 111.375 573.75 177.375 626.625 c 128,-1,10
 243.375 679.5 243.375 679.5 329.625 679.5 c 0,11,12
 391.125 679.5 391.125 679.5 433.875 632.25 c 0,13,14
 475.875 582 475.875 582 489.375 508.5 c 0,15,16
 502.875 442.5 502.875 442.5 502.875 386.25 c 0,17,18
 502.875 324 502.875 324 498.375 297.75 c 1,19,-1
 456.375 259.5 l 1,20,-1
 148.125 259.5 l 1,21,22
 166.875 165.75 166.875 165.75 226.875 117.75 c 0,23,24
 268.875 85.5 268.875 85.5 318.375 85.5 c 0,25,26
 333.375 85.5 333.375 85.5 360 90.375 c 128,-1,27
 386.625 95.25 386.625 95.25 410.625 129.75 c 2,28,-1
 433.125 165.75 l 1,29,-1
 505.125 120.75 l 1,30,-1
 482.625 84.75 l 2,31,32
 427.125 1.5 427.125 1.5 322.125 0 c 0,0,1
416.625 345 m 1,33,-1
 417.375 368.25 l 1,34,35
 417.375 518.25 417.375 518.25 370.875 575.25 c 0,36,37
 355.125 594 355.125 594 329.625 594 c 0,38,39
 237.375 594 237.375 594 187.875 512.25 c 0,40,41
 143.625 437.25 143.625 437.25 140.625 345 c 1,42,-1
 416.625 345 l 1,33,-1
EndSplineSet
EndChar

StartChar: f
Encoding: 102 102 73
Width: 676
GlyphClass: 2
Flags: W
LayerCount: 4
Fore
SplineSet
246.25 0 m 1,0,-1
 161.5 0 l 1,1,-1
 161.5 248.25 l 1,2,-1
 56.5 248.25 l 1,3,-1
 56.5 333.75 l 1,4,-1
 161.5 333.75 l 1,5,-1
 161.5 659.25 l 1,6,-1
 204.25 702 l 1,7,-1
 617.5 704.25 l 1,8,-1
 617.5 618.75 l 1,9,-1
 247 617.25 l 1,10,-1
 247 333.75 l 1,11,-1
 346.75 333.75 l 1,12,-1
 346.75 248.25 l 1,13,-1
 247 248.25 l 1,14,-1
 246.25 0 l 1,0,-1
EndSplineSet
EndChar

StartChar: g
Encoding: 103 103 74
Width: 588
GlyphClass: 2
Flags: W
LayerCount: 4
Fore
SplineSet
256.125 0 m 0,0,1
 179.625 1.5 179.625 1.5 129 63.740234375 c 128,-1,2
 78.375 125.981445312 78.375 125.981445312 63.375 239.213867188 c 0,3,4
 58.125 284.20703125 58.125 284.20703125 58.125 326.950195312 c 0,5,6
 58.125 461.9296875 58.125 461.9296875 109.875 575.163085938 c 0,7,8
 124.125 608.158203125 124.125 608.158203125 153 642.27734375 c 128,-1,9
 181.875 676.397460938 181.875 676.397460938 234.375 691.395507812 c 0,10,11
 269.625 698.893554688 269.625 698.893554688 302.625 698.893554688 c 0,12,13
 413.625 698.893554688 413.625 698.893554688 498.375 615.65625 c 1,14,-1
 527.625 584.911132812 l 1,15,-1
 465.375 526.419921875 l 1,16,-1
 436.125 557.166015625 l 1,17,18
 377.625 613.407226562 377.625 613.407226562 301.125 613.407226562 c 0,19,20
 279.375 613.407226562 279.375 613.407226562 255.375 608.907226562 c 0,21,22
 214.875 599.909179688 214.875 599.909179688 187.125 539.16796875 c 0,23,24
 143.625 443.182617188 143.625 443.182617188 143.625 326.950195312 c 0,25,26
 143.625 289.456054688 143.625 289.456054688 148.125 249.711914062 c 0,27,28
 150.375 227.215820312 150.375 227.215820312 161.25 187.096679688 c 128,-1,29
 172.125 146.977539062 172.125 146.977539062 195.75 116.607421875 c 128,-1,30
 219.375 86.2373046875 219.375 86.2373046875 258.375 86.2373046875 c 2,31,-1
 265.875 86.2373046875 l 1,32,33
 341.625 95.9853515625 341.625 95.9853515625 380.25 138.729492188 c 128,-1,34
 418.875 181.47265625 418.875 181.47265625 432.75 234.33984375 c 128,-1,35
 446.625 287.20703125 446.625 287.20703125 447.375 325.451171875 c 1,36,-1
 186.375 324.701171875 l 1,37,-1
 185.625 409.438476562 l 1,38,-1
 489.375 410.9375 l 1,39,-1
 532.125 371.943359375 l 2,40,41
 532.875 369.694335938 532.875 369.694335938 532.875 356.196289062 c 256,42,43
 532.875 342.698242188 532.875 342.698242188 531.75 305.579101562 c 128,-1,44
 530.625 268.459960938 530.625 268.459960938 511.875 202.469726562 c 0,45,46
 453.375 20.9970703125 453.375 20.9970703125 274.875 1.5 c 0,47,48
 265.125 0 265.125 0 256.125 0 c 0,0,1
EndSplineSet
EndChar

StartChar: h
Encoding: 104 104 75
Width: 596
GlyphClass: 2
Flags: W
LayerCount: 4
Fore
SplineSet
499.875 0 m 1,0,-1
 414.375 0 l 1,1,-1
 414.375 252 l 1,2,-1
 202.125 252 l 1,3,-1
 202.125 0 l 1,4,-1
 116.625 0 l 1,5,-1
 116.625 252 l 1,6,-1
 43.125 252 l 1,7,-1
 43.125 336.75 l 1,8,-1
 116.625 336.75 l 1,9,-1
 116.625 682.5 l 1,10,-1
 202.125 682.5 l 1,11,-1
 202.125 336.75 l 1,12,-1
 414.375 336.75 l 1,13,-1
 414.375 682.5 l 1,14,-1
 499.875 682.5 l 1,15,-1
 499.875 336.75 l 1,16,-1
 547.875 336.75 l 1,17,-1
 547.875 252 l 1,18,-1
 499.875 252 l 1,19,-1
 499.875 0 l 1,0,-1
EndSplineSet
EndChar

StartChar: i
Encoding: 105 105 76
Width: 144
GlyphClass: 2
Flags: W
LayerCount: 4
Fore
SplineSet
103 632 m 0,0,1
 101 632 101 632 88 638.5 c 128,-1,2
 75 645 75 645 73 645 c 256,3,4
 71 645 71 645 58 638.5 c 128,-1,5
 45 632 45 632 43 632 c 0,6,7
 34 632 34 632 34 642 c 2,8,-1
 38 668 l 2,9,10
 38 672 38 672 36 674 c 2,11,-1
 18 691 l 2,12,13
 15 694 15 694 15 697 c 0,14,15
 15 705 15 705 23 706 c 2,16,-1
 47 710 l 2,17,18
 52 710 52 710 54 714 c 2,19,-1
 65 737 l 2,20,21
 68 741 68 741 73 741 c 0,22,23
 77 741 77 741 80 737 c 2,24,-1
 91 714 l 2,25,26
 93 710 93 710 98 710 c 2,27,-1
 122 706 l 2,28,29
 130 705 130 705 130 697 c 0,30,31
 130 694 130 694 127 691 c 2,32,-1
 109 674 l 2,33,34
 107 672 107 672 107 668 c 2,35,-1
 111 640 l 2,36,37
 111 632 111 632 103 632 c 0,0,1
114.75 0 m 1,38,-1
 29.25 0 l 1,39,-1
 29.25 542.5 l 1,40,-1
 114.75 542.5 l 1,41,-1
 114.75 0 l 1,38,-1
EndSplineSet
EndChar

StartChar: j
Encoding: 106 106 77
Width: 512
GlyphClass: 2
Flags: W
LayerCount: 4
Fore
SplineSet
272 0 m 2,0,-1
 252.5 0 l 1,1,2
 53 19.5 53 19.5 37.25 226.5 c 2,3,-1
 34.25 269.25 l 1,4,-1
 119.75 273.75 l 1,5,-1
 122 231 l 1,6,7
 130.25 141.75 130.25 141.75 172.25 113.625 c 128,-1,8
 214.25 85.5 214.25 85.5 258.5 85.5 c 2,9,-1
 266 85.5 l 2,10,11
 295.25 85.5 295.25 85.5 317.75 108 c 0,12,13
 357.5 153.75 357.5 153.75 373.25 242.25 c 128,-1,14
 389 330.75 389 330.75 389 427.5 c 0,15,16
 389 525 389 525 382.25 594.75 c 1,17,-1
 47 594.75 l 1,18,-1
 47 680.25 l 1,19,-1
 421.25 680.25 l 1,20,-1
 450.5 668.25 l 1,21,22
 461.75 658.5 461.75 658.5 463.25 642.75 c 2,23,-1
 468.5 586.5 l 2,24,25
 473.75 527.25 473.75 527.25 473.75 438 c 0,26,27
 473.75 231 473.75 231 425 120 c 1,28,29
 368 0 368 0 272 0 c 2,0,-1
EndSplineSet
EndChar

StartChar: k
Encoding: 107 107 78
Width: 516
GlyphClass: 2
Flags: W
LayerCount: 4
Fore
SplineSet
140.75 0 m 1,0,-1
 55.25 0 l 1,1,-1
 55.25 682.5 l 1,2,-1
 140.75 682.5 l 1,3,-1
 140.75 384 l 1,4,5
 209.75 386.25 209.75 386.25 263 436.5 c 128,-1,6
 316.25 486.75 316.25 486.75 381.5 633.75 c 2,7,-1
 398.75 672.75 l 1,8,-1
 476.75 638.25 l 1,9,-1
 459.5 599.25 l 2,10,11
 401 465 401 465 342.5 397.125 c 128,-1,12
 284 329.25 284 329.25 207.5 309 c 1,13,14
 239 264 239 264 275.75 229.125 c 128,-1,15
 312.5 194.25 312.5 194.25 344.75 191.25 c 2,16,-1
 386.75 189 l 1,17,-1
 383 103.5 l 1,18,-1
 340.25 105.75 l 2,19,20
 278 111.75 278 111.75 226.25 159 c 128,-1,21
 174.5 206.25 174.5 206.25 140.75 256.5 c 1,22,-1
 140.75 0 l 1,0,-1
EndSplineSet
EndChar

StartChar: l
Encoding: 108 108 79
Width: 472
GlyphClass: 2
Flags: W
LayerCount: 4
Fore
SplineSet
433.875 0 m 1,0,-1
 79.875 0 l 1,1,-1
 37.875 42 l 1,2,-1
 37.125 677.25 l 1,3,-1
 121.875 677.25 l 1,4,-1
 122.625 84.75 l 1,5,-1
 433.875 84.75 l 1,6,-1
 433.875 0 l 1,0,-1
EndSplineSet
EndChar

StartChar: m
Encoding: 109 109 80
Width: 838
GlyphClass: 2
Flags: W
LayerCount: 4
Fore
SplineSet
132.5 0 m 1,0,-1
 47.75 4.5 l 1,1,-1
 50 690 l 1,2,-1
 135.5 689.25 l 1,3,-1
 134.75 465 l 1,4,5
 204.5 684 204.5 684 317 684 c 0,6,7
 428 684 428 684 464 465.75 c 1,8,9
 514.25 607.5 514.25 607.5 601.25 607.5 c 0,10,11
 647 607.5 647 607.5 683 573 c 1,12,13
 737 513 737 513 761.75 398.25 c 0,14,15
 796.25 234 796.25 234 796.25 49.5 c 2,16,-1
 796.25 7.5 l 1,17,-1
 711.5 7.5 l 1,18,-1
 711.5 49.5 l 2,19,20
 711.5 125.25 711.5 125.25 702.875 220.125 c 128,-1,21
 694.25 315 694.25 315 674.75 396.375 c 128,-1,22
 655.25 477.75 655.25 477.75 623 512.25 c 0,23,24
 613.25 522 613.25 522 605 522 c 2,25,-1
 601.25 522 l 2,26,27
 585.5 522 585.5 522 558.5 470.625 c 128,-1,28
 531.5 419.25 531.5 419.25 506 276.75 c 1,29,30
 484.25 127.5 484.25 127.5 481.25 41.25 c 2,31,-1
 479 1.5 l 1,32,-1
 393.5 6 l 1,33,34
 393.5 10.5 393.5 10.5 396.125 58.125 c 128,-1,35
 398.75 105.75 398.75 105.75 398.75 158.25 c 0,36,37
 398.75 210 398.75 210 395.75 292.875 c 128,-1,38
 392.75 375.75 392.75 375.75 377.75 465.375 c 128,-1,39
 362.75 555 362.75 555 332 590.25 c 0,40,41
 323.75 599.25 323.75 599.25 317 599.25 c 0,42,43
 314.75 599.25 314.75 599.25 306.125 595.875 c 128,-1,44
 297.5 592.5 297.5 592.5 284.375 578.625 c 128,-1,45
 271.25 564.75 271.25 564.75 254.75 534 c 128,-1,46
 238.25 503.25 238.25 503.25 219.875 449.625 c 128,-1,47
 201.5 396 201.5 396 182.75 313.5 c 0,48,49
 156.5 192.75 156.5 192.75 144.5 99.75 c 128,-1,50
 132.5 6.75 132.5 6.75 132.5 0 c 1,0,-1
EndSplineSet
EndChar

StartChar: n
Encoding: 110 110 81
Width: 610
GlyphClass: 2
Flags: W
LayerCount: 4
Fore
SplineSet
545.75 0 m 1,0,-1
 461 10.5 l 1,1,-1
 466.25 52.5 l 1,2,-1
 473 135.75 l 2,3,4
 476.75 187.5 476.75 187.5 476.75 251.25 c 2,5,-1
 476 318 l 1,6,7
 464.75 561.75 464.75 561.75 387.5 594 c 0,8,9
 385.25 594.75 385.25 594.75 382.25 594.75 c 0,10,11
 374.75 594.75 374.75 594.75 365.75 590.25 c 0,12,13
 319.25 560.25 319.25 560.25 275 458.25 c 128,-1,14
 230.75 356.25 230.75 356.25 194.75 230.25 c 128,-1,15
 158.75 104.25 158.75 104.25 138.5 0 c 1,16,-1
 53.75 8.25 l 1,17,-1
 55.25 693 l 1,18,-1
 140.75 693 l 1,19,-1
 140 342 l 1,20,21
 227 609.75 227 609.75 323 664.5 c 0,22,23
 351.5 680.25 351.5 680.25 380 680.25 c 0,24,25
 397.25 680.25 397.25 680.25 415.25 674.25 c 0,26,27
 550.25 630 550.25 630 561.5 320.25 c 1,28,-1
 562.25 250.5 l 2,29,30
 562.25 184.5 562.25 184.5 557.375 117.375 c 128,-1,31
 552.5 50.25 552.5 50.25 550.25 42.75 c 2,32,-1
 545.75 0 l 1,0,-1
EndSplineSet
EndChar

